<svg xmlns="http://www.w3.org/2000/svg" viewBox="0 0 32 32">
	<path d="M24,27.47l-4.45-1.21L18.4,22l3.36-3.36,4.34,1.17,1.21,4.44A14.06,14.06,0,0,1,24,27.47Zm-19.16-3,2,.55.58,2.09A13.94,13.94,0,0,1,4.86,24.45ZM3.07,10.64l.57,2.06L2.13,14.21A13.71,13.71,0,0,1,3.07,10.64ZM7.7,4.74,12,5.92l1.17,4.29L9.89,13.52,5.62,12.37,4.44,8.1A14.45,14.45,0,0,1,7.7,4.74ZM27.33,7.8l-2.54-.69L24.1,4.6A14,14,0,0,1,27.33,7.8ZM24.27,9l4.49,1.22a13.9,13.9,0,0,1,1.17,4.43l-3.2,3.2-4.56-1.23L21,12.32ZM12.54,4l-2.45-.67a14.14,14.14,0,0,1,4.35-1.23Zm7,6.92L15.13,9.69,14,5.4,17.3,2.07A13.82,13.82,0,0,1,21.65,3.2l1.21,4.42Zm-2.5,9.57-4.42-1.19-1.23-4.47,3.19-3.19,4.45,1.21,1.21,4.44ZM7.35,23.05,3.35,22a13.9,13.9,0,0,1-1.29-4.86l2.86-2.86L9.53,15.5l1.16,4.21Zm11.8,5.17,2.38.64a13.63,13.63,0,0,1-4.08,1.06Zm-4.53,1.71A13.75,13.75,0,0,1,10,28.62l-1.15-4.2L12,21.19l4.4,1.19,1.22,4.5ZM28.06,19.39l1.85-1.85a13.58,13.58,0,0,1-1.19,4.28ZM16,0A16,16,0,0,0,0,16c0,.11,0,.22,0,.32l-.08.08.08.09a15.92,15.92,0,0,0,1.91,7.13v0H2A16,16,0,1,0,16,0Z"/>
</svg>