<svg xmlns="http://www.w3.org/2000/svg" viewBox="0 0 32 32">
	<path d="M18,2c0-.35,0-.69,0-1a1,1,0,0,0-2,.06v.06a13.94,13.94,0,0,1-4.07,10.8A14,14,0,0,1,1.07,16a1,1,0,0,0-.13,2c.34,0,.69,0,1,0A16,16,0,0,0,18,2M31,14c-.34,0-.68,0-1,0A16,16,0,0,0,14,30c0,.35,0,.69,0,1a1,1,0,1,0,2-.13h0A14,14,0,0,1,30.88,16,1,1,0,0,0,31,14h0"/>
	<path d="M6.08,6.1a14,14,0,0,1,19.8,19.79A13.67,13.67,0,0,1,16,30a13.74,13.74,0,0,1-9.91-4.11,14,14,0,0,1,0-19.79ZM16,32A16,16,0,1,0,0,16,15.92,15.92,0,0,0,16,32Z"/>
</svg>