<svg xmlns="http://www.w3.org/2000/svg" viewBox="0 0 39.8 39.8">
	<path d="M12.09,11H9.51c-1,0-1.51.18-1.51,1v1c0,.87.51,1.05,1.51,1.05h.59c.37,0,.54.21.54.81V27.78c0,1,.17,1.59,1,1.59h1c.83,0,1-.54,1-1.59V12c0-.87-.51-1-1.51-1"/>
	<path d="M37.18,17.67c0,.45-.21.69-.63.69h-2V17c0-1-.15-1.6-1.05-1.6h-.91c-.9,0-1.05.55-1.05,1.6v1.41H30.11c-1.06,0-1.6.15-1.6,1.06v1c0,.91.54,1.06,1.6,1.06h1.41v1.41c0,1,.15,1.6,1.05,1.6h.91c.9,0,1.05-.55,1.05-1.6V21.44h2a.57.57,0,0,1,.63.6v4.57a3.48,3.48,0,0,1-1.11,2.71L29.35,36a3.66,3.66,0,0,1-2.74,1.14H13.19A3.66,3.66,0,0,1,10.45,36L3.73,29.32a3.42,3.42,0,0,1-1.11-2.71V13.34A3.87,3.87,0,0,1,3.8,10.45l6.83-6.93a3.4,3.4,0,0,1,2.56-.9H26.62a3.39,3.39,0,0,1,2.55.9L36,10.45a4,4,0,0,1,1.17,2.89v4.33ZM31,1.78A6.1,6.1,0,0,0,26.58,0H13.22A6,6,0,0,0,8.79,1.78l-7.07,7A5.84,5.84,0,0,0,0,13V26.61a6,6,0,0,0,1.9,4.55l6.71,6.71a6.07,6.07,0,0,0,4.7,1.9H26.49a6.22,6.22,0,0,0,4.7-1.9l6.71-6.71a6.15,6.15,0,0,0,1.9-4.55V13a5.86,5.86,0,0,0-1.72-4.22Z"/>
	<path d="M21.6,26.49c-1.89,0-2.56-.75-2.56-2.66S19.71,21,21.6,21s2.56.88,2.56,2.79-.67,2.66-2.56,2.66M21.6,13c1.62,0,2.27.6,2.27,2.63s-.65,2.64-2.27,2.64-2.27-.67-2.27-2.64S20,13,21.6,13m3.48,6.51a3.84,3.84,0,0,0,1.68-3.55v-1c-.18-3.42-1.3-4.72-5.16-4.72s-5,1.3-5.16,4.73v1a3.84,3.84,0,0,0,1.68,3.54C16.15,20.25,16,22,16,24.25c0,3.36,1.15,5,5.6,5.12,4.45-.09,5.6-1.76,5.6-5.12,0-2.27-.15-4-2.12-4.78"/>
</svg>