<svg xmlns="http://www.w3.org/2000/svg" viewBox="0 0 21.45 21.45">
	<path d="M3.6,13.72a1.19,1.19,0,1,1-2.37,0V8.37a1.19,1.19,0,1,1,2.37,0v5.35Zm16.63,0a1.19,1.19,0,0,1-2.38,0V8.37a1.19,1.19,0,0,1,2.38,0v5.35ZM9.54,20.26a1.19,1.19,0,1,1-2.38,0V14.91a1.19,1.19,0,0,1,2.38,0Zm4.75,0a1.19,1.19,0,1,1-2.38,0V14.91a1.19,1.19,0,0,1,2.38,0Z"/>
	<path d="M4.79,7.18V16.1A1.18,1.18,0,0,0,6,17.28h9.5a1.18,1.18,0,0,0,1.18-1.19V7.18Zm5.94-5.95C7.16,1.23,5,3.37,4.79,6H16.66C16.48,3.37,14.29,1.23,10.73,1.23ZM8.35,4.56A.56.56,0,0,1,7.76,4,.59.59,0,1,1,8.94,4,.59.59,0,0,1,8.35,4.56Zm4.75,0A.56.56,0,0,1,12.51,4a.59.59,0,1,1,1.18,0A.59.59,0,0,1,13.1,4.56Z"/>
	<path d="M13.28,2.72a.85.85,0,0,1-.36-.12.6.6,0,0,1-.18-.83l1-1.49A.58.58,0,0,1,14.58.1a.58.58,0,0,1,.18.83l-1,1.49A.46.46,0,0,1,13.28,2.72ZM7.94,2.48a.53.53,0,0,1-.48-.3L6.69.93A.58.58,0,0,1,6.87.1.58.58,0,0,1,7.7.28l.77,1.25a.58.58,0,0,1-.18.83.85.85,0,0,1-.36.12Z"/>
</svg>