<svg xmlns="http://www.w3.org/2000/svg" viewBox="0 0 21.5 21.5">
	<path d="M18.91,7.33a4.86,4.86,0,0,0-2.36,4.13,4.89,4.89,0,0,0,2.9,4.32A11.3,11.3,0,0,1,18,18.84c-.86,1.32-1.82,2.66-3.28,2.66s-1.88-.88-3.48-.88-2.2.88-3.52.88-2.48-1.41-3.39-2.72a13.45,13.45,0,0,1-2.23-7A7.46,7.46,0,0,1,3,7.92,5.32,5.32,0,0,1,7.38,5.2c1.39,0,2.64,1,3.49,1s2.34-1,4.07-1A4.75,4.75,0,0,1,18.91,7.33Zm-8.16-2.4a4.27,4.27,0,0,1,1.08-3.31A4.56,4.56,0,0,1,15.05,0a4.71,4.71,0,0,1-1.18,3.38A3.67,3.67,0,0,1,10.75,4.93Z"/>
</svg>