<svg xmlns="http://www.w3.org/2000/svg" viewBox="0 0 17.41 17.41">
	<path d="M3,11.88H5.41L4.83,14.2a1.87,1.87,0,0,0,1.22,2.23h0a1.86,1.86,0,0,0,2.15-.74l1.21-1.81,3-3h.27a2,2,0,0,0,1.73,1h1a2,2,0,0,0,2-2v-7a2,2,0,0,0-2-2h-1a2,2,0,0,0-1.63.85L9.41.88H3.91A3,3,0,0,0,1,3.35l-.91,5a3,3,0,0,0,2.41,3.48A2.47,2.47,0,0,0,3,11.88Zm11.41-10h1a1,1,0,0,1,1,1v7a1,1,0,0,1-1,1h-1a1,1,0,0,1-1-1v-7A1,1,0,0,1,14.41,1.88ZM1,8.52l.91-5a2,2,0,0,1,2-1.64H9.28l3.13.78V9.88H12l-.29.3-3,3-.07.07-.06.08-1.2,1.81a.87.87,0,0,1-1.21.24.86.86,0,0,1-.36-.93l.58-2.32.31-1.25H3a2,2,0,0,1-2-2,2.19,2.19,0,0,1,0-.36Z"/>
</svg>