<svg xmlns="http://www.w3.org/2000/svg" viewBox="0 0 19.33 19.33">
    <path d="M12.82,16a7.82,7.82,0,1,1,3.85-6.73A7.63,7.63,0,0,1,16,12.31a1.87,1.87,0,0,1,.34.08,1.66,1.66,0,0,1,.59.26,8.59,8.59,0,0,0,.72-3.4,8.85,8.85,0,1,0-4.35,7.6,1.78,1.78,0,0,1-.25-.36A2,2,0,0,1,12.82,16Z"/>
    <path d="M15.5,11.25a3.83,3.83,0,1,0,3.83,3.83A3.84,3.84,0,0,0,15.5,11.25Zm0,6.66a2.83,2.83,0,0,1-2.63-1.78.08.08,0,0,1,0,0c0-.06,0-.13-.08-.2h0a3,3,0,0,1-.11-.8,2.83,2.83,0,0,1,2.83-2.83,2.77,2.77,0,0,1,1,.17,1.66,1.66,0,0,1,.55.27,2.83,2.83,0,0,1-1.51,5.22Z"/>
    <polygon points="14.31 13.49 15.9 15.08 14.31 16.67 14.8 17.16 16.89 15.08 14.8 13 14.31 13.49"/>
    <path d="M8.54,14V13a3.25,3.25,0,0,1-1.41-.41,4,4,0,0,1-1-.84l.8-.72a3.12,3.12,0,0,0,.75.67,2.24,2.24,0,0,0,.92.32V9.59A3.41,3.41,0,0,1,6.9,8.83a1.8,1.8,0,0,1-.53-1.35A1.79,1.79,0,0,1,7,6.09a2.74,2.74,0,0,1,1.59-.63v-1h.93v1a3.11,3.11,0,0,1,1.23.35,2.93,2.93,0,0,1,.91.78l-.82.67a2.1,2.1,0,0,0-1.38-.82V8.69h0a8.28,8.28,0,0,1,1,.34,2.47,2.47,0,0,1,.7.44,1.39,1.39,0,0,1,.39.57,2.19,2.19,0,0,1,.12.75,2.07,2.07,0,0,1-.57,1.49A2.69,2.69,0,0,1,9.47,13v1Zm2-3.1a1,1,0,0,0-.24-.69,1.79,1.79,0,0,0-.89-.43v2.29a1.42,1.42,0,0,0,.83-.4A1,1,0,0,0,10.54,10.88Zm-3-3.45a.88.88,0,0,0,.27.7,2.38,2.38,0,0,0,.83.39V6.43a1.51,1.51,0,0,0-.81.33A.86.86,0,0,0,7.51,7.43Z"/>
</svg>