<svg xmlns="http://www.w3.org/2000/svg" viewBox="0 0 17 17">
	<path fill-rule="evenodd" d="M2.712 3.4a2.444 2.444 0 0 1-.162-.877C2.55 1.13 3.718 0 5.16 0 6.091 0 7.57 1.113 8.5 2.276 9.429 1.113 10.909 0 11.84 0c1.442 0 2.61 1.13 2.61 2.523 0 .309-.057.604-.162.877H15.3A1.7 1.7 0 0 1 17 5.1v2.55a1.7 1.7 0 0 1-.864 1.48 1.7 1.7 0 0 1 .014.22v5.95a1.7 1.7 0 0 1-1.7 1.7H2.55a1.7 1.7 0 0 1-1.7-1.7V9.35a1.867 1.867 0 0 1 .014-.22A1.7 1.7 0 0 1 0 7.65V5.1a1.7 1.7 0 0 1 1.7-1.7h1.012zm7.068-.001c.225.003.473-.001.74-.01l.374-.015c.32-.013.665-.027.947-.027.556 0 .909-.422.909-.824 0-.394-.34-.808-.88-.823-.002.004-.141.032-.43.202-.323.19-.696.479-1.053.824a6.411 6.411 0 0 0-.607.673zM7.04 5.1H1.7v2.55h5.95V5.1h-.61zm2.31 0h5.95v2.55H9.35V5.1zm-1.7 4.25h-5.1v5.95h5.1V9.35zm1.7 5.95V9.35h5.1v5.95h-5.1zM6.48 3.389c.267.009.515.013.74.01a6.411 6.411 0 0 0-.607-.673 5.872 5.872 0 0 0-1.054-.824c-.24-.14-.376-.184-.416-.197L5.129 1.7c-.538.015-.879.429-.879.823 0 .402.353.824.91.824.281 0 .626.014.946.027l.374.015z"/>
</svg>
