<svg xmlns="http://www.w3.org/2000/svg" viewBox="0 0 17.41 17.41">
	<path d="M14.4,5.53H12l.58-2.32A1.87,1.87,0,0,0,11.36,1h0a1.86,1.86,0,0,0-2.15.74L8,3.53l-3,3H4.72A2,2,0,0,0,3,5.53H2a2,2,0,0,0-2,2v7a2,2,0,0,0,2,2H3a2,2,0,0,0,1.63-.85L8,16.53h5.5a3,3,0,0,0,2.95-2.47l.91-5a3,3,0,0,0-2.42-3.48A2.36,2.36,0,0,0,14.4,5.53ZM3,15.53H2a1,1,0,0,1-1-1v-7a1,1,0,0,1,1-1H3a1,1,0,0,1,1,1v7A1,1,0,0,1,3,15.53ZM16.37,8.89l-.91,5a2,2,0,0,1-2,1.64H8.12L5,14.75V7.53h.41l.3-.3,3-3,.07-.07.05-.08L10,2.27A.87.87,0,0,1,11.61,3L11,5.28l-.31,1.25h3.69a2,2,0,0,1,2,2A2.2,2.2,0,0,1,16.37,8.89Z"/>
</svg>