<svg xmlns="http://www.w3.org/2000/svg" viewBox="0 0 20 20">
	<path d="M17.25,18H2.75A2.75,2.75,0,0,1,0,15.25V4.75A2.75,2.75,0,0,1,2.75,2h14.5A2.75,2.75,0,0,1,20,4.75v10.5A2.75,2.75,0,0,1,17.25,18ZM2.75,3.5A1.25,1.25,0,0,0,1.5,4.75v10.5A1.25,1.25,0,0,0,2.75,16.5h14.5a1.25,1.25,0,0,0,1.25-1.25V4.75A1.25,1.25,0,0,0,17.25,3.5Z"/>
	<polygon points="15.17 17.62 8.25 11.94 1.42 16.62 0.58 15.38 8.33 10.06 11.91 13 15.84 10.57 20.01 13.38 19.18 14.62 15.8 12.36 13.14 14.01 16.12 16.46 15.17 17.62"/>
	<path d="M12,9.75A2.75,2.75,0,1,1,14.75,7,2.75,2.75,0,0,1,12,9.75Zm0-4A1.25,1.25,0,1,0,13.25,7,1.25,1.25,0,0,0,12,5.75Z"/>
</svg>