<svg xmlns="http://www.w3.org/2000/svg" viewBox="0 0 31 20">
    <path d="M31,2.5C31,1,28.65,0,25.8,0s-5.2,1-5.2,2.5S23,5,25.8,5,31,4,31,2.5Zm-9.6,0c0-.82,2-1.67,4.4-1.67s4.4.85,4.4,1.67-1.95,1.67-4.4,1.67S21.4,3.32,21.4,2.5Z"/>
    <path d="M20.6,5c0,1.48,2.35,2.5,5.2,2.5S31,6.48,31,5V2.5h-.8V5c0,.82-1.95,1.67-4.4,1.67S21.4,5.82,21.4,5V2.5h-.8Z"/>
    <path d="M20.6,7.51h0V5h.8V7.57C21.15,7.54,20.88,7.52,20.6,7.51Zm4,2.43A11.22,11.22,0,0,0,25.8,10C28.65,10,31,9,31,7.5V5h-.8V7.5c0,.82-1.95,1.67-4.4,1.67a11.4,11.4,0,0,1-1.2-.07v.07C24.6,9.24,24.61,9.52,24.62,9.94Z"/>
    <path d="M24.68,12.45c.36,0,.74.05,1.12.05,2.85,0,5.2-1,5.2-2.5V7.5h-.8V10c0,.82-1.95,1.67-4.4,1.67a10.26,10.26,0,0,1-1.14-.07C24.66,11.87,24.67,12.16,24.68,12.45ZM21.4,7.57V7.5h-.8C20.88,7.52,21.14,7.54,21.4,7.57Z"/>
    <path d="M25.4,10c0-1.48-2.35-2.5-5.2-2.5S15,8.52,15,10s2.35,2.5,5.2,2.5S25.4,11.48,25.4,10Zm-9.6,0c0-.82,1.95-1.67,4.4-1.67s4.4.85,4.4,1.67-2,1.67-4.4,1.67S15.8,10.82,15.8,10Z"/>
    <path d="M15,12.5C15,14,17.35,15,20.2,15s5.2-1,5.2-2.5V10h-.8v2.5c0,.82-2,1.67-4.4,1.67s-4.4-.85-4.4-1.67V10H15Z"/>
    <path d="M15,15c0,1.48,2.35,2.5,5.2,2.5s5.2-1,5.2-2.5V12.5h-.8V15c0,.82-2,1.67-4.4,1.67s-4.4-.85-4.4-1.67V12.5H15Z"/>
    <path d="M15,17.5C15,19,17.35,20,20.2,20s5.2-1,5.2-2.5V15h-.8v2.5c0,.82-2,1.67-4.4,1.67s-4.4-.85-4.4-1.67V15H15Z"/>
    <path d="M24.74,15c.34,0,.7.05,1.06.05,2.85,0,5.2-1,5.2-2.5V10h-.8v2.5c0,.82-1.95,1.67-4.4,1.67a9.38,9.38,0,0,1-1.08-.06Z"/>
    <path d="M24.81,17.46c.32,0,.65,0,1,0,2.85,0,5.2-1,5.2-2.5V12.5h-.8V15c0,.82-1.95,1.67-4.4,1.67-.35,0-.69,0-1-.05,0,.43,0,.73,0,.84Z"/>
    <polygon points="7 15 4 15 4 0 7 0 7 15" fill="#39af61" fill-rule="evenodd"/>
    <polygon points="0.55 14.5 10.45 14.5 5.5 19.45 0.55 14.5" fill="#39af61" fill-rule="evenodd"/>
</svg>