<svg xmlns="http://www.w3.org/2000/svg" viewBox="0 0 23 23">
	<path d="M20.22,15a10.53,10.53,0,1,0-4.5,5.14L15.65,20a1.4,1.4,0,0,1-.12-.18.94.94,0,0,1-.12-.18h0a1.19,1.19,0,0,1-.11-.26l-.07-.12A9.37,9.37,0,0,1,10.5,20.5a9.5,9.5,0,1,1,8.79-5.9"/>
	<path d="M19.29,14.6a2.17,2.17,0,0,1,.59.2,1.5,1.5,0,0,1,.34.16"/>
	<path d="M18.5,22.5A4.5,4.5,0,1,1,23,18,4.51,4.51,0,0,1,18.5,22.5Zm0-8A3.5,3.5,0,1,0,22,18,3.5,3.5,0,0,0,18.5,14.5Z"/>
	<path d="M8.77,13.94V16H7.93V13.94H6.74v-.7H7.93V11.69H6.74V11H7.93V6.23h3.83a2.51,2.51,0,0,1,2,.73,2.85,2.85,0,0,1,.67,2,2.82,2.82,0,0,1-.67,2,2.52,2.52,0,0,1-2,.74h-3v1.55h3.69v.7Zm0-2.95h3a1.57,1.57,0,0,0,1.73-1.65v-.7a1.65,1.65,0,0,0-.44-1.19A1.68,1.68,0,0,0,11.76,7h-3Z"/>
	<path d="M17.08,16.09,19,18l-1.91,1.91.59.59,2.5-2.5-2.5-2.5Z"/>
</svg>