<svg xmlns="http://www.w3.org/2000/svg" viewBox="0 0 12.8 12.8">
	<path d="M11.16,7a6.06,6.06,0,0,0,0-.62,4.1,4.1,0,0,0,0-.62L12.5,4.72a.32.32,0,0,0,.08-.41L11.3,2.1A.31.31,0,0,0,10.91,2l-1.59.64A5,5,0,0,0,8.24,2L8,.27A.31.31,0,0,0,7.68,0H5.12a.3.3,0,0,0-.31.27L4.57,2a4.81,4.81,0,0,0-1.08.62L1.9,2a.33.33,0,0,0-.4.15L.22,4.31a.32.32,0,0,0,.08.41L1.66,5.78a3.18,3.18,0,0,0-.06.62,4.21,4.21,0,0,0,0,.62L.3,8.08a.32.32,0,0,0-.08.41L1.5,10.7a.31.31,0,0,0,.39.15l1.59-.64a5,5,0,0,0,1.08.62l.24,1.7a.32.32,0,0,0,.32.27H7.68A.3.3,0,0,0,8,12.53l.24-1.7a4.81,4.81,0,0,0,1.08-.62l1.59.64a.33.33,0,0,0,.4-.15l1.28-2.21a.32.32,0,0,0-.08-.41ZM6.4,8.8A2.4,2.4,0,1,1,8.8,6.4,2.41,2.41,0,0,1,6.4,8.8Z"/>
</svg>