<svg xmlns="http://www.w3.org/2000/svg" viewBox="0 0 330 990">
	<path d="M165,330C74,330,0,404,0,495S74,660,165,660s165-74,165-165S256,330,165,330Zm0,300C90.56,630,30,569.44,30,495S90.56,360,165,360s135,60.56,135,135S239.44,630,165,630Z" fill="#f5a623"/>
	<path d="M215.91,530.91H114.09a15,15,0,0,0,0,30H215.91a15,15,0,0,0,0-30Z" fill="#f5a623"/><path d="M115.14,477.14A20,20,0,1,0,101,483,20,20,0,0,0,115.14,477.14Z" fill="#f5a623"/>
	<path d="M229,443a20,20,0,1,0,14.14,5.86A20,20,0,0,0,229,443Z" fill="#f5a623"/>
	<path d="M165,660C74,660,0,734,0,825S74,990,165,990s165-74,165-165S256,660,165,660Zm0,300C90.56,960,30,899.44,30,825S90.56,690,165,690s135,60.56,135,135S239.44,960,165,960Z" fill="#d0021b"/>
	<path d="M165,839.82h0a86.44,86.44,0,0,0-61.52,25.48,15,15,0,1,0,21.21,21.22h0a57,57,0,0,1,80.61,0,15,15,0,1,0,21.22-21.22A86.44,86.44,0,0,0,165,839.82Z" fill="#d0021b"/>
	<path d="M115.14,807.14A20,20,0,1,0,101,813,20,20,0,0,0,115.14,807.14Z" fill="#d0021b"/>
	<path d="M229,773a20,20,0,1,0,14.14,5.86A20,20,0,0,0,229,773Z" fill="#d0021b"/>
	<path d="M165,0C74,0,0,74,0,165S74,330,165,330s165-74,165-165S256,0,165,0Zm0,300C90.56,300,30,239.44,30,165S90.56,30,165,30,300,90.56,300,165,239.44,300,165,300Z" fill="#20a94a"/>
	<path d="M205.31,205.3a57.08,57.08,0,0,1-80.62,0,15,15,0,0,0-21.21,21.21,87.11,87.11,0,0,0,123,0,15,15,0,0,0-21.21-21.22Z" fill="#20a94a"/>
	<path d="M115.14,147.14A20,20,0,1,0,101,153,20,20,0,0,0,115.14,147.14Z" fill="#20a94a"/>
	<path d="M229,113a20,20,0,1,0,14.14,5.86A20,20,0,0,0,229,113Z" fill="#20a94a"/>
</svg>