<svg xmlns="http://www.w3.org/2000/svg" viewBox="0 0 50 50" fill="#ddd">
	<path d="M25 50c13.778 0 25-11.222 25-25S38.778 0 25 0 0 11.222 0 25s11.222 25 25 25zm0-46.556c11.889 0 21.556 9.667 21.556 21.556 0 11.889-9.667 21.556-21.556 21.556-11.889 0-21.556-9.667-21.556-21.556C3.444 13.111 13.111 3.444 25 3.444z"/>
	<path fill="#20a94a" d="M20.833 33.722c.334.278.723.39 1.111.39.445 0 .89-.168 1.223-.5l14.61-14.779a1.744 1.744 0 0 0 0-2.444 1.744 1.744 0 0 0-2.444 0l-13.5 13.667-5.777-4.89c-.723-.61-1.834-.5-2.445.223-.611.722-.5 1.833.222 2.444l7 5.89z"/>
</svg>