<svg xmlns="http://www.w3.org/2000/svg" viewBox="0 0 36 36">
	<path d="M35.73,20.13l-6-2.22a1.37,1.37,0,0,1-.77-.83l-1.75-6.15c-.1-.34-.35-.39-.57-.12l-3.95,5a1.37,1.37,0,0,1-1,.47l-1.81-.06a.38.38,0,0,0-.4.57l.23.61a1,1,0,0,0,.86.61l1.9.07a1.44,1.44,0,0,0,1-.47l2.42-3c.22-.27.47-.22.57.12l1,3.62a1.37,1.37,0,0,0,.76.84l3.61,1.37c.33.12.36.38.07.57l-3.13,2.11a1.43,1.43,0,0,0-.56,1l-.18,3.86c0,.35-.25.46-.53.24l-3-2.33a1.41,1.41,0,0,0-1.11-.22l-3.72,1c-.34.09-.52-.1-.4-.43l.34-.93a.56.56,0,0,0-.33-.74l-.07,0-.48-.13A.71.71,0,0,0,18,25L16.5,29c-.12.33.06.52.39.42L23,27.73a1.41,1.41,0,0,1,1.11.21l5,3.95c.27.22.51.1.52-.24l.25-6.4a1.41,1.41,0,0,1,.55-1l5.3-3.57c.29-.18.26-.43-.07-.56ZM19.59,22.3l-2.25-6a1.41,1.41,0,0,1,.12-1.12L21,9.84c.19-.3.06-.52-.29-.51l-6.37.3a1.48,1.48,0,0,1-1-.47l-4-5c-.22-.27-.48-.22-.57.12L7,10.46a1.4,1.4,0,0,1-.76.84l-6,2.27c-.33.13-.36.38-.06.57l5.34,3.52a1.41,1.41,0,0,1,.56,1l.3,6.4c0,.35.25.45.52.24l5-4A1.42,1.42,0,0,1,13,21.05l6.16,1.68C19.53,22.82,19.71,22.63,19.59,22.3Z"/>
</svg>