<svg xmlns="http://www.w3.org/2000/svg" viewBox="0 0 22.53 22.53">
	<path d="M14.68,20.59l0,0L18,17.32l-.13,0H14.79c-.11,0-.12.05-.12.14v3s0,.08,0,.12M4.31,11.26v9.68c0,.16,0,.16.17.16h8.6c.17,0,.18,0,.18-.17V16.05c0-.17,0-.18.17-.18H18c.18,0,.18,0,.18-.19v-14c0-.21,0-.21-.2-.21H4.48c-.17,0-.17,0-.17.17v9.67m-1.41,0V.29c0-.33,0-.29.28-.29H19.43c.2,0,.2,0,.2.21V17.53a.42.42,0,0,1-.13.33l-4.6,4.56a.35.35,0,0,1-.27.11H3.11c-.21,0-.21,0-.21-.21v-11"/>
	<path d="M14.05,11.79l.23,0a.6.6,0,0,0,.49-.32,1.14,1.14,0,0,0,0-.85.58.58,0,0,0-.38-.37,1.13,1.13,0,0,0-.79,0,.48.48,0,0,0-.29.3,1.19,1.19,0,0,0,0,.7.6.6,0,0,0,.47.49l.26,0m2.23-.8a2.34,2.34,0,0,1-2.22,2.22A2.34,2.34,0,0,1,11.87,11,2.35,2.35,0,0,1,14.1,8.76,2.36,2.36,0,0,1,16.27,11M8.6,6.3v0h.16a.63.63,0,0,0,.61-.46,1.27,1.27,0,0,0,0-.67.57.57,0,0,0-.46-.43,1.55,1.55,0,0,0-.48,0,.58.58,0,0,0-.56.45,1.17,1.17,0,0,0,0,.67.58.58,0,0,0,.38.41,2.17,2.17,0,0,0,.35.07m0,1.41a2.35,2.35,0,0,1-2.2-2.22,2.37,2.37,0,0,1,2.2-2.23,2.35,2.35,0,0,1,2.21,2.22A2.33,2.33,0,0,1,8.62,7.71m5.17-2.63a.71.71,0,0,1,.54,1.15,2.83,2.83,0,0,1-.24.25L9.46,11.15a.68.68,0,0,1-.69.23.71.71,0,0,1-.53-.85.94.94,0,0,1,.1-.23,1.71,1.71,0,0,1,.18-.2l4.71-4.76a.73.73,0,0,1,.56-.26"/>
</svg>