<svg xmlns="http://www.w3.org/2000/svg" viewBox="0 0 510 510">
	<path d="M459,0H51A51.15,51.15,0,0,0,0,51V459a51.15,51.15,0,0,0,51,51H459a51.15,51.15,0,0,0,51-51V51A51.15,51.15,0,0,0,459,0ZM400.35,186.15c-2.55,117.3-76.5,198.9-188.7,204-45.9,2.55-79.05-12.75-109.65-30.6,33.15,5.1,76.5-7.65,99.45-28.05C168.3,329,147.9,311.1,137.7,283.05c10.2,2.55,20.4,0,28.05,0-30.6-10.2-51-28.05-53.55-68.85,7.65,5.1,17.85,7.65,28.05,7.65-23-12.75-38.25-61.2-20.4-91.8,33.15,35.7,74,66.3,140.25,71.4-17.85-71.4,79-109.65,117.3-61.2,17.85-2.55,30.6-10.2,43.35-15.3-5.1,17.85-15.3,28.05-28.05,38.25,12.75-2.55,25.5-5.1,35.7-10.2C425.85,165.75,413.1,176,400.35,186.15Z"/>
</svg>