<svg xmlns="http://www.w3.org/2000/svg" viewBox="0 0 51 18">
    <defs>
        <mask id="a" x="0" y="0" width="17.8" height="17.8" maskUnits="userSpaceOnUse">
            <polygon points="0 0 17.8 0 17.8 17.8 0 17.8 0 0" fill="#fff" fill-rule="evenodd"/>
        </mask>
        <mask id="b" x="48.03" y="3.51" width="2.3" height="8.83" maskUnits="userSpaceOnUse">
            <polygon points="48.03 3.51 50.33 3.51 50.33 12.34 48.03 12.34 48.03 3.51" fill="#fff" fill-rule="evenodd"/>
        </mask>
    </defs>
    <g mask="url(#a)">
        <path d="M15.25,12c-.88-2.35-1.2-2.68-3.4-3.42,0-.05,0-.09,0-.13a8.55,8.55,0,0,1,1.24,0c.47.07.55-.17.54-.54a5.19,5.19,0,0,0-4.7-5.19A5.54,5.54,0,0,0,4.43,4.26a5.07,5.07,0,0,0-.67,6.53,5.34,5.34,0,0,0,4.41,2.34c.32,0,.34-.13.3-.37a2.91,2.91,0,0,1,0-1.28c.18,0,.22.15.28.24a5.58,5.58,0,0,0,4.07,2.77,7.49,7.49,0,0,1,4.69,2.68,2.78,2.78,0,0,1,.21.27c.07.09.14.2,0,.3s-.21.05-.3,0l-.15-.13a8.11,8.11,0,0,0-6.73-1.9,11.05,11.05,0,0,1-4.85-.24,8.13,8.13,0,0,1-4.76-4A7,7,0,0,1,.67,4.92,8,8,0,0,1,8.45,0a8.24,8.24,0,0,1,5.87,2.6,7.88,7.88,0,0,1,1.1,9.17,2.35,2.35,0,0,1-.17.24" fill="#fd8d06" fill-rule="evenodd"/>
    </g>
    <path d="M38.1,8.42A33,33,0,0,0,39.74,4c.13-.36.29-.55.68-.48h0c1.22,0,1.22,0,1.61,1.14l1.2,3.57c.3,0,.29-.29.35-.48C44,6.49,44.42,5.23,44.79,4a.51.51,0,0,1,.61-.45c.5,0,1,0,1.51,0s.52.1.38.49c-.58,1.71-1.08,3.45-1.75,5.13-.36.93-.67,1.87-1,2.8a.52.52,0,0,1-.56.41c-1.43,0-1.37,0-1.9-1.32-.41-1-.75-2-1.12-3.08,0-.1,0-.25-.19-.25s-.17.17-.21.28c-.44,1.28-.88,2.56-1.29,3.85a.64.64,0,0,1-.73.52c-1.42,0-1.42,0-1.87-1.35s-.8-2.53-1.28-3.77c-.4-1-.78-2.08-1.13-3.13-.17-.5-.11-.57.41-.57s1,0,1.45,0a.52.52,0,0,1,.62.45c.42,1.4.85,2.81,1.28,4.21l.09.25" fill="#fd8e08" fill-rule="evenodd"/>
    <path d="M26.1,8.76c.24,0,.48,0,.73,0s.3-.1.35-.31a2.58,2.58,0,0,0-1.29-2.83,2.42,2.42,0,0,0-3.05.69,2.69,2.69,0,0,0,0,3.13,2.44,2.44,0,0,0,2.77.87c.29-.1.39-.19.15-.45a8.23,8.23,0,0,1-.59-.71c-.19-.24-.14-.38.18-.4h.78M29,12.33h-.88a.45.45,0,0,1-.46-.2c-.2-.29-.38-.26-.69-.12a4.77,4.77,0,0,1-5.26-.63,4.49,4.49,0,0,1-.46-6.53,4.87,4.87,0,0,1,6.63-.47A4.53,4.53,0,0,1,29,10.13a.39.39,0,0,0,.08.54c.36.39.71.8,1.06,1.2.08.1.18.2.1.35s-.19.11-.3.11H29" fill="#fd8e08" fill-rule="evenodd"/>
    <path d="M31.16,7.89c0-1.26,0-2.52,0-3.78,0-.49.16-.64.62-.6s.88,0,1.31,0,.41.13.41.41v8c0,.29-.13.41-.42.41h-1.4c-.38,0-.51-.14-.51-.51,0-1.31,0-2.62,0-3.93" fill="#fd8e08" fill-rule="evenodd"/>
    <g mask="url(#b)">
        <path d="M48,7.89c0-1.29,0-2.58,0-3.88,0-.38.11-.53.5-.5a8.83,8.83,0,0,0,1.26,0c.41,0,.54.13.54.53,0,1.31,0,2.62,0,3.93s0,2.55,0,3.83c0,.4-.13.56-.54.53s-.87,0-1.31,0-.45-.12-.45-.46c0-1.32,0-2.65,0-4" fill="#fd8e08" fill-rule="evenodd"/>
    </g>
    <path d="M12.82,13.86A.9.9,0,0,1,11.9,13a.48.48,0,0,1,.5-.52,1,1,0,0,1,1,.85c0,.37-.27.48-.54.52" fill="#fd8e08" fill-rule="evenodd"/>
    <path d="M14.75,12.15a.26.26,0,0,1-.27.3c-.28,0-.71-.53-.71-.92,0-.21.07-.35.3-.35s.66.48.68,1" fill="#fd8e08" fill-rule="evenodd"/>
</svg>