<svg xmlns="http://www.w3.org/2000/svg" viewBox="0 0 48 13">
    <defs>
        <mask id="a" x="23.23" y="0" width="11.65" height="13.01" maskUnits="userSpaceOnUse">
            <polygon points="23.23 0 34.88 0 34.88 13.01 23.23 13.01 23.23 0" fill="#fff" fill-rule="evenodd"/>
        </mask>
    </defs>
    <path d="M40.07,8.35h3.2a.11.11,0,0,0,0-.08c-.06-.28-.14-.56-.21-.84l-.15-.61c-.07-.3-.14-.6-.22-.89s-.09-.38-.14-.56-.15-.61-.22-.91l-.18-.76s0,0,0-.05h0l-.24.55c-.06.14-.12.29-.18.42l-.27.63c-.05.13-.11.25-.16.37s-.18.39-.26.59l-.18.41-.27.62c-.06.12-.11.25-.17.37s-.17.4-.26.6a.29.29,0,0,0,0,.13M48,12.79v0H44.53c-.14,0-.14,0-.18-.14s-.07-.33-.12-.5l-.18-.74c0-.13-.07-.27-.1-.4s0-.1-.14-.1H39a.08.08,0,0,0-.09.06l-.06.14-.27.6c-.06.14-.11.28-.17.41s-.18.4-.26.6,0,.08-.12.08h-4a2,2,0,0,1,.14-.29c.08-.18.17-.35.26-.52l.24-.5L35,11l.24-.49c.09-.17.18-.34.26-.51s.17-.33.25-.5.18-.34.26-.52.17-.33.25-.5l.27-.54.17-.34.27-.53.16-.33c.09-.18.18-.35.26-.52l.18-.37.27-.52L38,5c.09-.17.17-.34.26-.52L38.47,4l.27-.53L39,2.93c.09-.17.18-.34.26-.51l.25-.5.33-.66a1.67,1.67,0,0,1,.25-.38,1.72,1.72,0,0,1,.82-.53,3.31,3.31,0,0,1,.94-.11h3s.05,0,.06,0c.06.25.13.5.19.75s.07.31.11.47l.18.71c0,.15.08.29.11.44l.18.69c0,.15.07.31.11.46l.18.71c0,.17.07.33.12.5s.12.48.18.73.07.28.11.42l.18.71c0,.15.07.3.11.44l.18.74c0,.14.07.28.1.42s.13.47.19.71.07.31.11.46l.18.71c0,.15.07.3.11.45s.12.45.17.68.08.31.11.46.13.49.19.73c0,0,0,.08,0,.12" fill="#0056a4" fill-rule="evenodd"/>
    <g mask="url(#a)">
        <path d="M31.62,0c.32,0,.65,0,1,.06s.73.09,1.09.16a11,11,0,0,1,1.13.29c.08,0,.08,0,.06.1s-.07.34-.1.51a1.55,1.55,0,0,1,0,.21c0,.29-.11.57-.16.86s-.1.48-.14.72,0,.23-.07.34a.07.07,0,0,1-.06,0,6.8,6.8,0,0,0-1.76-.5,8.09,8.09,0,0,0-1.84-.09,3.42,3.42,0,0,0-1,.2,1.62,1.62,0,0,0-.59.36.79.79,0,0,0-.24.52.66.66,0,0,0,.17.42,2,2,0,0,0,.58.45,12.2,12.2,0,0,0,1.15.56c.34.15.69.28,1,.44A8.28,8.28,0,0,1,33,6.35a3.62,3.62,0,0,1,.8.81,2.27,2.27,0,0,1,.27.48,3.28,3.28,0,0,1,.18.61,3.19,3.19,0,0,1,0,.69,3.13,3.13,0,0,1-.1.6,2.83,2.83,0,0,1-.24.67,3.38,3.38,0,0,1-.24.41,3.44,3.44,0,0,1-.48.59,5.45,5.45,0,0,1-2,1.22,8.91,8.91,0,0,1-1.69.43,11.39,11.39,0,0,1-1.31.13s0,0-.05,0h-1s0,0-.05,0c-.31,0-.61,0-.91-.06a13.29,13.29,0,0,1-2.59-.48l-.31-.1s-.05,0,0-.08c0-.23.08-.47.13-.7s0-.18.05-.27l.18-.94.12-.6c0-.08,0-.16.05-.25l.28.11a10.88,10.88,0,0,0,1.84.57,7,7,0,0,0,.9.13c.38,0,.75.05,1.13.05a4.29,4.29,0,0,0,1.33-.2,1.78,1.78,0,0,0,.65-.35.89.89,0,0,0,.34-.54.81.81,0,0,0-.19-.68,2.41,2.41,0,0,0-.66-.49,10.58,10.58,0,0,0-1.23-.57,12.61,12.61,0,0,1-1.52-.75,5,5,0,0,1-1-.81,3,3,0,0,1-.56-.81,2.55,2.55,0,0,1-.21-1.25,4.51,4.51,0,0,1,.09-.53,3,3,0,0,1,.26-.67,3.17,3.17,0,0,1,.41-.62,3.72,3.72,0,0,1,.6-.59,6.16,6.16,0,0,1,2-1.06A9.22,9.22,0,0,1,29.7.12c.35,0,.7-.08,1.06-.1,0,0,0,0,.06,0Z" fill="#0056a4" fill-rule="evenodd"/>
    </g>
    <path d="M9.43,7.05c0,.15.06.29.1.44.08.33.16.67.23,1a2.61,2.61,0,0,0,.08.33l.1-.22L10.21,8l.18-.41c.09-.19.18-.39.26-.58l.18-.4c.08-.2.17-.39.26-.58s.1-.24.16-.36L11.53,5c.08-.19.16-.38.25-.56s.17-.39.26-.58.11-.25.16-.37l.27-.61.16-.37c.1-.21.19-.42.28-.62l.17-.38c.08-.2.17-.4.26-.6l.18-.41L13.61.3a.09.09,0,0,1,.11-.07h4s0,.08,0,.11l-.36.74L17,1.88l-.26.54c-.08.17-.17.33-.25.5s-.17.35-.25.53L15.94,4c-.06.13-.11.25-.17.37l-.27.55a3.54,3.54,0,0,0-.16.34l-.27.54c-.05.11-.11.22-.16.34s-.19.38-.28.57-.16.34-.25.51-.17.35-.26.53L14,8.05l-.27.55c-.09.17-.17.34-.25.51l-.26.54c-.06.11-.11.22-.17.34l-.27.57c-.09.17-.17.34-.25.51s-.17.35-.26.53l-.17.34c-.08.18-.17.36-.26.55l-.12.24c0,.06,0,.08-.12.08H7.62c-.09,0-.09,0-.12-.09l-.18-.59L7,11.19l-.21-.67c-.07-.23-.15-.47-.22-.71s-.15-.45-.22-.68-.19-.62-.29-.93-.15-.45-.22-.68l-.29-.93c-.07-.23-.15-.46-.22-.69S5.16,5.29,5.06,5s-.15-.48-.22-.72-.18-.54-.26-.81S4.4,2.89,4.3,2.6,4.19,2.23,4.13,2l0-.16h0c.37.19.74.39,1.09.61A12.6,12.6,0,0,1,6.8,3.63c.26.22.5.45.74.69s.48.51.7.79A10.45,10.45,0,0,1,8.85,6a8.92,8.92,0,0,1,.47.86,1.06,1.06,0,0,0,.11.21" fill="#0056a4" fill-rule="evenodd"/>
    <path d="M16.91,12.81c0-.09,0-.19.05-.28s0-.17.05-.25c0-.29.1-.57.16-.86s.09-.48.14-.72l.15-.8.15-.77.14-.71.15-.78c.05-.24.09-.48.14-.72l.15-.78c0-.23.09-.47.14-.7l.15-.82.15-.75c.05-.25.09-.49.14-.74l.15-.77c0-.3.12-.59.18-.89s.07-.4.11-.6.08-.4.11-.6c0,0,0-.05.06-.05h3.73c.11,0,.11,0,.09.11s-.07.4-.11.6-.1.48-.14.73-.1.52-.16.79l-.15.78c0,.23-.09.47-.13.7s-.1.53-.16.79-.09.47-.13.7-.12.58-.17.87-.08.39-.11.59-.08.37-.11.55a1.77,1.77,0,0,1,0,.2c-.05.29-.11.57-.16.86s-.1.48-.14.72l-.15.77c-.05.24-.09.49-.14.73l-.15.76c-.05.25-.09.49-.14.74s-.07.37-.11.56,0,.06-.06.05H17a.18.18,0,0,1-.1,0" fill="#0056a4" fill-rule="evenodd"/>
    <path d="M9.43,7.05a1.06,1.06,0,0,1-.11-.21A8.92,8.92,0,0,0,8.85,6a10.45,10.45,0,0,0-.61-.87c-.22-.28-.46-.54-.7-.79s-.48-.47-.74-.69A12.6,12.6,0,0,0,5.22,2.5c-.35-.22-.72-.42-1.09-.61h0c-.13-.08-.26-.13-.4-.2A16.07,16.07,0,0,0,1.51.88,14.11,14.11,0,0,0,.09.51C0,.49,0,.49,0,.39S0,.22.2.22H6.25a2.82,2.82,0,0,1,1,.15,1.29,1.29,0,0,1,.68.51,1.15,1.15,0,0,1,.18.39c.08.3.15.59.22.88s.11.52.17.78.1.39.14.58.15.63.22,1L9,5.08,9.17,6l.15.66c0,.14.07.28.11.43" fill="#ffa700" fill-rule="evenodd"/>
</svg>