<?xml version="1.0" encoding="UTF-8"?>
<svg width="138px" height="34px" viewBox="0 0 138 34" version="1.1" xmlns="http://www.w3.org/2000/svg" xmlns:xlink="http://www.w3.org/1999/xlink">
    <!-- Generator: Sketch 52.4 (67378) - http://www.bohemiancoding.com/sketch -->
    <title>Group 6</title>
    <desc>Created with Sketch.</desc>
    <defs>
        <rect id="path-1" x="0" y="0" width="138" height="34" rx="6"></rect>
    </defs>
    <g id="меню-" stroke="none" stroke-width="1" fill="none" fill-rule="evenodd">
        <g id="Artboard-Copy-6" transform="translate(-833.000000, -47.000000)">
            <g id="Group-6" transform="translate(833.000000, 47.000000)">
                <g id="Group-4">
                    <g id="Group-3">
                        <g id="Group-2">
                            <g id="Group-Copy">
                                <g id="Rectangle">
                                    <mask id="mask-2" fill="white">
                                        <use xlink:href="#path-1"></use>
                                    </mask>
                                    <use id="Mask" fill="#D0021B" xlink:href="#path-1"></use>
                                </g>
                            </g>
                        </g>
                    </g>
                </g>
                <path d="M17.487793,20.984375 C16.8614878,20.9547525 16.2954941,20.8436696 15.7897949,20.651123 C15.2840958,20.4585765 14.8535174,20.201499 14.4980469,19.8798828 C14.1425763,19.5582666 13.8685719,19.1805849 13.6760254,18.7468262 C13.4834789,18.3130675 13.387207,17.8422877 13.387207,17.3344727 C13.387207,17.0974923 13.4125974,16.8446465 13.4633789,16.5759277 C13.5141604,16.3072089 13.6009108,16.0395521 13.7236328,15.7729492 C13.8463548,15.5063463 14.0092763,15.2513847 14.2124023,15.0080566 C14.4155284,14.7647286 14.6694321,14.5467946 14.9741211,14.354248 C15.2788101,14.1617015 15.6374491,14.0051276 16.0500488,13.8845215 C16.4626485,13.7639154 16.9418918,13.6951498 17.487793,13.6782227 L17.487793,12.6689453 L19.3540039,12.6689453 L19.3540039,13.6782227 C19.8999051,13.6951498 20.3802063,13.7639154 20.7949219,13.8845215 C21.2096375,14.0051276 21.5682765,14.1617015 21.8708496,14.354248 C22.1734227,14.5467946 22.4262685,14.7647286 22.6293945,15.0080566 C22.8325205,15.2513847 22.9954421,15.5063463 23.1181641,15.7729492 C23.240886,16.0395521 23.3276365,16.3072089 23.378418,16.5759277 C23.4291995,16.8446465 23.4545898,17.0974923 23.4545898,17.3344727 C23.4545898,17.8422877 23.358318,18.3130675 23.1657715,18.7468262 C22.9732249,19.1805849 22.6992205,19.5582666 22.34375,19.8798828 C21.9882795,20.201499 21.5577011,20.4585765 21.052002,20.651123 C20.5463028,20.8436696 19.9803091,20.9547525 19.3540039,20.984375 L19.3540039,22 L17.487793,22 L17.487793,20.984375 Z M17.487793,15.0302734 C17.0434548,15.0429688 16.6763524,15.1212558 16.3864746,15.2651367 C16.0965969,15.4090176 15.8680835,15.5888661 15.7009277,15.8046875 C15.533772,16.0205089 15.4173994,16.2574857 15.3518066,16.515625 C15.2862139,16.7737643 15.2555338,17.0255522 15.2597656,17.2709961 C15.2597656,17.6984071 15.3285312,18.0612778 15.4660645,18.3596191 C15.6035977,18.6579605 15.7792144,18.9012849 15.9929199,19.0895996 C16.2066254,19.2779144 16.4457181,19.4154455 16.7102051,19.5021973 C16.9746921,19.588949 17.2338854,19.6323242 17.487793,19.6323242 L17.487793,15.0302734 Z M19.3540039,19.6196289 C19.6079114,19.6196289 19.8671048,19.5762537 20.1315918,19.489502 C20.3960788,19.4027502 20.6351715,19.265219 20.848877,19.0769043 C21.0625824,18.8885896 21.2381992,18.6442072 21.3757324,18.34375 C21.5132657,18.0432928 21.5820312,17.6793641 21.5820312,17.2519531 C21.5820312,17.010741 21.5492354,16.7621269 21.4836426,16.5061035 C21.4180498,16.2500801 21.3006193,16.0152192 21.1313477,15.8015137 C20.962076,15.5878082 20.7346206,15.4090176 20.4489746,15.2651367 C20.1633286,15.1212558 19.7983421,15.0429688 19.3540039,15.0302734 L19.3540039,19.6196289 Z M24.6479492,15.0810547 L26.3618164,15.0810547 L26.3618164,16.0712891 L26.387207,16.0712891 C26.509929,15.8639313 26.6389967,15.6851407 26.7744141,15.5349121 C26.9098314,15.3846835 27.0600578,15.2609054 27.2250977,15.1635742 C27.3901375,15.066243 27.5731598,14.9943036 27.7741699,14.9477539 C27.97518,14.9012042 28.2026354,14.8779297 28.456543,14.8779297 C28.6681326,14.8779297 28.8860666,14.9033201 29.1103516,14.9541016 C29.3346365,15.0048831 29.5536285,15.0863438 29.767334,15.1984863 C29.9810395,15.3106288 30.1831045,15.4566234 30.3735352,15.6364746 C30.5639658,15.8163258 30.7311191,16.0374336 30.875,16.2998047 C31.0188809,16.5621758 31.1331376,16.8679182 31.2177734,17.217041 C31.3024093,17.5661639 31.3447266,17.9650043 31.3447266,18.4135742 C31.3447266,18.9721708 31.2844244,19.4842099 31.1638184,19.949707 C31.0432123,20.4152042 30.861248,20.8151025 30.6179199,21.1494141 C30.3745919,21.4837256 30.0677916,21.7439769 29.6975098,21.9301758 C29.327228,22.1163746 28.8924179,22.2094727 28.3930664,22.2094727 C28.2195629,22.2094727 28.0439462,22.1925457 27.8662109,22.1586914 C27.6884757,22.1248371 27.5149748,22.0677087 27.3457031,21.9873047 C27.1764314,21.9069006 27.0166837,21.7979336 26.8664551,21.6604004 C26.7162265,21.5228672 26.5839849,21.3504242 26.4697266,21.1430664 L26.4443359,21.1430664 L26.4443359,24.6787109 L24.6479492,24.6787109 L24.6479492,15.0810547 Z M27.9233398,16.4902344 C27.635578,16.4902344 27.3933115,16.5515944 27.1965332,16.6743164 C26.9997549,16.7970384 26.8410651,16.9557282 26.720459,17.1503906 C26.5998529,17.3450531 26.5120445,17.5651029 26.4570312,17.8105469 C26.402018,18.0559908 26.3745117,18.2993152 26.3745117,18.5405273 C26.3745117,18.6717129 26.3819172,18.8145337 26.3967285,18.9689941 C26.4115398,19.1234545 26.440104,19.2800285 26.4824219,19.4387207 C26.5247398,19.5974129 26.5829261,19.7508131 26.6569824,19.8989258 C26.7310388,20.0470385 26.8251947,20.1782221 26.9394531,20.2924805 C27.0537115,20.4067389 27.1912427,20.4987789 27.3520508,20.5686035 C27.5128589,20.6384281 27.7032867,20.6733398 27.9233398,20.6733398 C28.143393,20.6733398 28.3338208,20.6384281 28.4946289,20.5686035 C28.655437,20.4987789 28.7929682,20.4067389 28.9072266,20.2924805 C29.0214849,20.1782221 29.1156409,20.0470385 29.1896973,19.8989258 C29.2637536,19.7508131 29.3219399,19.5974129 29.3642578,19.4387207 C29.4065757,19.2800285 29.4351399,19.1234545 29.4499512,18.9689941 C29.4647624,18.8145337 29.472168,18.6717129 29.472168,18.5405273 C29.472168,18.2993152 29.4446617,18.0559908 29.3896484,17.8105469 C29.3346351,17.5651029 29.2468268,17.3450531 29.1262207,17.1503906 C29.0056146,16.9557282 28.8458669,16.7970384 28.6469727,16.6743164 C28.4480784,16.5515944 28.2068699,16.4902344 27.9233398,16.4902344 Z M32.6396484,15.0810547 L34.4360352,15.0810547 L34.4360352,19.3466797 L34.4614258,19.3466797 L36.9814453,15.0810547 L38.8666992,15.0810547 L38.8666992,22 L37.0766602,22 L37.0766602,17.8295898 L37.0449219,17.8295898 L34.6010742,22 L32.6396484,22 L32.6396484,15.0810547 Z M46.6235352,12.5610352 C46.6277669,12.9165057 46.5664069,13.207437 46.4394531,13.4338379 C46.3124994,13.6602388 46.1442882,13.8422031 45.9348145,13.9797363 C45.7253407,14.1172696 45.4841322,14.2167152 45.2111816,14.2780762 C44.9382311,14.3394372 44.657879,14.3806965 44.3701172,14.4018555 C44.171223,14.4187826 43.9659841,14.4452309 43.7543945,14.4812012 C43.5428049,14.5171714 43.3354502,14.5721839 43.1323242,14.6462402 C42.9291982,14.7202966 42.7366546,14.8176264 42.5546875,14.9382324 C42.3727204,15.0588385 42.2097989,15.2080069 42.065918,15.3857422 C41.922037,15.5634775 41.8035486,15.7750639 41.7104492,16.0205078 C41.6173498,16.2659517 41.5602215,16.5537093 41.5390625,16.8837891 C41.6067712,16.6637359 41.7146802,16.4553232 41.862793,16.2585449 C42.0109057,16.0617666 42.1960438,15.8903816 42.4182129,15.7443848 C42.640382,15.5983879 42.8974595,15.4820154 43.1894531,15.3952637 C43.4814468,15.3085119 43.805174,15.2651367 44.1606445,15.2651367 C44.6346052,15.2651367 45.0620098,15.3444816 45.4428711,15.5031738 C45.8237324,15.661866 46.1474596,15.8850897 46.4140625,16.1728516 C46.6806654,16.4606134 46.8848463,16.8076152 47.0266113,17.2138672 C47.1683764,17.6201192 47.2392578,18.0707983 47.2392578,18.565918 C47.2392578,19.1160509 47.157797,19.6153949 46.994873,20.0639648 C46.8319491,20.5125348 46.599204,20.8965642 46.2966309,21.2160645 C45.9940577,21.5355647 45.6248394,21.7831209 45.1889648,21.9587402 C44.7530903,22.1343596 44.2622098,22.222168 43.7163086,22.222168 C42.9207317,22.222168 42.2626979,22.0592464 41.7421875,21.7333984 C41.2216771,21.4075505 40.8217787,20.8764685 40.5424805,20.1401367 C40.449381,19.890461 40.3774417,19.625978 40.3266602,19.3466797 C40.2758787,19.0673814 40.238851,18.8050142 40.2155762,18.5595703 C40.1923013,18.3141264 40.1785482,18.1004241 40.1743164,17.918457 C40.1700846,17.73649 40.1679687,17.6158857 40.1679687,17.5566406 C40.1679687,16.8964811 40.2441399,16.2924018 40.3964844,15.7443848 C40.5488289,15.1963677 40.7910953,14.7192403 41.123291,14.3129883 C41.4554867,13.9067363 41.8828913,13.5787773 42.4055176,13.3291016 C42.9281439,13.0794258 43.5618452,12.920736 44.3066406,12.8530273 C44.543621,12.8318684 44.7118322,12.7927249 44.8112793,12.7355957 C44.9107264,12.6784665 44.9731444,12.6202802 44.9985352,12.5610352 L46.6235352,12.5610352 Z M42.0532227,18.5405273 C42.0532227,18.8028984 42.0817868,19.0620918 42.138916,19.3181152 C42.1960452,19.5741386 42.2902012,19.802652 42.4213867,20.0036621 C42.5525723,20.2046722 42.7239573,20.3665358 42.9355469,20.4892578 C43.1471365,20.6119798 43.4073878,20.6733398 43.7163086,20.6733398 C44.0421566,20.6733398 44.3119293,20.6130377 44.5256348,20.4924316 C44.7393403,20.3718256 44.9096673,20.2131357 45.0366211,20.0163574 C45.1635749,19.8195791 45.2524412,19.5931816 45.3032227,19.3371582 C45.3540042,19.0811348 45.3793945,18.8155938 45.3793945,18.5405273 C45.3793945,18.2696927 45.3497724,18.0157889 45.2905273,17.7788086 C45.2312823,17.5418282 45.1381842,17.3355315 45.0112305,17.1599121 C44.8842767,16.9842927 44.7192393,16.8467616 44.5161133,16.7473145 C44.3129873,16.6478673 44.067547,16.5981445 43.7797852,16.5981445 C43.4708643,16.5981445 43.2074392,16.6499832 42.989502,16.7536621 C42.7715647,16.857341 42.5927741,16.998046 42.453125,17.1757812 C42.3134759,17.3535165 42.2119144,17.5598133 42.1484375,17.7946777 C42.0849606,18.0295422 42.0532227,18.2781562 42.0532227,18.5405273 Z M49.8100586,19.0991211 C49.8100586,19.162598 49.8164062,19.2472325 49.8291016,19.3530273 C49.8417969,19.4588221 49.8671873,19.5730788 49.9052734,19.6958008 C49.9433596,19.8185227 49.998372,19.9423008 50.0703125,20.0671387 C50.142253,20.1919765 50.2385248,20.3051753 50.3591309,20.4067383 C50.4797369,20.5083013 50.6278474,20.59082 50.8034668,20.6542969 C50.9790862,20.7177738 51.1896147,20.7495117 51.4350586,20.7495117 C51.5620124,20.7495117 51.6879063,20.7315269 51.8127441,20.6955566 C51.937582,20.6595864 52.0528966,20.6066898 52.1586914,20.5368652 C52.2644862,20.4670407 52.3565263,20.3824061 52.4348145,20.282959 C52.5131026,20.1835119 52.569173,20.0703131 52.6030273,19.9433594 L54.4628906,19.9433594 C54.4628906,20.0703131 54.4353844,20.2152498 54.3803711,20.3781738 C54.3253578,20.5410978 54.2417812,20.7061352 54.1296387,20.873291 C54.0174962,21.0404468 53.8767912,21.2044263 53.7075195,21.3652344 C53.5382479,21.5260425 53.3372407,21.6688633 53.1044922,21.7937012 C52.8717436,21.918539 52.6083185,22.0190426 52.314209,22.0952148 C52.0200994,22.1713871 51.6931984,22.2094727 51.3334961,22.2094727 C50.8722308,22.2094727 50.4395365,22.1407071 50.0354004,22.0031738 C49.6312643,21.8656406 49.2779149,21.6477066 48.9753418,21.3493652 C48.6727687,21.0510239 48.4347339,20.6648787 48.2612305,20.190918 C48.087727,19.7169573 48.0009766,19.1414422 48.0009766,18.4643555 C48.0009766,17.9946266 48.0633946,17.5428895 48.1882324,17.1091309 C48.3130703,16.6753722 48.5077298,16.2934587 48.7722168,15.9633789 C49.0367038,15.6332991 49.3752421,15.369874 49.7878418,15.1730957 C50.2004415,14.9763174 50.6966117,14.8779297 51.2763672,14.8779297 C51.889977,14.8779297 52.4062479,14.9784332 52.8251953,15.1794434 C53.2441427,15.3804535 53.5816231,15.6650372 53.8376465,16.0332031 C54.0936699,16.401369 54.2766922,16.8457005 54.3867187,17.3662109 C54.4967453,17.8867214 54.5517578,18.4643523 54.5517578,19.0991211 L49.8100586,19.0991211 Z M52.6855469,17.9057617 C52.6855469,17.6010727 52.6400558,17.347169 52.5490723,17.144043 C52.4580887,16.940917 52.3438321,16.7790533 52.2062988,16.6584473 C52.0687656,16.5378412 51.9174813,16.4532066 51.7524414,16.404541 C51.5874015,16.3558754 51.4287117,16.331543 51.2763672,16.331543 C51.1282545,16.331543 50.9716805,16.3558754 50.8066406,16.404541 C50.6416007,16.4532066 50.4903164,16.5378412 50.3527832,16.6584473 C50.21525,16.7790533 50.1009933,16.940917 50.0100098,17.144043 C49.9190262,17.347169 49.8735352,17.6010727 49.8735352,17.9057617 L52.6855469,17.9057617 Z M57.2495117,16.5410156 L55.1547852,16.5410156 L55.1547852,15.0810547 L61.1342773,15.0810547 L61.1342773,16.5410156 L59.0395508,16.5410156 L59.0395508,22 L57.2495117,22 L57.2495117,16.5410156 Z M69.6582031,14.6757812 L69.6582031,13.2548828 C70.3173861,13.2255858 70.7788073,13.1816409 71.0424805,13.1230469 C71.4624044,13.030273 71.8041979,12.844728 72.0678711,12.5664062 C72.2485361,12.3759756 72.3852534,12.1220719 72.4780273,11.8046875 C72.5317385,11.6142569 72.5585937,11.4726567 72.5585937,11.3798828 L74.2944336,11.3798828 L74.2944336,22 L72.1557617,22 L72.1557617,14.6757812 L69.6582031,14.6757812 Z M79.5605469,16.7924805 C79.5605469,18.0131897 79.6606435,18.9470182 79.8608398,19.5939941 C80.0610362,20.24097 80.4711883,20.5644531 81.0913086,20.5644531 C81.7114289,20.5644531 82.117919,20.24097 82.310791,19.5939941 C82.5036631,18.9470182 82.6000977,18.0131897 82.6000977,16.7924805 C82.6000977,15.5131772 82.5036631,14.565921 82.310791,13.9506836 C82.117919,13.3354461 81.7114289,13.027832 81.0913086,13.027832 C80.4711883,13.027832 80.0610362,13.3354461 79.8608398,13.9506836 C79.6606435,14.565921 79.5605469,15.5131772 79.5605469,16.7924805 Z M81.0913086,11.3066406 C82.4438544,11.3066406 83.3923313,11.7827101 83.9367676,12.7348633 C84.4812039,13.6870165 84.753418,15.039542 84.753418,16.7924805 C84.753418,18.5454189 84.4812039,19.8955031 83.9367676,20.8427734 C83.3923313,21.7900438 82.4438544,22.2636719 81.0913086,22.2636719 C79.7387628,22.2636719 78.7902859,21.7900438 78.2458496,20.8427734 C77.7014133,19.8955031 77.4291992,18.5454189 77.4291992,16.7924805 C77.4291992,15.039542 77.7014133,13.6870165 78.2458496,12.7348633 C78.7902859,11.7827101 79.7387628,11.3066406 81.0913086,11.3066406 Z M92.0703125,16.7924805 C92.0703125,18.0131897 92.1704092,18.9470182 92.3706055,19.5939941 C92.5708018,20.24097 92.9809539,20.5644531 93.6010742,20.5644531 C94.2211945,20.5644531 94.6276846,20.24097 94.8205566,19.5939941 C95.0134287,18.9470182 95.1098633,18.0131897 95.1098633,16.7924805 C95.1098633,15.5131772 95.0134287,14.565921 94.8205566,13.9506836 C94.6276846,13.3354461 94.2211945,13.027832 93.6010742,13.027832 C92.9809539,13.027832 92.5708018,13.3354461 92.3706055,13.9506836 C92.1704092,14.565921 92.0703125,15.5131772 92.0703125,16.7924805 Z M93.6010742,11.3066406 C94.95362,11.3066406 95.9020969,11.7827101 96.4465332,12.7348633 C96.9909695,13.6870165 97.2631836,15.039542 97.2631836,16.7924805 C97.2631836,18.5454189 96.9909695,19.8955031 96.4465332,20.8427734 C95.9020969,21.7900438 94.95362,22.2636719 93.6010742,22.2636719 C92.2485284,22.2636719 91.3000516,21.7900438 90.7556152,20.8427734 C90.2111789,19.8955031 89.9389648,18.5454189 89.9389648,16.7924805 C89.9389648,15.039542 90.2111789,13.6870165 90.7556152,12.7348633 C91.3000516,11.7827101 92.2485284,11.3066406 93.6010742,11.3066406 Z M100.412598,16.7924805 C100.412598,18.0131897 100.512694,18.9470182 100.712891,19.5939941 C100.913087,20.24097 101.323239,20.5644531 101.943359,20.5644531 C102.56348,20.5644531 102.96997,20.24097 103.162842,19.5939941 C103.355714,18.9470182 103.452148,18.0131897 103.452148,16.7924805 C103.452148,15.5131772 103.355714,14.565921 103.162842,13.9506836 C102.96997,13.3354461 102.56348,13.027832 101.943359,13.027832 C101.323239,13.027832 100.913087,13.3354461 100.712891,13.9506836 C100.512694,14.565921 100.412598,15.5131772 100.412598,16.7924805 Z M101.943359,11.3066406 C103.295905,11.3066406 104.244382,11.7827101 104.788818,12.7348633 C105.333255,13.6870165 105.605469,15.039542 105.605469,16.7924805 C105.605469,18.5454189 105.333255,19.8955031 104.788818,20.8427734 C104.244382,21.7900438 103.295905,22.2636719 101.943359,22.2636719 C100.590814,22.2636719 99.6423367,21.7900438 99.0979004,20.8427734 C98.5534641,19.8955031 98.28125,18.5454189 98.28125,16.7924805 C98.28125,15.039542 98.5534641,13.6870165 99.0979004,12.7348633 C99.6423367,11.7827101 100.590814,11.3066406 101.943359,11.3066406 Z M108.754883,16.7924805 C108.754883,18.0131897 108.854979,18.9470182 109.055176,19.5939941 C109.255372,20.24097 109.665524,20.5644531 110.285645,20.5644531 C110.905765,20.5644531 111.312255,20.24097 111.505127,19.5939941 C111.697999,18.9470182 111.794434,18.0131897 111.794434,16.7924805 C111.794434,15.5131772 111.697999,14.565921 111.505127,13.9506836 C111.312255,13.3354461 110.905765,13.027832 110.285645,13.027832 C109.665524,13.027832 109.255372,13.3354461 109.055176,13.9506836 C108.854979,14.565921 108.754883,15.5131772 108.754883,16.7924805 Z M110.285645,11.3066406 C111.63819,11.3066406 112.586667,11.7827101 113.131104,12.7348633 C113.67554,13.6870165 113.947754,15.039542 113.947754,16.7924805 C113.947754,18.5454189 113.67554,19.8955031 113.131104,20.8427734 C112.586667,21.7900438 111.63819,22.2636719 110.285645,22.2636719 C108.933099,22.2636719 107.984622,21.7900438 107.440186,20.8427734 C106.895749,19.8955031 106.623535,18.5454189 106.623535,16.7924805 C106.623535,15.039542 106.895749,13.6870165 107.440186,12.7348633 C107.984622,11.7827101 108.933099,11.3066406 110.285645,11.3066406 Z M118.412749,17.1382114 L119.509293,17.1382114 L119.509293,12.7520325 L121.96661,12.7520325 C122.556722,12.7520325 123.058749,12.8335019 123.472708,12.9964431 C123.886667,13.1593843 124.223553,13.375168 124.483379,13.6438008 C124.743204,13.9124336 124.932565,14.2250998 125.051468,14.5818089 C125.170371,14.938518 125.229822,15.3062312 125.229822,15.6849593 C125.229822,16.0724952 125.170371,16.4380064 125.051468,16.7815041 C124.932565,17.1250017 124.743204,17.4288605 124.483379,17.6930894 C124.223553,17.9573184 123.886667,18.1664965 123.472708,18.3206301 C123.058749,18.4747636 122.556722,18.5518293 121.96661,18.5518293 L121.226773,18.5518293 L121.226773,19.5558943 L123.551976,19.5558943 L123.551976,20.9166667 L121.226773,20.9166667 L121.226773,22 L119.509293,22 L119.509293,20.9166667 L118.412749,20.9166667 L118.412749,19.5558943 L119.509293,19.5558943 L119.509293,18.5518293 L118.412749,18.5518293 L118.412749,17.1382114 Z M121.794862,17.1382114 C122.032668,17.1382114 122.255058,17.1183945 122.462037,17.0787602 C122.669016,17.0391258 122.851772,16.9664639 123.010309,16.8607724 C123.168847,16.7550808 123.292152,16.6075551 123.380228,16.4181911 C123.468305,16.228827 123.512342,15.9844188 123.512342,15.6849593 C123.512342,15.3854999 123.468305,15.1344861 123.380228,14.9319106 C123.292152,14.729335 123.168847,14.5685982 123.010309,14.4496951 C122.851772,14.3307921 122.669016,14.2471208 122.462037,14.1986789 C122.255058,14.1502369 122.032668,14.1260163 121.794862,14.1260163 L121.226773,14.1260163 L121.226773,17.1382114 L121.794862,17.1382114 Z" id="Фрибет-10-000-₽" fill="#FFFFFF"></path>
            </g>
        </g>
    </g>
</svg>