<svg xmlns="http://www.w3.org/2000/svg" viewBox="0 0 71.95 18.9"><title>Монтажная область 1</title><path d="M2.41,2.78v7H0V.12H3.73L5.27,6,6.69.12h3.62V9.86H7.9V2.67L6.25,9.86H4.17ZM17.77,8.12H14.48L14,9.86h-3L14.7.12h3l3.51,9.74h-3l-.44-1.74ZM16.12,2.67,14.91,6.26h2.42L16.12,2.67ZM36.08,8H32.79l-.44,1.74h-3L33,0h3l3.51,9.74h-3L36.08,8ZM34.44,2.67,33.23,6.26h2.41ZM22.05,0H27.2a2.38,2.38,0,0,1,2.3,2.44V3.59A2.39,2.39,0,0,1,27.2,6H24.79V9.74H22.05V0Zm2.63,1.86V4.18H26.1c.33,0,.66-.47.66-.93V2.9c0-.58-.33-.93-.66-.93Zm18.86-1H44V.12H46.5V.81h.44a3.81,3.81,0,0,1,3.73,3.94A3.81,3.81,0,0,1,46.94,8.7H46.5v1H44v-1h-.44a3.81,3.81,0,0,1-3.73-3.95A3.74,3.74,0,0,1,43.35.82Zm3,1.86V7a2.09,2.09,0,0,0,1.65-2.09A2.13,2.13,0,0,0,46.5,2.67ZM44,6.84V2.55a2.09,2.09,0,0,0-1.75,2.09A2.11,2.11,0,0,0,44,6.84Zm12.18-7h1.2a4.24,4.24,0,0,1,4.06,4.29V5.68A4.24,4.24,0,0,1,57.36,10h-1.2A4.24,4.24,0,0,1,52.1,5.68V4.17A4.17,4.17,0,0,1,56.16-.12Zm.32,2.32a1.78,1.78,0,0,0-1.75,1.86V5.68a1.79,1.79,0,0,0,1.75,1.86H57a1.79,1.79,0,0,0,1.76-1.86V4.06A1.79,1.79,0,0,0,57,2.2Zm9.55,1h3V.12h3V9.86H69V5.68H66V9.86h-3V.12h3V3.25Z" fill="#ca2026"/><path d="M28.63,14.73h1.53a1.62,1.62,0,0,1,0,3.24H27.09V12.64h4.28v.93H28.63Zm-.11,2v.11h1.09a.58.58,0,0,0,0-1.16H28.52v1Zm5.7,1h4v-.93H35.43V15.65H38v-.92H35.43V13.68h2.63V12.52H34.22v5.22Zm6.14-5.1H45V13.8H43.32v3.94H41.9V13.8H40.36V12.64Z" fill="#081528"/><path d="M51.11,14.73a4.92,4.92,0,0,0,2.08.69,24.77,24.77,0,0,0,7.13-.35,22.79,22.79,0,0,0,3-.92c-2.08,1.62-9.76,2.66-12.5,1A1.52,1.52,0,0,1,51.11,14.73ZM21,14.73a4.91,4.91,0,0,1-2.09.69,24.8,24.8,0,0,1-7.13-.35,23.79,23.79,0,0,1-3-.92c2.09,1.62,9.76,2.66,12.51,1Zm35.86-1.86c-.33,1.28-1.42,2-3.07,2.32L53.52,15l1.76-1.16-1.87,1-.22-.35A4.06,4.06,0,0,1,56.81,12.87ZM15.25,13c.33,1.27,1.42,2,3.07,2.32l.22-.24-1.76-1.16L18.65,15l.22-.35C17.88,13.45,16.78,12.64,15.25,13Zm45-.81a3.9,3.9,0,0,1-2.52,2.66l-.22-.11,1.43-1.4-1.54,1.28-.22-.23A4.75,4.75,0,0,1,60.21,12.18Zm-48.36,0a3.9,3.9,0,0,0,2.52,2.66l.22-.11-1.43-1.4,1.54,1.28.22-.23A4.75,4.75,0,0,0,11.85,12.18Zm51.54-.82a3.68,3.68,0,0,1-2.19,2.9L61,14.15l1.21-1.51-1.32,1.51-.22-.24a5.1,5.1,0,0,1,2.74-2.55Zm-54.72.12a3.68,3.68,0,0,0,2.19,2.9l.22-.12-1.21-1.5,1.32,1.5.22-.23a4.41,4.41,0,0,0-2.74-2.55ZM56.05,18.9c-1.1-.12-2-.81-2.86-2.32l.11-.23,1.54,1.27-1.43-1.39.22-.23a4.8,4.8,0,0,1,2.42,2.9Zm-40,0c1.1-.12,2-.81,2.86-2.32l-.11-.23-1.43,1.39,1.43-1.39-.22-.23A4.16,4.16,0,0,0,16,18.9Zm44.86-.7c-1,.24-2.08-.23-3.29-1.39v-.23l1.76.81-1.76-.92.11-.24A3.77,3.77,0,0,1,60.87,18.2Zm-49.68,0c1,.24,2.08-.23,3.29-1.39v-.23l-1.76.81,1.76-.92-.11-.24a3.77,3.77,0,0,0-3.18,2Zm53.41-2c-.88.58-2,.47-3.29-.23l-.11-.23L63,16l-1.87-.35v-.23A3.89,3.89,0,0,1,64.6,16.23Zm-57.14,0c.88.58,2,.47,3.29-.23l.11-.23L9.1,16,11,15.65v-.23A3.89,3.89,0,0,0,7.46,16.23Zm59.77-4.29a3.82,3.82,0,0,1-3,2.09l-.11-.12,1.65-1-1.76,1-.11-.23a3.5,3.5,0,0,1,3.29-1.74Zm-62.4,0a3.82,3.82,0,0,0,3,2.09l.11-.12-1.54-1,1.76,1,.11-.23a4.37,4.37,0,0,0-3.4-1.74Z" fill="#231f20"/></svg>