<svg xmlns="http://www.w3.org/2000/svg" viewBox="0 0 81.86 23.02">
	<path d="M8,22.54a2,2,0,0,0,2.31,0c1.54-1.28.77-6.24,1-8.51h.77l.64.15v8.64h2.19V12.05H9.12c-.12,1.56,0,3.54,0,5.1,0,3.26.26,3.83-1.15,3.69ZM24.8,16.45h2.32V14.6H22.75v8.08h1.92Zm19.66,0h1.29v6.23h1.93V16.45H49V14.6H44.34Zm24.16,6.37h1.93v-3l1.54,3H74l-1.8-5,1.67-3.26h-2l-1.16,2.27V14.6H68.75l-.12,8.22Zm-3.85-6.66a.63.63,0,0,1,.64.71v3.54a.64.64,0,1,1-1.28,0V16.87a.74.74,0,0,1,.64-.71ZM62.33,20.7c.38,2.69,2.83,2.55,4,2,1.42-.85,1.29-4.39,1-5.95a2.54,2.54,0,0,0-4-2,2.78,2.78,0,0,0-1,2.41A16.19,16.19,0,0,0,62.33,20.7Zm-6,2.12c1.67.15,4,.43,4.62-1.13A4,4,0,0,0,61,19.56a1.89,1.89,0,0,0-1-1l.39-.42a2.33,2.33,0,0,0,.26-2.84c-.77-1-2.7-.85-4.37-.71Zm2.31-6.66a.87.87,0,0,1,.77.85v.14a.87.87,0,0,1-.77.85h-.38V16.16Zm.13,3.26a.93.93,0,0,1,.9,1v.15a.93.93,0,0,1-.9,1h-.39v-2h.39v-.14Zm-6.55,1.7c-.9-.85.12-2,.9-2.41a3.2,3.2,0,0,1-.39,2.41C52.43,21.26,52.3,21.41,52.18,21.12Zm-.39-3.83a1.62,1.62,0,0,1,.26-1.13c.64-.42,1.15.28.9.85-1,1.42-3.09,1.14-3.22,3.55,0,1,.13,2.12,1.16,2.26,1.29.29,1.41-.28,2.18-1l.13.85H55l-.13-4.11c0-1.13.26-2.69-.64-3.54s-4.62-1.42-4.5,2.26ZM30.71,21.12a.54.54,0,0,1-.64,0c-.77-1,.13-2,1-2.27C31.1,19.7,31.23,20.7,30.71,21.12ZM28,17.29h1.8c0-.7,0-.85.39-1.27.39-.14,1.93.57-.26,1.84-.9.57-1.67.85-1.93,1.84-.9,2.7,1.55,4.54,3.09,2.27l.13.43a.54.54,0,0,0,.13.42h1.8c0-1.27-.13-2.69-.13-4.11,0-1.13.25-2.69-.52-3.54C31.48,14,27.89,13.89,28,17.29Zm-9.89,5.53,1.67-4.67v4.67h1.8V14.74H19.66c-.38,1-1.28,4.26-1.67,5l.13-5h-1.8v8.08Zm23.39-4.39c0,.71.13,2.13-.52,2.41-1,.57-1.15-.85-1.15-1.56v-3c0-.85-.26-2,.38-2.69,1.29-.14,1.16.57,1.16,1.7a5.71,5.71,0,0,0,2.18,0c.13-2.84-1.41-4.25-4-3.69s-2.18,3.69-2.18,6-.26,5.1,2.7,5.24,4-1.41,3.59-4.39Z"/>
	<path d="M78.39,22.82h3.34L81.86,0H0L0,22.82H3.34V4H78.52Z" fill="#006040"/>
</svg>