<svg xmlns="http://www.w3.org/2000/svg" viewBox="0 0 60.76 10.26" fill="#d0021b">
	<path d="M6.58,7.09l.91-4.2C9.48,3.07,8.76,6.61,6.58,7.09ZM52.24,2.53h2.48l-.36,1.8c-.12.66-.31,1.2-.43,1.8L53.15,10h2.66l1.81-7.56h2.6L60.76.13h-8ZM42.88,8.17c0,1.26.85,1.86,2.06,1.86h4.83l.48-2.34h-4c-.72,0-.24-1.5-.18-1.56.12-.3.06-.18.49-.24h3.56l.48-2.16H46.63A3,3,0,0,1,46.81,3c.12-.3.24-.3.48-.48h3.44a.81.81,0,0,0,.61-.18A11.07,11.07,0,0,0,51.82.07H47.11A3.25,3.25,0,0,0,44,3c-.24,1.32-1.09,4.26-1.09,5.16ZM22.65,10H25l1-4h3.08l-.84,3.66c-.06.6.66.36,2.47.36h.18l2.3-10H30.5l-.91,3.66h-3L27.3.07H25.25c-.37,0-.55.06-.61.24L22.35,9.79c0,.18.12.24.3.24Zm-5.8-2.34c-.84,0-1.39-.12-1.39-1.38a6.32,6.32,0,0,1,.61-2.52c.48-1,1.69-2,2.53-1C19.63,3.85,18.3,7.69,16.85,7.69ZM12.5,6.55c0,1.56.06,3,2.12,3.54A5.64,5.64,0,0,0,20,8.65c1.51-1.5,3.51-7.2-.06-8.4A5.46,5.46,0,0,0,14.13,2,7.8,7.8,0,0,0,13,4,7.89,7.89,0,0,0,12.5,6.55ZM37.39,7.69H36l.42-1.86h1.69C39.32,5.83,38.9,7.69,37.39,7.69Zm-4.47,1.8c0,.42.06.6.6.6,1.75,0,4.35.18,5.68-.36,3-1.2,3.86-6.12.12-6.12H37l.18-1.08h4.71L42.28.19c0-.06-.06-.06-.18-.06H35.57c-.48,0-.6.3-.72.72L32.92,9.49ZM3.75,7.21c-.67-.36-1-.48-1-1.44A3,3,0,0,1,4.77,3l-1,4.26ZM5.32.73C3.08.73,0,3,0,5.89,0,7,0,7.75,1,8.47a4.16,4.16,0,0,0,2.29.78l-.12.66c0,.24.48.12,2.66.12L6,9.37A7.21,7.21,0,0,0,9.72,7.75C11.11,6.43,12,4,11.11,2.41a2.53,2.53,0,0,0-.72-.84A4.47,4.47,0,0,0,8.09.73V.07H5.44L5.32.73Z"/>
</svg>