<svg xmlns="http://www.w3.org/2000/svg" viewBox="0 0 80.42 16.32">
	<path d="M0,14.82,3.57.2H8.24L5.13,11.76h8l-.72,3.06Zm13.8,0L17.7.41H29.62l-1.88,3H21.13l-.52,2.72H26.9L26.19,9H19.77l-.45,2.72h8l-.65,3.12ZM47.7.34,46.14,6.46a10,10,0,0,1-2.07,8.16h4.47l1.75-7.68,4.34,7.82h3.5L61.63.2H57.55l-1.94,8L51.39.34Zm18.73,0h12.7a1.31,1.31,0,0,1,1.23,1.77L78.42,10a2.38,2.38,0,0,1-2.14,1.76H63.58A1.31,1.31,0,0,1,62.34,10l2-7.89A2.36,2.36,0,0,1,66.43.34Z" fill="#000001"/>
	<path d="M31.05,13.8a8.38,8.38,0,0,1-2.21-5.71l.07-1.29,2.78,3.06Zm9.2,1.64a7.16,7.16,0,0,1-3.57.88,6.86,6.86,0,0,1-3.37-.82l3.37-1.9Zm4.14-8.3a4.35,4.35,0,0,1,.07,1,8.62,8.62,0,0,1-2.14,5.65l-.58-3.88ZM37.91.07a7.75,7.75,0,0,1,5.58,4.15l-3.44-.34L37.92.07ZM29.75,4.28A7.88,7.88,0,0,1,35.84,0L33.57,3.94l-3.82.34Zm3.5,4.83,1-4h4.47l1.42,4.15-3.5,2.65L33.25,9.11Z" fill="#dd0a19"/>
	<path d="M67.53,3.6h1.75a2.14,2.14,0,0,1,1.55.48,1.31,1.31,0,0,1,.33,1,1.7,1.7,0,0,1-1.36,1.7l.71,1.63H69.08L68.5,6.94h-.58l-.39,1.42h-1.3ZM69,5.92c.59,0,1-.28,1-.68,0-.14-.07-.21-.13-.34a1.2,1.2,0,0,0-.59-.14H68.5l-.32,1.16Zm2.53,1a3.28,3.28,0,0,1,.13-.75l.65-2.45h1.3l-.65,2.52a1,1,0,0,0-.07.47.65.65,0,0,0,.72.68.77.77,0,0,0,.64-.27,1.8,1.8,0,0,0,.39-.81L75.3,3.6h1.3l-.71,2.86a3.75,3.75,0,0,1-.71,1.43,2.26,2.26,0,0,1-1.69.61C72.13,8.5,71.48,7.89,71.48,6.87Z" fill="#fff"/>
</svg>