<svg xmlns="http://www.w3.org/2000/svg" xmlns:xlink="http://www.w3.org/1999/xlink" viewBox="0 0 110 20"><defs><mask id="a" x="103.68" y="6.39" width="6.23" height="7.95" maskUnits="userSpaceOnUse"><polygon points="103.68 6.39 109.9 6.39 109.9 14.34 103.68 14.34 103.68 6.39" fill="#fff" fill-rule="evenodd"/></mask></defs><title>Монтажная область 1</title><path d="M18.8,10c-.08-1.85.11-3.7-.14-5.54a3.51,3.51,0,0,0-2.42-3,6.17,6.17,0,0,0-2.13-.3q-4.15,0-8.32,0a10,10,0,0,0-1.43.13A3.54,3.54,0,0,0,1.23,4.47C1,7.24,1.16,10,1.1,12.79a16,16,0,0,0,.13,2.77,3.51,3.51,0,0,0,2.39,3,7.19,7.19,0,0,0,2.52.32h7.59a13.8,13.8,0,0,0,1.82-.13,3.64,3.64,0,0,0,3.11-3.16c.24-1.85.06-3.7.14-5.55M9.93,20c-1.61,0-3.22,0-4.82,0a5,5,0,0,1-3.66-1.47A4.87,4.87,0,0,1,0,15C0,11.68,0,8.34,0,5A4.78,4.78,0,0,1,4.89.11C8.26,0,11.65,0,15,.1a4.71,4.71,0,0,1,4.58,3.46,6.19,6.19,0,0,1,.26,1.81c0,3.09,0,6.19,0,9.28a5.39,5.39,0,0,1-1.07,3.43,5,5,0,0,1-4,1.86c-1.63,0-3.25,0-4.88,0" fill-rule="evenodd"/><path d="M60.34,10.18a2.06,2.06,0,0,0-2-2.24,2.08,2.08,0,0,0-2.09,2.24,2.06,2.06,0,1,0,4.11,0m-.07,2.67a3.37,3.37,0,0,1-5.8-2.08A4.32,4.32,0,0,1,55,8a3.34,3.34,0,0,1,5-.76c.08.07.14.18.27.16.24-.92.24-.92,1.21-.92.8,0,.8,0,.8.83,0,2,0,4,0,5.94a3.59,3.59,0,0,1-3.83,3.93,5.73,5.73,0,0,1-3.13-.76c-.33-.19-.4-.39-.18-.7a.85.85,0,0,0,.13-.25c.2-.51.44-.72,1-.33a3.14,3.14,0,0,0,1.86.44c1.62,0,2.43-1,2.16-2.71" fill-rule="evenodd"/><path d="M39.48,12.69a2.18,2.18,0,0,0,2.18-2.36,2.19,2.19,0,1,0-4.38,0,2.17,2.17,0,0,0,2.2,2.33m-2.2.43c0,1.24,0,2.31,0,3.38,0,.49-.13.64-.63.63-1.29,0-1.29,0-1.29-1.29,0-2.89,0-5.77,0-8.66,0-.55.13-.81.71-.72a1.21,1.21,0,0,0,.38,0c.56-.06.95,0,.84.74,0,.26.09.37.32.15a3.29,3.29,0,0,1,4.09-.48,3.68,3.68,0,0,1,1.88,3.69,3.59,3.59,0,0,1-4.35,3.73,3.71,3.71,0,0,1-1.95-1.17" fill-rule="evenodd"/><path d="M49.36,8a2.14,2.14,0,0,0-2.15,2.37,2.13,2.13,0,0,0,2.22,2.29,2.16,2.16,0,0,0,2.13-2.34A2.15,2.15,0,0,0,49.36,8m-2.11,5.26a13.33,13.33,0,0,0,0,1.79c0,.22,0,.44,0,.67,0,1.41,0,1.4-1.41,1.38-.43,0-.52-.19-.52-.57,0-1.41,0-2.82,0-4.22,0-1.76,0-3.52,0-5.27,0-.45.12-.65.59-.61a4.44,4.44,0,0,1,1.16,0c.41.15,0,.68.29,1a1.77,1.77,0,0,0,.17-.12,3.25,3.25,0,0,1,3.62-.75,3.38,3.38,0,0,1,2.3,2.82,4.91,4.91,0,0,1-.25,2.78,3.52,3.52,0,0,1-5.63,1.17.25.25,0,0,0-.27-.12" fill-rule="evenodd"/><path d="M29.33,12.89c.17,0,.36,0,.54-.05a1.6,1.6,0,0,0,1.44-1.51c0-.28-.08-.46-.41-.45-.66,0-1.33,0-2,0s-1,.37-1,.87a1,1,0,0,0,.93,1.06C29,12.87,29.15,12.87,29.33,12.89Zm3.86-1.49c0,.81,0,1.63,0,2.44,0,.34-.1.47-.44.45a7.37,7.37,0,0,0-.94,0c-.3,0-.51,0-.5-.4s-.19-.31-.42-.15a3.44,3.44,0,0,1-3,.5A2.32,2.32,0,0,1,26.1,11.7a2.25,2.25,0,0,1,2.2-2c.81-.08,1.62-.05,2.44-.07.53,0,.65-.18.48-.69a1.22,1.22,0,0,0-1-.86,3.54,3.54,0,0,0-2.47.38c-.4.21-.6.17-.8-.25-.4-.85-.43-.84.42-1.22a5.66,5.66,0,0,1,3.94-.36A2.45,2.45,0,0,1,33.17,9c0,.41,0,.81,0,1.22V11.4Z" fill-rule="evenodd"/><path d="M99.06,9.78h1.61c.33,0,.47-.1.39-.46a1.9,1.9,0,0,0-2-1.42,2,2,0,0,0-1.94,1.53c-.05.3.1.35.34.35h1.6m.91,1.28H97.75c-.61,0-.68.15-.37.69a2.37,2.37,0,0,0,3,.84l.3-.14c.82-.44.81-.44,1.44.25.2.22.22.35,0,.58a4.7,4.7,0,0,1-5,.6,3.93,3.93,0,0,1-1.88-4.21,3.52,3.52,0,0,1,2.52-3,3.91,3.91,0,0,1,4,.69,4.28,4.28,0,0,1,1.12,3.37c0,.35-.26.35-.51.35H100" fill-rule="evenodd"/><path d="M80.69,10.39a2.18,2.18,0,1,0,4.35,0,2.18,2.18,0,1,0-4.35,0m2.08-3.95a4,4,0,0,1,3.79,5.78c-.68,1.53-2.32,2.3-4.33,2.09a3.73,3.73,0,0,1-3.38-3,4,4,0,0,1,1.59-4.25,3.87,3.87,0,0,1,2.33-.65" fill-rule="evenodd"/><path d="M73.75,12.74a2.18,2.18,0,0,0,2.17-2.37,2.2,2.2,0,1,0-4.39.06,2.17,2.17,0,0,0,2.22,2.31m-.54-6.31c2.07,0,3.37.53,4.12,1.94a4.1,4.1,0,0,1-.15,4.28A3.61,3.61,0,0,1,75,14.19,4.14,4.14,0,0,1,69.91,12c-1-2.65.52-5.59,3.3-5.54" fill-rule="evenodd"/><g mask="url(#a)"><path d="M107,6.39a5.58,5.58,0,0,1,2.3.57c.33.16.46.36.24.69l-.08.15c-.36.74-.36.74-1.14.44a3.76,3.76,0,0,0-1.72-.34c-.38,0-.76.14-.83.59s.26.62.59.75c.71.27,1.45.47,2.13.78a2.1,2.1,0,0,1,1,3.13,2.42,2.42,0,0,1-1.63,1.07,5.19,5.19,0,0,1-3.93-.67c-.31-.19-.41-.4-.2-.72a1.35,1.35,0,0,0,.17-.34c.16-.48.37-.51.8-.23a3.77,3.77,0,0,0,2.32.6c.43,0,.84-.16.91-.65s-.27-.65-.63-.79c-.59-.21-1.19-.4-1.78-.63A2.07,2.07,0,0,1,104,8.44a2.32,2.32,0,0,1,2.1-2c.31,0,.62,0,.93-.08" fill-rule="evenodd"/></g><path d="M91.16,12.11a4.78,4.78,0,0,0,.56-1.41c.44-1.26.85-2.52,1.26-3.79a.55.55,0,0,1,.64-.45,5.75,5.75,0,0,0,.83,0c.5,0,.58.14.4.58-.66,1.7-1.3,3.42-1.95,5.12-.21.56-.44,1.1-.63,1.66a.58.58,0,0,1-.63.47c-1.51,0-1.51,0-2-1.4Q88.5,10,87.38,7.15c-.25-.64-.23-.69.46-.68,1.59,0,1.16-.26,1.7,1.21s.95,2.76,1.43,4.14c0,.09,0,.22.19.29" fill-rule="evenodd"/><path d="M66.49,7.69a3.08,3.08,0,0,1,1.92-1.23c.42-.08.67,0,.62.51A4,4,0,0,1,69,8.07c-.14.36-.62.16-.94.26a2.14,2.14,0,0,0-1.65,2.16c0,1.11,0,2.22,0,3.33,0,.36-.11.46-.47.47-1.45,0-1.45,0-1.45-1.4,0-1.94,0-3.89,0-5.83,0-.46.15-.64.61-.6s.87-.09,1.19.08,0,.73.25,1.15" fill-rule="evenodd"/><path d="M10,16.24a10.61,10.61,0,0,1-6.88-3A.52.52,0,0,1,3,12.38c.28-.32.58-.24.86,0a9.64,9.64,0,0,0,3.55,2.2,8.13,8.13,0,0,0,8-1.53c.31-.24.6-.49.9-.75a.51.51,0,0,1,.78,0,.55.55,0,0,1,0,.84A10.35,10.35,0,0,1,10,16.24" fill-rule="evenodd"/><path d="M7.73,6.12a1.2,1.2,0,1,0-2.39,0,1.2,1.2,0,1,0,2.39,0M6.52,8.43A1.51,1.51,0,0,1,6,8.37c-.6-.33-1-.06-1.37.39a3.56,3.56,0,0,1-.6.56.47.47,0,0,1-.69-.1.45.45,0,0,1,0-.65,8.24,8.24,0,0,1,.76-.8.77.77,0,0,0,.24-1A2.26,2.26,0,0,1,6,3.88,2.31,2.31,0,1,1,7,8.39c-.14,0-.29,0-.45,0" fill-rule="evenodd"/><path d="M13.2,5A1.14,1.14,0,0,0,12,6.19a1.15,1.15,0,0,0,1.15,1.16,1.16,1.16,0,0,0,1.21-1.17A1.15,1.15,0,0,0,13.2,5M15.49,6.3a.79.79,0,0,1,0,.33c-.39.68,0,1.09.48,1.49a2.92,2.92,0,0,1,.42.44.5.5,0,0,1,0,.74.49.49,0,0,1-.74,0,10.58,10.58,0,0,1-.83-.81A.6.6,0,0,0,14,8.33a2.3,2.3,0,1,1,1.5-2" fill-rule="evenodd"/></svg>