<svg xmlns="http://www.w3.org/2000/svg" xmlns:xlink="http://www.w3.org/1999/xlink" viewBox="0 0 95 20"><defs><mask id="a" x="72.38" y="0.22" width="22.61" height="15.03" maskUnits="userSpaceOnUse"><polygon points="72.38 0.21 94.98 0.21 94.98 15.24 72.38 15.24 72.38 0.21" fill="#fff" fill-rule="evenodd"/></mask><mask id="b" x="0" y="0.8" width="18.4" height="18.82" maskUnits="userSpaceOnUse"><polygon points="0 0.8 18.4 0.8 18.4 19.62 0 19.62 0 0.8" fill="#fff" fill-rule="evenodd"/></mask></defs><title>Монтажная область 1</title><g mask="url(#a)"><path d="M80.67.22c1.84,1.27,1.88,1.37.87,3.5a.81.81,0,0,0,0,.77l2.27,5c.78-1.76,1.43-3.26,2.11-4.74a1.34,1.34,0,0,0-.26-1.5A1.65,1.65,0,0,1,86,.82a1.68,1.68,0,0,1,2.39.28,1.58,1.58,0,0,1-.21,2.47,1.63,1.63,0,0,0-.52,1.76c.25,1.52.48,3.05.74,4.72a22.91,22.91,0,0,0,3.15-3c.41-.4.13-.79,0-1.21a1.63,1.63,0,0,1,1.18-2.32,1.63,1.63,0,0,1,2.15,1.06A1.59,1.59,0,0,1,93.61,6.9,1.77,1.77,0,0,0,92.3,8.2c-.76,2-1.6,3.88-2.35,5.84a1.53,1.53,0,0,1-1.68,1.2q-4.81-.09-9.65,0A1.4,1.4,0,0,1,77,14c-.54-1.92-1.16-3.8-1.76-5.7-.19-.62-.32-1.16-1.25-1.23A1.65,1.65,0,0,1,72.42,5a1.62,1.62,0,0,1,2.09-1.39A1.64,1.64,0,0,1,75.84,6a1,1,0,0,0,.21,1.19c.81.89,1.61,1.79,2.56,2.85.6-1.85,1.12-3.47,1.63-5.09a.82.82,0,0,0-.18-.9c-1.86-2-1.85-2.13,0-3.81Z" fill="#4b9eca" fill-rule="evenodd"/></g><path d="M42.19,8.28c.5,0,1,0,1.5-.09a1.47,1.47,0,0,0,1.49-1.51,1.53,1.53,0,0,0-1.29-1.8,7.15,7.15,0,0,0-1.6-.12c-1.8,0-1.8,0-1.8,1.8s0,1.7,1.7,1.72m-1.7,5.22v1.39c0,.31.06.57.46.56a15.21,15.21,0,0,0,3.63-.19,1.69,1.69,0,0,0,1.33-1.73,1.61,1.61,0,0,0-1.33-1.7,8.45,8.45,0,0,0-2.24-.19c-1.85,0-1.85,0-1.85,1.86m7.45-3.86c1.71.62,3,1.56,3.39,3.44A4.91,4.91,0,0,1,47.52,19c-3,.6-6,.33-8.93.36-1.17,0-2.74.52-3.41-.22S35,17,35,15.81c0-4.56,0-9.11,0-13.66,0-.92.26-1.11,1.14-1.09,3,.05,6.11,0,9.17,0,2.55,0,4.38,1.12,5,3,.81,2.22,0,4.06-2.39,5.6" fill="#f19000" fill-rule="evenodd"/><g mask="url(#b)"><path d="M13,10.15a7.45,7.45,0,0,0-.27-2.52A3.52,3.52,0,0,0,9.31,5,3.43,3.43,0,0,0,5.87,7.52a9.15,9.15,0,0,0-.06,5.16A3.47,3.47,0,0,0,9.4,15.45a3.46,3.46,0,0,0,3.36-3,8.9,8.9,0,0,0,.2-2.25m5.42.07a10.08,10.08,0,0,1-.29,3.19,7.92,7.92,0,0,1-7.69,6.18,11.16,11.16,0,0,1-6.16-1.08C1.36,16.89.29,14.19,0,11.09A11.6,11.6,0,0,1,.4,7.16,8,8,0,0,1,7.81.88a11.94,11.94,0,0,1,5.31.53C16.5,2.67,18,5.28,18.37,8.72a15,15,0,0,1,0,1.5" fill="#f19000" fill-rule="evenodd"/></g><path d="M66.09,9c1.11,0,2.23,0,3.34,0,.51,0,.79.07.78.69q0,3.22,0,6.45a1.05,1.05,0,0,1-.55.94,13.81,13.81,0,0,1-11.38,2.22,7.21,7.21,0,0,1-5.34-4.7,11.32,11.32,0,0,1-.13-8.39A7.75,7.75,0,0,1,59.87.88a18.62,18.62,0,0,1,5.05.17,6.06,6.06,0,0,1,4.8,4.27c.18.48.07.67-.48.75-1.34.21-2.67.51-4,.78a.59.59,0,0,1-.75-.37,3.12,3.12,0,0,0-3.42-1.7,3.44,3.44,0,0,0-3,2.41,9.09,9.09,0,0,0,0,6.11c.73,2,2.76,2.81,5.21,2.11a14.46,14.46,0,0,0,1.58-.68c.84-.35.56-1.09.51-1.67s-.62-.31-1-.34c-.85-.09-2,.36-2.49-.18s-.08-1.71-.19-2.59.23-1,1-1C63.85,9,65,9,66.09,9" fill="#f19000" fill-rule="evenodd"/><path d="M19.91,10.16c0-2.72,0-5.44,0-8.16,0-.78.23-1,1-.94a32.52,32.52,0,0,0,3.56,0c.78,0,.95.23.94,1,0,3.91,0,7.81,0,11.72,0,.9.25,1.14,1.14,1.11,2.19-.06,4.38,0,6.58,0,.67,0,1,.12.92.87-.07,1,0,2,0,3,0,.52-.17.67-.68.67-4.2,0-8.41,0-12.62,0-.66,0-.75-.26-.75-.82,0-2.8,0-5.59,0-8.39" fill="#f19000" fill-rule="evenodd"/><path d="M84,19.8c-2.22,0-4.44,0-6.66,0-1.43,0-1.9-.85-1.13-2.09a2.5,2.5,0,0,1,2.2-1.26c3.6,0,7.21,0,10.81,0a2.44,2.44,0,0,1,2,1,2,2,0,0,1,.54,2c-.29.75-1.07.38-1.63.39-2,0-4.1,0-6.15,0" fill="#4b9eca" fill-rule="evenodd"/></svg>