<svg xmlns="http://www.w3.org/2000/svg" xmlns:xlink="http://www.w3.org/1999/xlink" viewBox="0 0 117 24"><defs><mask id="a" x="0" y="0.08" width="19.39" height="18.02" maskUnits="userSpaceOnUse"><polygon points="0 0.08 19.39 0.08 19.39 18.1 0 18.1 0 0.08" fill="#fff" fill-rule="evenodd"/></mask><mask id="b" x="56.34" y="6.39" width="6.06" height="17.43" maskUnits="userSpaceOnUse"><polygon points="56.34 6.39 62.4 6.39 62.4 23.82 56.34 23.82 56.34 6.39" fill="#fff" fill-rule="evenodd"/></mask><mask id="c" x="0" y="0" width="116.95" height="23.82" maskUnits="userSpaceOnUse"><polygon points="0 23.82 116.95 23.82 116.95 0 0 0 0 23.82" fill="#fff" fill-rule="evenodd"/></mask></defs><title>Монтажная область 1</title><g mask="url(#a)"><path d="M5.27,13.1c0,.69.24,1,1,.62s1.22-.59,1.79-1a1.28,1.28,0,0,1,1.56,0,18.77,18.77,0,0,0,1.88,1c.64.31,1,.07.92-.63a3.88,3.88,0,0,0-.17-.94c-.36-1.3-.29-2.46.95-3.31a5.39,5.39,0,0,0,.75-.76c.49-.51.61-.92-.27-1.09a9.15,9.15,0,0,0-1.77-.32,1.58,1.58,0,0,1-1.64-1.1,5.32,5.32,0,0,0-.56-1.15,8.87,8.87,0,0,0-.86-1c-.29.32-.72.6-.84,1C7.45,6.05,6.54,7,4.74,6.81a.77.77,0,0,0-.41.09c-.31.14-.6.31-.9.47a8.17,8.17,0,0,0,.54,1,4.57,4.57,0,0,0,.89.92,1.63,1.63,0,0,1,.71,2,11.46,11.46,0,0,0-.3,1.83m13.88,5c-.59,0-1.18,0-1.76,0-3.35-.06-6.7,0-10-.22C3.66,17.63.14,13.66,0,10S.9,3.61,3.88,1.65a8.49,8.49,0,0,1,8.94-.55,8.54,8.54,0,0,1,4.9,7.59,8,8,0,0,1-1.25,5,1.08,1.08,0,0,0,.24,1.65c.91.77,1.79,1.59,2.68,2.38l-.24.38" fill="#ef6a23" fill-rule="evenodd"/></g><path d="M84.06,15.31a3.1,3.1,0,0,0,3.18-3.16A3.22,3.22,0,0,0,84.11,8.9,3.13,3.13,0,0,0,81,12.16,3,3,0,0,0,84.06,15.31ZM80.9,7.73a5.44,5.44,0,0,1,7.64,0,6.67,6.67,0,0,1,.36,8.53c-2,2.36-4.89,2.57-7.92.52,0,.41-.08.78-.12,1.21H78V.05H80.9Z" fill-rule="evenodd"/><path d="M100.78,12.13A3.05,3.05,0,0,0,97.7,8.9a3.19,3.19,0,0,0-3.1,3.18,3.09,3.09,0,0,0,3.09,3.23,3,3,0,0,0,3.09-3.18M94.6,16.65c0,.5-.07.89-.1,1.32H91.67V0h2.85V7.81a4.82,4.82,0,0,1,4.79-1.62,5.25,5.25,0,0,1,3.3,2,6.68,6.68,0,0,1-.45,8.44c-2.14,2.11-5,2.15-7.56,0" fill-rule="evenodd"/><path d="M70.11,15.31a3.18,3.18,0,0,0,3.28-3.19,3.29,3.29,0,0,0-3.21-3.2,3.25,3.25,0,0,0-3.24,3.24,3.12,3.12,0,0,0,3.17,3.15m3.24-7.76c0-.43.05-.74.07-1.13h2.82V18h-2.8c0-.43-.06-.81-.1-1.33a5.12,5.12,0,0,1-4.11,1.57,5.86,5.86,0,0,1-4-2.12A6.36,6.36,0,0,1,65.34,8c2.09-2.3,5-2.5,8-.46" fill-rule="evenodd"/><path d="M114,11.06a2.75,2.75,0,0,0-3-2.47c-1.27,0-2.84.91-2.77,2.47Zm2.83,2.09h-8.68a2.51,2.51,0,0,0,1.69,2.28c1.51.67,3,.27,4.5-1.17l2.07,1.15c-1.24,2.48-4.84,3.55-7.69,2.35a6.12,6.12,0,0,1-3.29-7.66,5.9,5.9,0,0,1,7.17-3.83A5.7,5.7,0,0,1,116.84,13.15Z" fill-rule="evenodd"/><path d="M54.8,11.05A2.71,2.71,0,0,0,51.7,8.6,2.57,2.57,0,0,0,49,11.05ZM49,13.13a2.52,2.52,0,0,0,1.79,2.34,3.64,3.64,0,0,0,4.33-1.23l2.27,1.23A12.15,12.15,0,0,1,56,17a6.69,6.69,0,0,1-7.5.27,6.21,6.21,0,0,1-2.32-6.93,5.93,5.93,0,0,1,11.61,2c0,.68-.32.83-.93.82-2.2,0-4.41,0-6.62,0Z" fill-rule="evenodd"/><path d="M23.1,14.31c1.07,0,1.78-.05,2.48,0a1.2,1.2,0,0,1,.7.49,2.16,2.16,0,0,0,2.7.84,1.49,1.49,0,0,0,.76-1,1.34,1.34,0,0,0-.75-1c-.82-.34-1.71-.48-2.56-.74-2.16-.69-2.94-1.84-2.67-3.87a3.79,3.79,0,0,1,3.74-2.9,9.16,9.16,0,0,1,2.71.39,3.13,3.13,0,0,1,2.15,3.14c-.8,0-1.61,0-2.4,0-.18,0-.32-.32-.51-.42-.51-.28-1.05-.74-1.55-.71s-.92.59-1.38.92c.34.39.61.95,1,1.14.81.35,1.72.44,2.56.71a3.37,3.37,0,0,1,.08,6.53,5.23,5.23,0,0,1-6-1.32,12.35,12.35,0,0,1-1.07-2.21" fill-rule="evenodd"/><path d="M40.39,2h3V6.32h2.32V8.68H43.4v9.26H40.46V8.73h-2.1V6.4l2-.1Z" fill-rule="evenodd"/><g mask="url(#b)"><path d="M59.44,6.39h2.82c.06.1.13.16.13.21,0,4.53.09,9.06-.14,13.57-.13,2.56-1.64,3.61-4.25,3.64-.52,0-1,0-1.66,0V21.16a5.6,5.6,0,0,1,.59-.07c2-.05,2.49-.53,2.5-2.57,0-3.63,0-7.27,0-10.9V6.39" fill-rule="evenodd"/></g><g mask="url(#c)"><polygon points="34.14 17.95 36.92 17.95 36.92 6.43 34.14 6.43 34.14 17.95" fill-rule="evenodd"/></g><g mask="url(#c)"><path d="M37.42,1.85a1.74,1.74,0,0,1-2,1.73,1.81,1.81,0,0,1-1.79-1.84,1.84,1.84,0,0,1,2-1.74,1.78,1.78,0,0,1,1.76,1.85" fill-rule="evenodd"/></g><g mask="url(#c)"><path d="M62.81,1.84A1.87,1.87,0,0,1,60.89,3.6,1.81,1.81,0,0,1,59,1.71,1.86,1.86,0,0,1,61,0a1.83,1.83,0,0,1,1.84,1.84" fill-rule="evenodd"/></g></svg>