<svg xmlns="http://www.w3.org/2000/svg" viewBox="0 0 22 26">
    <path d="M21.15,20.25a13.79,13.79,0,0,1-1.38,2.51A12.58,12.58,0,0,1,18,24.93a3.39,3.39,0,0,1-2.29,1,5.72,5.72,0,0,1-2.11-.51,5.94,5.94,0,0,0-2.27-.51A6.18,6.18,0,0,0,9,25.44,6.29,6.29,0,0,1,7,26a3.19,3.19,0,0,1-2.33-1.05,12.44,12.44,0,0,1-1.86-2.25,15.34,15.34,0,0,1-2-3.95A14.63,14.63,0,0,1,0,14a8.61,8.61,0,0,1,1.12-4.5,6.62,6.62,0,0,1,2.33-2.4,6.32,6.32,0,0,1,3.16-.9,7.16,7.16,0,0,1,2.44.58A7.85,7.85,0,0,0,11,7.37a11,11,0,0,0,2.15-.68,7,7,0,0,1,2.92-.52,6.17,6.17,0,0,1,4.86,2.59,5.48,5.48,0,0,0-2.87,5,5.5,5.5,0,0,0,1.78,4.13A5.9,5.9,0,0,0,21.6,19C21.46,19.46,21.31,19.86,21.15,20.25ZM16.2.52a5.63,5.63,0,0,1-1.4,3.64,4.77,4.77,0,0,1-4,2,3.91,3.91,0,0,1,0-.49A5.78,5.78,0,0,1,12.29,2,5.62,5.62,0,0,1,14.1.6,5.17,5.17,0,0,1,16.18,0a4.52,4.52,0,0,1,0,.52Z" fill="#fff"/>
</svg>