<svg xmlns="http://www.w3.org/2000/svg" viewBox="0 0 509 510">
    <defs>
        <mask id="a" x="232.7" y="0" width="275.39" height="243.95" maskUnits="userSpaceOnUse">
            <polygon points="232.7 0 508.09 0 508.09 243.95 232.7 243.95 232.7 0" fill="#fff" fill-rule="evenodd"/>
        </mask>
    </defs>
    <g mask="url(#a)">
        <path d="M508,0q0,118,.09,236c0,4.38-.87,5.88-5.61,5.9q-118.49.62-237,1.6c-9.16.06-18.33,0-27.48.45-4.1.19-5.37-.83-5.33-5.11.22-22.33.11-44.66.11-67,0-42.17.06-84.33-.11-126.49,0-3.93.91-5.35,4.92-5.92C268.44,35.09,299.22,30.51,330,26L450.54,8.36l49.89-7.28c.95-.14,2.06.1,2.57-1.08Z" fill="#00aef1" fill-rule="evenodd"/>
    </g>
    <path d="M0,266q101.7.56,203.4,1c3.83,0,4.27,1.54,4.27,4.72q0,95.46.21,190.92c0,4.3-1.41,4.91-5.18,4.38-25.2-3.59-50.42-7-75.64-10.49Q81.32,450.28,35.58,444c-11.86-1.64-23.72-3.33-35.58-5Z" fill="#00aef1" fill-rule="evenodd"/>
    <path d="M0,72c18.31-2.41,36.63-4.77,54.93-7.24Q101.69,58.43,148.41,52c18.3-2.51,36.62-4.89,54.89-7.6,3.72-.55,4.5.33,4.5,3.9q-.09,95.73.06,191.45c0,2.93-.32,4.45-3.94,4.47q-100.47.39-200.93,1c-1,0-2-.15-3-.22Z" fill="#00aef1" fill-rule="evenodd"/>
    <path d="M370,269.08c44.32,0,88.64.06,133-.1,4.15,0,5.21,1,5.2,5.19q-.21,115.21,0,230.43c0,4-1,5-5,4.43q-62-9-124-17.68Q317.32,482.64,255.52,474c-6.59-.93-13.15-2.06-19.76-2.81-2.41-.28-3.07-1.22-3-3.45.12-3.5,0-7,0-10.5q-.27-91-.55-181.94c0-6.51,0-6.52,6.28-6.52H370Z" fill="#00aef1" fill-rule="evenodd"/>
</svg>