<svg xmlns="http://www.w3.org/2000/svg" viewBox="0 0 32 32">
	<path d="M7,14.43A4.77,4.77,0,0,1,9,14h5a2,2,0,1,1,0,4H9a1,1,0,1,0,0,2h5a4,4,0,0,0,4-4h5a7,7,0,0,0,7-7,1,1,0,0,0-1-1,1,1,0,0,0-1,1V9a5,5,0,0,1-5,5H17.42A4,4,0,0,0,14,12H9a6.9,6.9,0,0,0-2.72.56,1,1,0,0,0-.53,1.31A1,1,0,0,0,7,14.43M28,25a1,1,0,0,0-1-1H9a1,1,0,0,0-.71.3A1,1,0,0,0,8,25a1,1,0,0,0,.29.71A1,1,0,0,0,9,26H27a1,1,0,0,0,1-1"/>
	<path d="M7.32,14.34a.94.94,0,0,0,.56-.51,1,1,0,0,0,0-.76V13H8V7a5,5,0,0,1,5-5H23V2a4.85,4.85,0,0,1,5,5V23a1,1,0,0,1-1,1,1,1,0,0,0-1,1h0v4a1,1,0,0,1-1,1H11a1,1,0,0,1-1-.92V25a1,1,0,0,0-.31-.7A1,1,0,0,0,9,24a5,5,0,0,1-1.66-9.69ZM8,26V29a3,3,0,0,0,2.93,3H25a3,3,0,0,0,3-3V25.89A2.78,2.78,0,0,0,30,23V7a6.93,6.93,0,0,0-7-7V0H13A7,7,0,0,0,6,7v5.71A7,7,0,0,0,8,26Z"/>
</svg>