<svg xmlns="http://www.w3.org/2000/svg" viewBox="0 0 30.66 30.66">
	<path d="M26.26,24.36a5.78,5.78,0,0,1-2.13,3.28,5,5,0,0,1-3.43,1,5.39,5.39,0,0,1-2.2-.56L18.31,28a4.74,4.74,0,0,1-1-.69c-1-1-2.08-2.06-3.11-3.09L8.56,18.55a.76.76,0,0,1-.11-.14.28.28,0,0,1,.21-.12l1.42,1.41,1.36,1.36,2,2.05a1.61,1.61,0,0,0,2.21,0,1.56,1.56,0,0,0,0-2.22L13.81,19,9,14.16A.44.44,0,0,1,8.87,14h0c.06-.09.12-.14.21-.12.41.39.81.8,1.21,1.2l4.82,4.82a1.52,1.52,0,0,0,1.09.46h0a1.56,1.56,0,0,0,1.11-.48,1.52,1.52,0,0,0,0-2.2L9.81,10.17,9.68,10a.26.26,0,0,1,.21-.14l7.23,7.22a1.57,1.57,0,0,0,2.21-2.22L18,13.57l-5-5a.76.76,0,0,1-.11-.14h0c.09-.13.16-.16.14-.18a.27.27,0,0,0,.08.07l1.28,1.27L21.85,17a1.57,1.57,0,0,0,2.68-1.37,19.15,19.15,0,0,1-.24-3,4.83,4.83,0,0,1,.19-1.51A.48.48,0,0,1,24.6,11V11c0,.33,0,.65,0,1a30.49,30.49,0,0,0,.77,6.52,4.39,4.39,0,0,0,.21.61l.08.16c.05.13.11.26.15.39h0a7.71,7.71,0,0,1,.4,4.66M2.83,14.5a12.5,12.5,0,1,1,25,0,12.35,12.35,0,0,1-.49,3.42A28.07,28.07,0,0,1,26.65,12c0-.36,0-.72,0-1.08v-.17a2,2,0,0,0-3-1.53,2.49,2.49,0,0,0-1,1.26,6.86,6.86,0,0,0-.3,2.15,17.57,17.57,0,0,0,.11,2.11L15.81,8.15l-1.3-1.29a2,2,0,0,0-2.18-.49,2.37,2.37,0,0,0-1.08.89,2,2,0,0,0-.36.88A1.94,1.94,0,0,0,9,8.06,2.4,2.4,0,0,0,7.89,9.14a1.86,1.86,0,0,0,0,1.8,3.05,3.05,0,0,0,.5.65l.29.28a2.4,2.4,0,0,0-1.46,1A1.88,1.88,0,0,0,7,14.8a2.87,2.87,0,0,0,.55.77l.7.7a2.06,2.06,0,0,0-.74.31,2.35,2.35,0,0,0-1,1.19,1.84,1.84,0,0,0,.16,1.63,2.87,2.87,0,0,0,.44.57l3.75,3.75,1.83,1.84,1.39,1.38A12.52,12.52,0,0,1,2.83,14.5m27,0A14.5,14.5,0,1,0,15.33,29c.29,0,.57,0,.86,0a6.72,6.72,0,0,0,1.14.79l.27.13a7.45,7.45,0,0,0,3,.77H21a7,7,0,0,0,4.36-1.44,7.77,7.77,0,0,0,2.84-4.38A9,9,0,0,0,28.29,21a14.52,14.52,0,0,0,1.54-6.5"/>
</svg>