<svg xmlns="http://www.w3.org/2000/svg" viewBox="0 0 32 32">
	<path d="M16.34,30a13,13,0,0,0,8-13.72,7.91,7.91,0,0,1,4.41,5.59A11.26,11.26,0,0,1,28.12,23a14,14,0,0,1-11.78,7m-9.62-3.5.32,0A10.08,10.08,0,0,0,14,23.7c.13-.12.25-.26.38-.4s0,0,.05-.05A9.74,9.74,0,0,0,17,16.57,7.85,7.85,0,0,1,20.9,15.5a8.25,8.25,0,0,1,1.22.1A11.12,11.12,0,0,1,22.4,18a11,11,0,0,1-11,11q-.37,0-.75,0a13.9,13.9,0,0,1-3.92-2.45m-3-17.2A15,15,0,0,0,3.59,11a13,13,0,0,0,8,12A8.05,8.05,0,0,1,7.05,24.5a8,8,0,0,1-2.47-.42A14,14,0,0,1,2,16,13.85,13.85,0,0,1,3.72,9.28M23,3.87a13.88,13.88,0,0,1,4.94,4.84,13,13,0,0,0-15.85,0c0-.19,0-.39,0-.59a8,8,0,0,1,2.66-6C15.14,2,15.58,2,16,2a14,14,0,0,1,7,1.87m-10.42,7a11,11,0,0,1,17.28,3.25A13.1,13.1,0,0,1,30,16a13.56,13.56,0,0,1-.28,2.77,10,10,0,0,0-6.58-5l-.06,0a9.89,9.89,0,0,0-2.17-.25A9.75,9.75,0,0,0,16,14.83a7.76,7.76,0,0,1-3.41-3.94m-5.12-6a14.16,14.16,0,0,1,4.1-2.17A10.25,10.25,0,0,0,10.05,8.1a9.76,9.76,0,0,0,5,8.47,7.74,7.74,0,0,1-1.74,4.94A11,11,0,0,1,5.59,11,11.11,11.11,0,0,1,7.46,4.9m24.38,8.94s0-.06,0-.09A16,16,0,0,0,6.19,3.36l0,0A16,16,0,0,0,8,29.85,15.72,15.72,0,0,0,16,32,15.9,15.9,0,0,0,31.84,13.84"/>
</svg>