<svg xmlns="http://www.w3.org/2000/svg" viewBox="0 0 31.8 31.8">
	<path d="M11,22.81a2,2,0,1,1,2.74.74A2,2,0,0,1,11,22.81Zm5.2-3a4,4,0,1,0-1.46,5.47A4,4,0,0,0,16.18,19.81Z"/>
	<path d="M28,8.31,18,14.1a1,1,0,0,0-.48.79,1,1,0,0,0,.35.86,7.73,7.73,0,0,1,1.76,2.06A8,8,0,1,1,8.7,14.86L26,4.84ZM25.93,2.64l0,0L7.7,13.12a10,10,0,1,0,13.67,3.69A6.71,6.71,0,0,0,20,15.24l9.85-5.69a1,1,0,0,0,.48-.6.94.94,0,0,0-.08-.75L27.29,3a1,1,0,0,0-.6-.47A1.81,1.81,0,0,0,25.93,2.64ZM6.57,1.11A1,1,0,0,0,6.2,2.48l2,3.46a1,1,0,0,0,1.74-1l-2-3.46a1,1,0,0,0-1.37-.37h0m7.1-.37-1,3.86a1,1,0,0,0,1.94.52l1-3.87A1,1,0,0,0,13.67.74M1.42,7.81A1,1,0,0,0,2.13,9h0l3.86,1a1,1,0,0,0,1.22-.72,1,1,0,0,0-.7-1.21l-3.86-1a1,1,0,0,0-1.23.71h0"/>
</svg>