<svg xmlns="http://www.w3.org/2000/svg" viewBox="0 0 70 70">
	<path d="M34.91,0A62.54,62.54,0,0,1,52.62,2.28c5.06,1.55,8.2,3.91,8.2,6.69s-3.14,5.15-8.2,6.7a62.52,62.52,0,0,1-17.71,2.27A62.52,62.52,0,0,1,17.2,15.67C12.14,14.12,9,11.75,9,9s3.14-5.14,8.2-6.69A62.49,62.49,0,0,1,34.91,0ZM51.8,5.05A59.86,59.86,0,0,0,34.91,2.91,60.32,60.32,0,0,0,18,5.05C14.24,6.19,11.87,7.6,11.87,9S14.19,11.7,18,12.89A59.86,59.86,0,0,0,34.91,15,60.32,60.32,0,0,0,51.8,12.89C55.58,11.75,58,10.34,58,9S55.63,6.24,51.8,5.05Z" fill="#f8d71c"/>
	<path d="M57.86,9.65a1.46,1.46,0,0,1,2.91-.18,45.93,45.93,0,0,1,.14,6.33c0,.28,0,.55,0,.91,0,2.78-3.14,5.15-8.19,6.7A62.61,62.61,0,0,1,35,25.69a62.59,62.59,0,0,1-17.71-2.28c-5-1.55-8.19-3.92-8.19-6.7V15.44c0-1.14-.05-2.6,0-6.47A1.46,1.46,0,0,1,12,9c-.05,3.87-.05,5.33,0,6.42v1.33c0,1.36,2.32,2.73,6.15,3.91A59.86,59.86,0,0,0,35,22.77a60.32,60.32,0,0,0,16.89-2.14C55.67,19.49,58,18.08,58,16.72c0-.46.05-.78.05-1.14A41.79,41.79,0,0,0,58,9.66h-.09Z" fill="#f8d71c"/>
	<path d="M57.86,18.49a1.46,1.46,0,1,1,2.91-.18,45.93,45.93,0,0,1,.14,6.33c0,.27,0,.54,0,.91,0,2.78-3.14,5.15-8.19,6.69A62.25,62.25,0,0,1,35,34.52a62.23,62.23,0,0,1-17.71-2.28c-5-1.54-8.19-3.91-8.19-6.69V24.27c0-1.13-.05-2.59,0-6.46a1.46,1.46,0,1,1,2.91,0c-.05,3.87-.05,5.33,0,6.42v1.32c0,1.37,2.32,2.73,6.15,3.92A59.86,59.86,0,0,0,35,31.61a60.11,60.11,0,0,0,16.89-2.14C55.67,28.33,58,26.92,58,25.55c0-.46.05-.77.05-1.14A41.77,41.77,0,0,0,58,18.49Z" fill="#f8d71c"/>
	<path d="M57.86,27.37a1.46,1.46,0,1,1,2.91-.18,45.93,45.93,0,0,1,.14,6.33c0,.27,0,.55,0,.91,0,2.78-3.14,5.15-8.19,6.7A62.65,62.65,0,0,1,35,43.4a62.62,62.62,0,0,1-17.71-2.27c-5-1.55-8.19-3.92-8.19-6.7V33.15c0-1.13-.05-2.59,0-6.46a1.46,1.46,0,1,1,2.91,0c-.05,3.87-.05,5.33,0,6.42v1.32c0,1.37,2.32,2.73,6.15,3.92A59.86,59.86,0,0,0,35,40.49a60.32,60.32,0,0,0,16.89-2.14C55.67,37.21,58,35.8,58,34.43c0-.46.05-.78.05-1.14A41.77,41.77,0,0,0,58,27.37Z" fill="#f8d71c"/>
	<path d="M57.86,36.21A1.46,1.46,0,1,1,60.77,36a45.93,45.93,0,0,1,.14,6.33c0,.27,0,.54,0,.91,0,2.77-3.14,5.14-8.19,6.69A62.61,62.61,0,0,1,35,52.24,62.59,62.59,0,0,1,17.24,50c-5-1.55-8.19-3.92-8.19-6.69V42c0-1.14-.05-2.6,0-6.47a1.46,1.46,0,0,1,2.91,0c-.05,3.87-.05,5.33,0,6.42v1.33c0,1.36,2.32,2.73,6.15,3.91A59.86,59.86,0,0,0,35,49.32a60.32,60.32,0,0,0,16.89-2.14C55.67,46,58,44.63,58,43.27c0-.46.05-.78.05-1.14A41.78,41.78,0,0,0,58,36.21Z" fill="#f8d71c"/>
	<path d="M57.86,45.09a1.46,1.46,0,1,1,2.91-.18,45.93,45.93,0,0,1,.14,6.33c0,.27,0,.54,0,.91,0,2.77-3.14,5.14-8.19,6.69A62.61,62.61,0,0,1,35,61.12a62.59,62.59,0,0,1-17.71-2.28c-5-1.55-8.19-3.92-8.19-6.69V50.87c0-1.14-.05-2.59,0-6.47a1.46,1.46,0,0,1,2.91,0c-.05,3.87-.05,5.33,0,6.43v1.32c0,1.36,2.32,2.73,6.15,3.91A59.86,59.86,0,0,0,35,58.2a60.32,60.32,0,0,0,16.89-2.14C55.67,54.92,58,53.51,58,52.15c0-.46.05-.78.05-1.14A41.78,41.78,0,0,0,58,45.09Z" fill="#f8d71c"/>
	<path d="M57.86,54a1.46,1.46,0,1,1,2.91-.18,45.93,45.93,0,0,1,.14,6.33c0,.27,0,.54,0,.91,0,2.78-3.14,5.14-8.19,6.69A62.25,62.25,0,0,1,35,70a62.23,62.23,0,0,1-17.71-2.28c-5-1.55-8.19-3.91-8.19-6.69V59.75c0-1.14-.05-2.59,0-6.46a1.46,1.46,0,1,1,2.91,0c-.05,3.87-.05,5.32,0,6.42V61c0,1.36,2.32,2.73,6.15,3.91A59.86,59.86,0,0,0,35,67.08a60.32,60.32,0,0,0,16.89-2.14C55.67,63.81,58,62.4,58,61c0-.46.05-.78.05-1.14A41.78,41.78,0,0,0,58,54Z" fill="#f8d71c"/>
</svg>