<svg xmlns="http://www.w3.org/2000/svg" viewBox="0 0 68.88 68.88">
	<path d="M37.05,23.5a1.17,1.17,0,0,1-.82-2h0L49.37,8.31a1.15,1.15,0,0,1,1.63,0A1.18,1.18,0,0,1,51,10h0L37.88,23.16a1.17,1.17,0,0,1-.83.34Zm6.57,6.61a1.19,1.19,0,0,1-.82-.34,1.17,1.17,0,0,1,0-1.66h0L54.29,16.56a1.15,1.15,0,0,1,1.63,0h0a1.18,1.18,0,0,1,0,1.65L44.43,29.77A1.19,1.19,0,0,1,43.62,30.11Zm4.92,8.24a1.18,1.18,0,0,1-.82-.33,1.17,1.17,0,0,1,0-1.66h0L59.21,24.81a1.17,1.17,0,0,1,1.66,0,1.24,1.24,0,0,1,.32.54,1.19,1.19,0,0,1-.3,1.15L49.4,38A1.15,1.15,0,0,1,48.54,38.35Z"/>
	<path d="M21.43,68.87a1.21,1.21,0,0,1-.83-.33l-18-18.16a1.16,1.16,0,0,1,0-1.64l6.08-6.09-.13-.26a12.19,12.19,0,0,1-.29-6.64,12,12,0,0,1,3-5.55L16.91,8.28a5.87,5.87,0,0,1,1.5-2.67,5.78,5.78,0,0,1,8.18-.09,5.9,5.9,0,0,1,1,1.25,5.81,5.81,0,0,1,.55,4.41l-1.76,7L42.8,1.71a5.79,5.79,0,0,1,9.86,3.43,5.79,5.79,0,0,1,7.18.5,5.64,5.64,0,0,1,1.81,4.08,6.28,6.28,0,0,1-1.8,4.55l-.64.65a5.79,5.79,0,0,1,3.09,1.44,5.68,5.68,0,0,1,1.82,4.09A6.37,6.37,0,0,1,62.31,25l-.64.63A5.84,5.84,0,0,1,65,35.54L41,59.62a12,12,0,0,1-12.36,2.93l-.25-.1-6.06,6.09a1.13,1.13,0,0,1-.9.33ZM5,49.57,21.43,66.06l5.8-5.77A1.16,1.16,0,0,1,28.39,60l1,.32a9.64,9.64,0,0,0,10-2.33l24-24.11a3.51,3.51,0,0,0,0-4.95,3.47,3.47,0,0,0-4.91,0v0a1.16,1.16,0,0,1-1.64,0h0a1.17,1.17,0,0,1,0-1.66l3.91-3.93a3.9,3.9,0,0,0,1.16-2.85,3.35,3.35,0,0,0-1-2.4,3.53,3.53,0,0,0-2.33-.91,3.48,3.48,0,0,0-2.46,1,1.15,1.15,0,0,1-1.63,0h0a1.17,1.17,0,0,1,0-1.66h0l3.91-3.93a4,4,0,0,0,1.16-2.85,3.38,3.38,0,0,0-1.14-2.39A3.61,3.61,0,0,0,56,6.48a3.54,3.54,0,0,0-2.46,1L51,10a1.16,1.16,0,0,1-1.64,0h0a1.16,1.16,0,0,1,0-1.65h0a3.52,3.52,0,0,0,0-5,3.47,3.47,0,0,0-4.91,0l0,0L25,22.9a1.17,1.17,0,0,1-1.45.2,1.15,1.15,0,0,1-.5-1.37L25.88,10.6a3.5,3.5,0,1,0-6.77-1.8h0L13.3,31a1,1,0,0,1-.3.53,9.76,9.76,0,0,0-2.35,10l.33,1a1.16,1.16,0,0,1-.29,1.17L5,49.57Z"/>
	<path d="M40.34,45.4a4,4,0,0,1-2.88-1.17L26.79,33.51a4.1,4.1,0,0,1,0-5.77,4.16,4.16,0,0,1,5.75,0L43.2,38.46a4.1,4.1,0,0,1-2.86,7Zm-8.21,8.25a4.12,4.12,0,0,1-2.88-1.17L18.58,41.76a4.12,4.12,0,0,1,1.8-6.88,4.09,4.09,0,0,1,3.95,1L35,46.65a4.1,4.1,0,0,1-2.87,7Z"/>
	<path d="M23.92,58.15a1.17,1.17,0,0,1-.82-.34l-13.93-14a1.16,1.16,0,0,1,0-1.65h0a1.15,1.15,0,0,1,1.64,0h0l13.93,14a1.17,1.17,0,0,1,0,1.65A1.15,1.15,0,0,1,23.92,58.15Z"/>
	<path d="M12.43,57.87a5.82,5.82,0,0,1-4.11-1.71l-5.8-5.78a1.16,1.16,0,0,1,0-1.64l6.57-6.61a1.16,1.16,0,0,1,1.64,0l5.8,5.78a5.85,5.85,0,0,1,0,8.25,5.78,5.78,0,0,1-4.1,1.71Z"/>
</svg>