<svg xmlns="http://www.w3.org/2000/svg" viewBox="0 0 69.99 69.99">
	<path d="M54.89,17.37a25.94,25.94,0,0,1,4.39,8l-3.36.57L63,32,65,28.08l.11-.17,2.17-4.05-3.25.57A30.58,30.58,0,0,0,58,14.57,29.62,29.62,0,0,0,45.31,6.48l-1.08,3a26.51,26.51,0,0,1,10.66,7.93Zm-40,34a25,25,0,0,1-4.11-8.16l3.36-.51-6.9-6.27L5.06,40.28,5,40.45l-2.28,4L5.91,44a29.71,29.71,0,0,0,5.82,10,30,30,0,0,0,12.43,8.49l1.14-3A25.9,25.9,0,0,1,14.87,51.4Z"/>
	<path d="M21.19,28.68H12.45A12.55,12.55,0,0,1,0,16.05,12.55,12.55,0,0,1,12.45,3.42h8.74A12.55,12.55,0,0,1,33.64,16.05,12.51,12.51,0,0,1,21.19,28.68Z" fill="#7ed321"/>
	<path d="M57.53,41.31H48.8A12.32,12.32,0,0,0,40,45a12.69,12.69,0,0,0-3.67,8.92A12.55,12.55,0,0,0,48.8,66.57h8.73a12.28,12.28,0,0,0,8.79-3.72,12.64,12.64,0,0,0-8.79-21.54Zm0,21.94H48.8a9.29,9.29,0,0,1,0-18.57h8.73a9.29,9.29,0,0,1,0,18.57Z" fill="#d0021b"/>
</svg>