<svg xmlns="http://www.w3.org/2000/svg" viewBox="0 0 85 85">
	<path d="M42.43,77.87A28.28,28.28,0,1,0,14.05,49.59,28.4,28.4,0,0,0,42.43,77.87M7,49.57A35.42,35.42,0,1,1,42.45,85,35.41,35.41,0,0,1,7,49.57" fill="#666"/>
	<path d="M42.35,10.83H32.91c-1.08,0-1.51-.42-1.51-1.49q0-3.91,0-7.83c0-1,.46-1.5,1.46-1.5H51.73a1.27,1.27,0,0,1,1.43,1.45q0,4,0,8c0,1-.44,1.38-1.45,1.39H42.35"/>
	<path d="M68.74,18.55a5.59,5.59,0,1,1,5.58-5.62v0a5.54,5.54,0,0,1-5.49,5.6h-.09Z" fill="#666"/>
	<path d="M42.32,54.53a5.56,5.56,0,1,1,.15-11.11l.3,0a1.9,1.9,0,0,0,1-.3c3.29-2.08,6.56-4.19,9.84-6.29a.94.94,0,0,1,1.46.31c.27.43.06.74-.19,1.08-2.18,3.06-4.35,6.13-6.55,9.19A2.54,2.54,0,0,0,47.84,49a5.56,5.56,0,0,1-5.52,5.52M30.06,63.87,26.3,67.61l-2-2,3.74-3.74,2,2M60.7,65.61l-2,2-3.91-3.91,2-2,3.93,3.91"/>
	<path d="M40.94,30.61h3V25.07h-3ZM24.11,33.26l2-1.94L30,35.15l-2,1.92-3.83-3.81m34.58-2,2,1.93-3.93,3.89-1.91-2,3.87-3.86M18,50.93h5.54v-3H18Zm43.3,0h5.54v-3H61.31ZM40.93,73.79h3V68.26h-3Z"/>
</svg>