<svg xmlns="http://www.w3.org/2000/svg" width="71" height="71" viewBox="0 0 71 71">
    <path fill="#d0021b" d="M35.5 0C15.857 0 0 15.857 0 35.5S15.857 71 35.5 71 71 55.143 71 35.5 55.143 0 35.5 0zm-.316 8.52c3.156-.158 5.76 2.288 5.917 5.364v.553L39.76 41.496c-.079 2.366-2.13 4.26-4.576 4.102-2.208-.08-4.023-1.894-4.102-4.102l-1.34-27.06c-.08-3.076 2.366-5.758 5.442-5.916zm4.497 52.224A5.91 5.91 0 0 1 35.5 62.48a5.91 5.91 0 0 1-4.181-1.736 5.91 5.91 0 0 1-1.736-4.18 5.91 5.91 0 0 1 1.736-4.182 5.91 5.91 0 0 1 4.181-1.735 5.91 5.91 0 0 1 4.181 1.735 5.91 5.91 0 0 1 1.736 4.181 5.91 5.91 0 0 1-1.736 4.181z"/>
</svg>
