<svg xmlns="http://www.w3.org/2000/svg" viewBox="0 0 68 68">
	<path d="M23,11.27a1.51,1.51,0,0,0-2.1-.44,1.41,1.41,0,0,0-.45,2L24.8,19a1.5,1.5,0,0,0,2.1.43,1.4,1.4,0,0,0,.45-2L23,11.27ZM38.3,7.34A1.65,1.65,0,0,0,36.5,8.5l-1.35,7.28a1.59,1.59,0,0,0,1.2,1.74,1.55,1.55,0,0,0,1.8-1.16L39.5,9.09A1.41,1.41,0,0,0,38.3,7.34Zm-7.65-.58a1.47,1.47,0,0,0-1.8-1,1.51,1.51,0,0,0-1.2,1.75l1.65,7.27a1.64,1.64,0,0,0,1.8,1.16,1.51,1.51,0,0,0,1.2-1.74Z"/>
	<path d="M68,28.68,65.62,17.49a1.5,1.5,0,0,0-1.77-1.18L23.68,24.85A19,19,0,0,0,9.56,42.08,6.89,6.89,0,0,0,5,41.34,6.44,6.44,0,0,0,.14,49a6.57,6.57,0,0,0,7.65,5,6.21,6.21,0,0,0,3.68-2.36,19.05,19.05,0,0,0,21.93,10C44,58.86,49.88,47.52,47.08,38.54a3,3,0,0,1,2.35-3.68L66.79,30.3A1.35,1.35,0,0,0,68,28.68ZM7.2,51.06a3.65,3.65,0,0,1-4.26-2.8,3.61,3.61,0,1,1,4.26,2.8Zm21.63,3.23a11.3,11.3,0,0,1-10.89-8.83A11.06,11.06,0,1,1,39.58,40.9,10.94,10.94,0,0,1,28.83,54.29ZM29,35a8.17,8.17,0,1,0,8,6.48A8.46,8.46,0,0,0,29,35Z"/>
</svg>