<svg xmlns="http://www.w3.org/2000/svg" xmlns:xlink="http://www.w3.org/1999/xlink" viewBox="0 0 101 101"><defs><mask id="a" x="0" y="0" width="100.5" height="100.35" maskUnits="userSpaceOnUse"><path d="M0,0H100.5V100.35H0Z" fill="#fff" fill-rule="evenodd"/></mask></defs><path d="M63.6,28.22H56.69c-2.66,0-4,.45-4,2.66v2.5c0,2.21,1.37,2.66,4,2.66h1.59c1,0,1.45.54,1.45,2.06V70.94c0,2.66.45,4,2.66,4H65c2.21,0,2.66-1.36,2.66-4V30.88c0-2.21-1.37-2.67-4-2.67m-29-1c-8.9,0-12.77,2.05-12.77,11.25,0,2.05.83,2.58,3,2.58h1.83c1.74,0,2.81-.3,2.81-1.83,0-3.8,1.44-4.18,5.17-4.18,3.88,0,5.78.38,5.78,5.78,0,8.29-6.09,8.52-11.71,10.87-6.46,2.74-7.45,7.68-7.45,14.82v4.57c0,3.34,1.44,3.87,4.26,3.87H43.92c2.81,0,4.26-.45,4.26-3V69.71c0-2.36-1.45-2.81-4.26-2.81H30.46c-1.06,0-1.37-.54-1.37-1.75V62.64c0-8.13,19.24-3,19.24-20.07,0-10.41-1-15.36-13.76-15.36Z" fill="#601dc0" fill-rule="evenodd"/><g mask="url(#a)"><path d="M93.88,44.55c0,1.14-.53,1.74-1.6,1.74H87.19V42.72c0-2.66-.38-4-2.66-4H82.25c-2.28,0-2.66,1.37-2.66,4V46.3H76c-2.66,0-4,.38-4,2.66v2.43c0,2.28,1.37,2.66,4,2.66h3.57v3.57c0,2.66.38,4,2.66,4h2.28c2.28,0,2.66-1.37,2.66-4V54.05h5.09a1.45,1.45,0,0,1,1.6,1.52V67.12A8.78,8.78,0,0,1,91.07,74l-16.95,17a9.28,9.28,0,0,1-6.92,2.89H33.29a9.26,9.26,0,0,1-6.91-2.89L9.43,74a8.67,8.67,0,0,1-2.82-6.85V33.6a9.88,9.88,0,0,1,3-7.3L26.83,8.82a8.59,8.59,0,0,1,6.46-2.28H67.2a8.57,8.57,0,0,1,6.46,2.28L90.92,26.3a10.21,10.21,0,0,1,3,7.3V44.55ZM78.3,4.41A15.43,15.43,0,0,0,67.12,0H33.37A15.26,15.26,0,0,0,22.2,4.41L4.33,22.2A14.8,14.8,0,0,0,0,32.84V67.12A15.15,15.15,0,0,0,4.79,78.6l17,17a15.34,15.34,0,0,0,11.86,4.79H66.9a15.7,15.7,0,0,0,11.85-4.79l17-17a15.57,15.57,0,0,0,4.79-11.48V32.84A14.81,14.81,0,0,0,96.16,22.2Z" fill="#601dc0" fill-rule="evenodd"/></g></svg>