<svg xmlns="http://www.w3.org/2000/svg" xmlns:xlink="http://www.w3.org/1999/xlink" width="40" height="40" viewBox="0 0 40 40"><defs><path id="a" d="M0 .26h39.8V40H0z"/></defs><g fill="none" fill-rule="evenodd"><path fill="#601DC0" d="M12.093 11.2H9.506C8.512 11.2 8 11.38 8 12.247v.987c0 .868.512 1.047 1.506 1.047h.598c.369 0 .54.21.54.808v12.925c0 1.048.17 1.586.995 1.586h.966c.824 0 .995-.538.995-1.586V12.247c0-.868-.512-1.047-1.507-1.047"/><mask id="b" fill="#fff"><use xlink:href="#a"/></mask><path fill="#601DC0" d="M37.181 17.901c0 .452-.211.692-.633.692h-2.016V17.18c0-1.054-.151-1.596-1.054-1.596h-.904c-.902 0-1.053.542-1.053 1.596v1.414h-1.415c-1.053 0-1.596.151-1.596 1.054v.964c0 .903.543 1.054 1.596 1.054h1.415v1.414c0 1.054.15 1.596 1.053 1.596h.904c.903 0 1.054-.542 1.054-1.596v-1.414h2.016c.392 0 .603.21.633.601v4.577c0 1.114-.332 1.956-1.114 2.71l-6.714 6.713c-.783.782-1.656 1.144-2.74 1.144H13.187c-1.083 0-1.956-.362-2.74-1.144l-6.713-6.714c-.783-.783-1.145-1.595-1.114-2.71V13.567c0-1.114.362-2.078 1.175-2.89l6.833-6.925c.693-.692 1.566-.903 2.56-.903h13.427c.993 0 1.866.211 2.559.903l6.834 6.925c.782.812 1.174 1.776 1.174 2.89v4.335zM31.009 2.005C29.835.862 28.36.26 26.583.26H13.216c-1.776 0-3.281.603-4.425 1.746L1.716 9.05C.602 10.164 0 11.64 0 13.265v13.578c0 1.866.632 3.311 1.897 4.546l6.713 6.713c1.325 1.325 2.8 1.927 4.697 1.897h13.186c1.836 0 3.342-.542 4.697-1.897l6.713-6.713c1.234-1.235 1.897-2.71 1.897-4.546V13.265c0-1.626-.602-3.1-1.716-4.215l-7.075-7.045z" mask="url(#b)"/><path fill="#601DC0" d="M21.6 26.723c-1.886 0-2.564-.757-2.564-2.665s.678-2.786 2.564-2.786c1.886 0 2.564.878 2.564 2.786s-.678 2.665-2.564 2.665m0-13.537c1.621 0 2.27.606 2.27 2.635 0 1.968-.649 2.635-2.27 2.635s-2.27-.667-2.27-2.635c0-2.03.649-2.635 2.27-2.635m3.478 6.511c1.65-1.241 1.68-2.513 1.68-3.543v-1.03C26.58 11.703 25.46 10.4 21.6 10.4c-3.861 0-4.981 1.302-5.158 4.725v1.03c0 1.029.03 2.3 1.68 3.542-1.975.787-2.122 2.514-2.122 4.785 0 3.361 1.149 5.027 5.6 5.118 4.45-.091 5.6-1.757 5.6-5.118 0-2.271-.147-3.998-2.122-4.785"/></g></svg>