<svg width="33" height="40" viewBox="0 0 33 40" xmlns="http://www.w3.org/2000/svg"><g fill="none" fill-rule="evenodd"><path d="M3.625 5.362c8.029-2.337 16.943-2.337 24.972 0v15.456c0 7.729-10.411 15.248-12.487 15.248-2.074 0-12.485-7.518-12.485-15.248V5.362zm8.393 7.456l4.092 4.067 4.095-4.068c1.038-1.031 2.608.529 1.57 1.561l-4.094 4.068 4.094 4.068c1.038 1.033-.532 2.593-1.57 1.561l-4.095-4.068-4.092 4.068c-1.04 1.032-2.61-.53-1.571-1.56l4.093-4.069-4.093-4.068c-1.038-1.031.532-2.592 1.57-1.56z" fill="#C3C3C3"/><path d="M.7 2.678v18.358c0 3.995 2.595 8.363 6.831 12.353 3.282 3.091 7.325 5.586 8.58 5.586 1.254 0 5.297-2.495 8.58-5.586 4.235-3.99 6.83-8.359 6.83-12.353V14.74 2.679C21.59.04 10.632.04.7 2.678z" stroke="#C3C3C3" stroke-width="1.4"/></g></svg>