<?xml version="1.0" encoding="UTF-8"?>
<svg width="86px" height="24px" viewBox="0 0 86 24" version="1.1" xmlns="http://www.w3.org/2000/svg" xmlns:xlink="http://www.w3.org/1999/xlink">
    <!-- Generator: Sketch 52.4 (67378) - http://www.bohemiancoding.com/sketch -->
    <title>Group 43</title>
    <desc>Created with Sketch.</desc>
    <defs>
        <polygon id="path-1" points="0 0.159143677 20.4505879 0.159143677 20.4505879 23.5261799 0 23.5261799"></polygon>
        <polygon id="path-3" points="0.220079198 0.309511483 8.51543333 0.309511483 8.51543333 8.7991611 0.220079198 8.7991611"></polygon>
        <polygon id="path-5" points="0.112602216 0.259161006 8.54165847 0.259161006 8.54165847 8.82352941 0.112602216 8.82352941"></polygon>
        <polygon id="path-7" points="0.322373377 0.0557647059 7.33548879 0.0557647059 7.33548879 11.2393412 0.322373377 11.2393412"></polygon>
    </defs>
    <g id="ком" stroke="none" stroke-width="1" fill="none" fill-rule="evenodd">
        <g id="1440-главная-ком-новая-copy" transform="translate(-380.000000, -1300.000000)">
            <g id="Rectangle-Copy" transform="translate(260.000000, 1292.000000)">
                <g id="Group-43" transform="translate(120.000000, 8.000000)">
                    <g id="Group-3" transform="translate(0.000000, 0.297176)">
                        <mask id="mask-2" fill="white">
                            <use xlink:href="#path-1"></use>
                        </mask>
                        <g id="Clip-2"></g>
                        <path d="M7.456845,23.5142118 C5.300395,23.5142118 3.143945,23.4933882 0.988211667,23.5258588 C0.25757,23.5364471 -0.0330383333,23.2865647 0.00888666667,22.5609176 C0.0529616667,21.7936235 0.0594116667,21.0196235 0.00745333333,20.2537412 C-0.0462966667,19.4564471 0.237861667,19.1815059 1.07277833,19.1889176 C5.072495,19.2259765 9.07257,19.2104471 13.0730033,19.2030353 C14.6769033,19.2002118 15.8436367,18.2631529 15.9776533,16.9036235 C16.136395,15.2952706 15.0058533,14.0497412 13.3073533,14.0412706 C9.30727833,14.0215059 5.30720333,14.0352706 1.30677,14.0342118 C0.019995,14.0338588 0.0196366667,14.0324471 0.01892,12.7406824 C0.0182033333,12.0633882 0.06192,11.3825647 0.00745333333,10.7098588 C-0.0599133333,9.87727059 0.318845,9.64574118 1.10682,9.64997647 C5.16960333,9.67291765 9.23238667,9.65209412 13.2948117,9.66727059 C14.20892,9.6708 14.94207,9.37432941 15.4767033,8.64268235 C16.6316117,7.06221176 15.7630117,4.89868235 13.810095,4.59056471 C12.2617367,4.34597647 10.6900867,4.4928 9.13062,4.50762353 C8.39317,4.51468235 8.12012,4.3128 8.16992833,3.5688 C8.22941167,2.68009412 8.18426167,1.78468235 8.18462,0.891741176 C8.18497833,0.518329412 8.26667833,0.199623529 8.74111167,0.2148 C10.7363117,0.279388235 12.7551617,-0.0280235294 14.7252783,0.356682353 C20.4672117,1.47762353 21.575895,7.76456471 19.3004783,11.1273882 C18.9299617,11.6755059 18.9156283,12.0097412 19.2789783,12.5779765 C20.765345,14.9028 20.804045,17.3846824 19.5846367,19.7860941 C18.37347,22.1705647 16.27937,23.4245647 13.5503033,23.4962118 C11.5207033,23.5495059 9.48823667,23.5068 7.456845,23.5068 L7.456845,23.5142118 Z" id="Fill-1" fill="#DE1933" mask="url(#mask-2)"></path>
                    </g>
                    <path d="M24.2099675,5.94356471 C24.2099675,4.37368235 24.2321842,2.80309412 24.1985008,1.23391765 C24.1856008,0.629682353 24.4149342,0.391094118 25.0094092,0.405917647 C26.8824175,0.452858824 28.7593675,0.304623529 30.6284342,0.505094118 C32.7612342,0.733447059 34.0136092,2.48121176 33.4409925,4.32497647 C33.2582425,4.91262353 32.4333592,5.23874118 32.5698842,5.72827059 C32.6906425,6.16203529 33.3442425,6.47650588 33.5732175,7.00274118 C34.4332175,8.97921176 33.0694008,11.1469765 30.6707175,11.3435647 C28.7149342,11.5041529 26.7362175,11.3912118 24.7675342,11.4063882 C24.2110425,11.4106235 24.2074592,11.0463882 24.2085342,10.6535647 C24.2124758,9.08332941 24.2099675,7.51344706 24.2099675,5.94356471" id="Fill-4" fill="#DF1D32"></path>
                    <path d="M43.0331458,16.6095176 C43.5821125,16.0398706 44.1583125,15.5828118 44.9427042,15.4666941 C46.8880958,15.1779882 48.2655292,16.1771647 48.4110125,18.1384588 C48.5314125,19.7598706 48.4762292,21.3939882 48.4991625,23.0221059 C48.5056125,23.4968118 48.3325375,23.7650471 47.7864375,23.7569294 C45.3386625,23.7202235 45.7034458,24.0364588 45.6787208,21.8168118 C45.6679708,20.8638706 45.6944875,19.9098706 45.6686875,18.9569294 C45.6496958,18.2563412 45.4443708,17.6531647 44.5603625,17.6602235 C43.7469458,17.6665765 43.4961125,18.1974 43.4814208,18.8835176 C43.4538292,20.2045765 43.4230125,21.5266941 43.4480958,22.8474 C43.4606375,23.5155176 43.2456375,23.7784588 42.5350625,23.7636353 C40.3133958,23.7184588 40.7143708,23.9206941 40.6835542,21.9516353 C40.6692208,21.0290471 40.7050542,20.1057529 40.6735208,19.1842235 C40.6358958,18.0911647 40.2435208,17.6094 39.4720292,17.6630471 C38.4654708,17.7325765 38.4335792,18.4656353 38.4321458,19.2043412 C38.4299958,20.4343412 38.4106458,21.6650471 38.4400292,22.8943412 C38.4554375,23.5345765 38.1977958,23.7714 37.5549458,23.7586941 C35.3605125,23.7159882 35.5568792,24.0181059 35.5511458,21.8782235 C35.5468458,20.1865765 35.5486375,18.4952824 35.5507875,16.8039882 C35.5525792,15.5619882 35.5558042,15.5249294 36.7802292,15.5739882 C37.3220292,15.5955176 38.0720208,15.2079882 38.3174792,16.1605765 C38.3794708,16.4002235 38.5905292,16.0956353 38.7066292,16.0215176 C40.2617958,15.0294 41.7248708,15.2016353 43.0331458,16.6095176" id="Fill-6" fill="#122D66"></path>
                    <path d="M29.0145725,12.7290706 C31.1276642,12.7269529 30.7922642,12.5910706 31.4601975,14.3624824 C32.5104725,17.1478941 33.5231225,19.9470706 34.5443725,22.7430706 C34.8697392,23.6335412 34.7883975,23.7373059 33.8187475,23.7507176 C33.5069975,23.7549529 33.1895142,23.7154235 32.8834975,23.7584824 C32.1227558,23.8647176 31.6716142,23.5417765 31.5451225,22.8246 C31.4017892,22.0131882 30.9123058,21.8314235 30.1544308,21.8910706 C29.4101725,21.9503647 28.6519392,21.9584824 27.9098308,21.8882471 C27.2143058,21.8226 26.9036308,22.1014235 26.7266142,22.7208353 C26.6144558,23.1118941 26.5764725,23.6698941 26.0404058,23.7171882 C25.2710642,23.7853059 24.4798642,23.8551882 23.7212725,23.6631882 C23.4607642,23.5971882 23.4905058,23.2950706 23.5901225,23.0282471 C24.8016475,19.7794235 25.9845058,16.5200118 27.2135892,13.2775412 C27.5669058,12.3440118 28.4645308,12.8822471 29.0145725,12.7290706" id="Fill-8" fill="#122D66"></path>
                    <g id="Group-12" transform="translate(77.400000, 15.120706)">
                        <mask id="mask-4" fill="white">
                            <use xlink:href="#path-3"></use>
                        </mask>
                        <g id="Clip-11"></g>
                        <path d="M5.65747417,7.89448235 C4.29186583,8.93954118 2.89257417,9.07965882 1.4814575,8.31236471 C-0.2062925,7.39436471 -0.187300833,5.3586 1.4599575,4.36930588 C2.4500325,3.7746 3.57699083,3.69165882 4.67384917,3.48342353 C5.0397075,3.41389412 5.65174083,3.62954118 5.54352417,2.87424706 C5.44354917,2.17789412 4.94904917,2.07977647 4.37392417,2.13942353 C4.1979825,2.15812941 3.9926575,2.22836471 3.8679575,2.34483529 C3.18174917,2.98718824 2.3393075,2.91518824 1.49794083,2.90918824 C0.719640833,2.90389412 0.6494075,2.51742353 0.957574167,1.96083529 C1.51334917,0.957776471 2.46651583,0.510247059 3.55334083,0.374364706 C4.2581825,0.285776471 4.99097417,0.291776471 5.6986825,0.369070588 C7.4176075,0.556835294 8.4646575,1.69295294 8.5001325,3.38283529 C8.53059083,4.85671765 8.49009917,6.33201176 8.5151825,7.80624706 C8.5248575,8.39424706 8.3066325,8.66636471 7.6992575,8.63389412 C7.3262325,8.61412941 6.95034083,8.61801176 6.5769575,8.63354118 C6.0663325,8.65507059 5.64994917,8.56365882 5.65747417,7.89448235" id="Fill-10" fill="#122D66" mask="url(#mask-4)"></path>
                    </g>
                    <path d="M54.57259,20.4264 C53.9164817,20.4267529 53.260015,20.4447529 52.6049817,20.4207529 C52.11729,20.4027529 51.9252233,20.5047529 52.0900567,21.0447529 C52.3885483,22.0234588 53.2134317,22.3569882 54.014665,21.7068706 C54.9420317,20.9547529 55.9794067,21.3348706 56.9723483,21.3546353 C57.36544,21.3624 57.2640317,21.7728706 57.1518733,22.0202824 C56.9157317,22.5405176 56.5083067,22.9248706 56.0134483,23.2086353 C54.610215,24.0133412 53.1231317,24.1308706 51.5908983,23.6621647 C50.1711817,23.2280471 49.34379,22.2535765 49.14169,20.8107529 C48.9370817,19.3516941 48.938515,17.9081647 49.9988233,16.7039294 C51.133665,15.4153412 53.4226983,15.0062824 55.1932233,15.7488706 C56.676365,16.3711059 57.5947733,17.9738118 57.4980233,19.7409882 C57.4704317,20.2411059 57.23859,20.4486353 56.727965,20.4320471 C56.0102233,20.4087529 55.2910483,20.4264 54.57259,20.4264" id="Fill-13" fill="#122D66"></path>
                    <path d="M40.1480967,8.11083529 C39.4608133,8.11154118 38.7720967,8.13836471 38.0862467,8.10342353 C37.5154217,8.07448235 37.4656133,8.32224706 37.6032133,8.77154118 C37.9002717,9.73930588 38.7387717,10.0216588 39.5450217,9.38248235 C40.4670133,8.65154118 41.5119133,9.04048235 42.509155,9.03730588 C42.7560467,9.0366 42.8148133,9.33765882 42.728455,9.55507059 C42.6385133,9.7806 42.5245633,10.0170706 42.3582967,10.1900118 C40.96008,11.6455412 39.217505,11.8417765 37.3538133,11.4164824 C35.69688,11.0384824 34.855155,9.91048235 34.5967967,8.29789412 C34.0130717,4.66083529 36.7478717,2.24742353 40.2810383,3.2886 C42.09098,3.82224706 43.3071633,5.81601176 42.967105,7.63577647 C42.8882717,8.05648235 42.6352883,8.10730588 42.3041883,8.10907059 C41.5853717,8.11224706 40.8669133,8.11012941 40.1480967,8.11083529" id="Fill-15" fill="#DF1D32"></path>
                    <g id="Group-19" transform="translate(68.441667, 15.120706)">
                        <mask id="mask-6" fill="white">
                            <use xlink:href="#path-5"></use>
                        </mask>
                        <g id="Clip-18"></g>
                        <path d="M7.21031167,3.55044706 C6.401195,3.48868235 5.67198667,3.60974118 5.19970333,2.82903529 C4.72491167,2.04444706 3.49260333,2.35150588 3.24607,3.27021176 C3.02103667,4.10950588 3.04970333,4.98232941 3.23747,5.82903529 C3.335295,6.27127059 3.65277833,6.57868235 4.15086167,6.63338824 C4.648945,6.68809412 5.06210333,6.58432941 5.360595,6.13115294 C5.72072,5.58444706 7.74530333,5.20644706 8.29283667,5.56856471 C8.66872833,5.81668235 8.53865333,6.17774118 8.41825333,6.48232941 C8.020145,7.49315294 7.23288667,8.12209412 6.22668667,8.48456471 C5.01552,8.9208 3.77998667,8.94056471 2.56237,8.51738824 C1.17633667,8.03562353 0.348586667,7.08232941 0.185903333,5.61656471 C0.15222,5.31197647 0.12427,5.00597647 0.116386667,4.69997647 C0.0751783333,3.11985882 0.350378333,1.64174118 1.94245333,0.858564706 C3.67248667,0.00762352941 5.42903667,0.0535058824 7.110695,1.05515294 C7.37335333,1.21185882 7.61881167,1.41938824 7.82091167,1.64738824 C8.23550333,2.11397647 8.71316167,2.67056471 8.445845,3.28397647 C8.27635333,3.67362353 7.71377,3.48868235 7.21031167,3.55044706" id="Fill-17" fill="#122D66" mask="url(#mask-6)"></path>
                    </g>
                    <g id="Group-22" transform="translate(43.000000, 0.297176)">
                        <mask id="mask-8" fill="white">
                            <use xlink:href="#path-7"></use>
                        </mask>
                        <g id="Clip-21"></g>
                        <path d="M5.71960917,11.2393412 C5.2856675,11.2040471 4.84778417,11.1927529 4.41850083,11.1288706 C2.95327583,10.9114588 2.13233417,10.0668706 2.03450917,8.61451765 C1.97502583,7.72651765 1.97000917,6.83145882 2.00763417,5.94204706 C2.0316425,5.37028235 1.8370675,5.14722353 1.26588417,5.22734118 C0.398000833,5.34875294 0.320959167,4.83981176 0.3223925,4.16181176 C0.324184167,3.46898824 0.3600175,2.89087059 1.29025083,3.01475294 C1.89440083,3.09522353 2.0638925,2.82522353 2.00118417,2.28028235 C1.9660675,1.97675294 1.99437583,1.66616471 1.99473417,1.35875294 C1.9961675,0.0564 1.9961675,0.0564 3.34887583,0.0556941176 C4.80872583,0.0553411765 4.80872583,0.0553411765 4.80872583,1.54404706 C4.80872583,2.99004706 4.81087583,3.04545882 6.15928417,2.99251765 C7.12212583,2.95475294 7.1927175,3.43016471 7.21278417,4.18298824 C7.23500083,5.00357647 6.9454675,5.31804706 6.12990083,5.20334118 C5.88480083,5.16910588 5.6285925,5.22028235 5.38205917,5.19381176 C4.92948417,5.14510588 4.77970083,5.32651765 4.80120083,5.76628235 C4.8320175,6.4104 4.80048417,7.05698824 4.8105175,7.70251765 C4.82735917,8.74510588 5.00580917,8.96428235 6.08833417,8.90392941 C7.00100917,8.85345882 7.39983417,9.08604706 7.3270925,10.0675765 C7.24288417,11.2047529 7.30845917,11.2096941 5.71960917,11.2393412" id="Fill-20" fill="#DF1D32" mask="url(#mask-8)"></path>
                    </g>
                    <path d="M5.55405917,3.9426 C5.55370083,4.83448235 5.5479675,5.72671765 5.55585083,6.6186 C5.56050917,7.15612941 5.3243675,7.38977647 4.76070917,7.37989412 C3.44920917,7.35695294 2.13735083,7.35977647 0.826209167,7.37848235 C0.270075833,7.3866 0.0188841667,7.15154118 0.0192425,6.61648235 C0.0210341667,4.83236471 0.0185258333,3.0486 0.0210341667,1.26483529 C0.0217508333,0.738247059 0.289425833,0.475658824 0.8319425,0.477776471 C2.1434425,0.482717647 3.4549425,0.487305882 4.7664425,0.478129412 C5.3222175,0.473894118 5.5597925,0.736835294 5.55585083,1.2666 C5.54975917,2.15848235 5.55405917,3.05071765 5.55405917,3.9426" id="Fill-23" fill="#122B66"></path>
                    <path d="M60.9731042,16.4115176 C61.8194875,15.7211647 62.6819958,15.5415176 63.6158125,15.5506941 C64.1590458,15.5559882 64.4467875,15.7374 64.3736875,16.3088118 C64.3622208,16.3998706 64.3726125,16.4934 64.3722542,16.5858706 C64.3672375,18.2503412 64.5059125,18.0805765 62.8733458,18.0862235 C61.3998792,18.0908118 61.0755875,18.4091647 61.0659125,19.8848118 C61.0591042,20.9002235 61.0469208,21.9163412 61.0709292,22.9317529 C61.0849042,23.5119882 60.8774292,23.7685765 60.2564375,23.7590471 C57.7029542,23.7198706 58.1540958,24.0071647 58.1257875,21.7486941 C58.1042875,20.0252824 58.1662792,18.2997529 58.1024958,16.5784588 C58.0709625,15.7324588 58.4024208,15.4730471 59.1860958,15.5521059 C59.4641625,15.5806941 59.7486792,15.5708118 60.0288958,15.5542235 C60.5764292,15.5217529 60.9516042,15.6929294 60.9731042,16.4115176" id="Fill-25" fill="#122D66"></path>
                    <path d="M67.8743175,19.6588235 C67.8743175,20.7010588 67.8449342,21.7443529 67.8843508,22.7848235 C67.9112258,23.4914118 67.6621842,23.7797647 66.9182842,23.7628235 C64.8553592,23.7151765 64.9904508,23.9901176 64.9911675,21.8950588 C64.9918842,20.0865882 65.0087258,18.2777647 64.9825675,16.4696471 C64.9728925,15.8025882 65.2201425,15.5414118 65.9085008,15.5467059 C68.3021675,15.5643529 67.8352592,15.4732941 67.8721675,17.4518824 C67.8857842,18.1874118 67.8743175,18.9232941 67.8743175,19.6588235" id="Fill-27" fill="#132E67"></path>
                    <path d="M66.4572525,12.1729412 C67.8235775,12.1729412 68.2413942,12.7365882 67.8576192,14.0396471 C67.7511942,14.4 67.5003608,14.5129412 67.1610192,14.5157647 C66.6959025,14.5192941 66.2300692,14.5062353 65.7649525,14.52 C65.2640025,14.5348235 65.0464942,14.3022353 64.9891608,13.8190588 C64.8178775,12.3765882 64.9888025,12.1729412 66.4572525,12.1729412" id="Fill-29" fill="#183168"></path>
                    <path d="M27.3102317,9.05834118 C27.1446817,8.42692941 27.3177567,6.99787059 27.33854,6.97775294 C27.7925483,6.53445882 30.2456983,6.98304706 30.5094317,7.55728235 C30.83444,8.26457647 30.4718067,9.03857647 29.6924317,9.21187059 C29.30149,9.29869412 27.438515,9.54716471 27.3102317,9.05834118" id="Fill-31" fill="#FEFDFD"></path>
                    <path d="M27.2767992,4.58590588 C27.0893908,4.03778824 27.2316492,3.37955294 27.2402492,2.76825882 C27.2409658,2.72025882 27.2954325,2.66202353 27.3398658,2.62708235 C27.7017825,2.34402353 29.8908408,2.65002353 30.1721325,3.01955294 C30.6605408,3.66296471 30.3097325,4.58167059 29.4934492,4.72708235 C29.1627075,4.78602353 27.4161908,4.9932 27.2767992,4.58590588" id="Fill-33" fill="#FDFCFC"></path>
                    <path d="M29.1398458,15.6196235 C29.5522875,16.7878588 29.8418208,17.7556235 30.2370625,18.6796235 C30.5581292,19.4310353 30.3029958,19.5739765 29.5920625,19.5139765 C29.0387958,19.4673882 28.4780042,19.5048 27.7645625,19.5048 C28.2174958,18.2243294 28.6453458,17.0169176 29.1398458,15.6196235" id="Fill-35" fill="#FAFAFB"></path>
                    <path d="M82.9390092,20.3412353 C83.4926342,20.7005294 82.7795508,21.5331176 82.1628592,21.8514706 C81.9790342,21.9467647 81.7461175,21.9495882 81.6465008,21.9711176 C81.0366175,21.9594706 80.5406842,21.8966471 80.4597008,21.3111176 C80.3858842,20.7767647 80.8094342,20.5780588 81.2501842,20.445 C81.2501842,20.445 82.5856925,20.1121765 82.9390092,20.3412353" id="Fill-37" fill="#FBFBFC"></path>
                    <path d="M52.0507833,18.4304118 C51.9769667,17.7552353 52.6205333,17.1944118 53.286675,17.2307647 C54.02735,17.271 54.4878083,17.7365294 54.4333417,18.4060588 C54.3649,19.2439412 52.1392917,19.2432353 52.0507833,18.4304118" id="Fill-39" fill="#FAFBFC"></path>
                    <path d="M37.5795992,6.08230588 C37.5448408,5.44383529 37.9612242,4.91724706 38.7527825,4.91371765 C39.4139075,4.91124706 40.0384825,5.44701176 39.9553492,6.06077647 C39.8428325,6.88983529 37.6243908,6.90465882 37.5795992,6.08230588" id="Fill-41" fill="#FDFCFC"></path>
                </g>
            </g>
        </g>
    </g>
</svg>