<svg xmlns="http://www.w3.org/2000/svg" xmlns:xlink="http://www.w3.org/1999/xlink" viewBox="0 0 86 24"><defs><mask id="a" x="0" y="0.46" width="20.45" height="23.37" maskUnits="userSpaceOnUse"><polygon points="0 0.46 20.45 0.46 20.45 23.82 0 23.82 0 0.46" fill="#fff" fill-rule="evenodd"/></mask><mask id="b" x="77.62" y="15.43" width="8.3" height="8.49" maskUnits="userSpaceOnUse"><polygon points="77.62 15.43 85.92 15.43 85.92 23.92 77.62 23.92 77.62 15.43" fill="#fff" fill-rule="evenodd"/></mask><mask id="c" x="68.55" y="15.38" width="8.43" height="8.56" maskUnits="userSpaceOnUse"><polygon points="68.55 15.38 76.98 15.38 76.98 23.94 68.55 23.94 68.55 15.38" fill="#fff" fill-rule="evenodd"/></mask><mask id="d" x="43.32" y="0.35" width="7.01" height="11.18" maskUnits="userSpaceOnUse"><polygon points="43.32 0.35 50.34 0.35 50.34 11.54 43.32 11.54 43.32 0.35" fill="#fff" fill-rule="evenodd"/></mask></defs><title>betamerica</title><g mask="url(#a)"><path d="M7.46,23.81c-2.16,0-4.32,0-6.47,0-.73,0-1-.24-1-1a19.78,19.78,0,0,0,0-2.31c-.06-.8.23-1.07,1.06-1.06,4,0,8,0,12,0A2.68,2.68,0,0,0,16,17.2a2.54,2.54,0,0,0-2.67-2.86c-4,0-8,0-12,0C0,14.33,0,14.33,0,13c0-.68,0-1.36,0-2-.07-.84.31-1.07,1.1-1.06,4.06,0,8.12,0,12.18,0a2.5,2.5,0,0,0,2.19-1,2.54,2.54,0,0,0-1.67-4A28.12,28.12,0,0,0,9.13,4.8c-.74,0-1-.19-1-.93s0-1.79,0-2.68c0-.37.09-.69.56-.68,2,.07,4-.24,6,.14,5.74,1.12,6.85,7.41,4.57,10.77a1.11,1.11,0,0,0,0,1.46,6.89,6.89,0,0,1,.3,7.2,6.55,6.55,0,0,1-6,3.71c-2,.06-4.06,0-6.09,0Z" fill="#de1933" fill-rule="evenodd"/></g><path d="M24.21,5.94c0-1.57,0-3.14,0-4.71,0-.6.21-.84.81-.82,1.87,0,3.75-.11,5.62.1a3,3,0,0,1,2.81,3.81c-.18.59-1,.92-.87,1.41s.77.75,1,1.27a3.14,3.14,0,0,1-2.9,4.34c-2,.16-3.93.05-5.9.07-.56,0-.56-.36-.56-.76V5.94" fill="#df1d32" fill-rule="evenodd"/><path d="M43,16.61a3.31,3.31,0,0,1,1.91-1.14,2.75,2.75,0,0,1,3.47,2.67c.12,1.62.07,3.25.09,4.88,0,.48-.17.75-.71.74-2.45,0-2.09.28-2.11-1.94,0-1,0-1.91,0-2.86,0-.7-.23-1.31-1.11-1.3s-1.06.54-1.08,1.22c0,1.32-.06,2.65,0,4,0,.67-.2.93-.91.91-2.23,0-1.83.16-1.86-1.81,0-.92,0-1.84,0-2.77,0-1.09-.43-1.57-1.2-1.52-1,.07-1,.81-1,1.54,0,1.23,0,2.47,0,3.69,0,.64-.24.88-.89.87-2.19,0-2,.26-2-1.88V16.8c0-1.24,0-1.28,1.23-1.23.54,0,1.29-.36,1.54.59.06.24.27-.06.39-.14a3.08,3.08,0,0,1,4.32.59" fill="#122d66" fill-rule="evenodd"/><path d="M29,12.73c2.12,0,1.78-.14,2.45,1.63,1,2.79,2.06,5.59,3.08,8.38.33.89.25,1-.72,1a7.37,7.37,0,0,0-.94,0,1,1,0,0,1-1.33-.94c-.15-.81-.64-1-1.4-.93a12.89,12.89,0,0,1-2.24,0,1,1,0,0,0-1.18.83c-.12.39-.15,1-.69,1a6.7,6.7,0,0,1-2.32-.06c-.26-.06-.23-.36-.13-.63,1.21-3.25,2.39-6.51,3.62-9.75.36-.94,1.25-.4,1.8-.55" fill="#122d66" fill-rule="evenodd"/><g mask="url(#b)"><path d="M83.06,23a3.59,3.59,0,0,1-4.18.41,2.18,2.18,0,0,1,0-3.94,9.49,9.49,0,0,1,3.21-.89c.37-.07,1,.15.87-.61s-.59-.79-1.17-.73a.9.9,0,0,0-.5.21A3.09,3.09,0,0,1,78.9,18c-.78,0-.85-.39-.54-1A3.2,3.2,0,0,1,81,15.5a9.1,9.1,0,0,1,2.15,0,2.92,2.92,0,0,1,2.8,3c0,1.48,0,2.95,0,4.43,0,.58-.21.86-.82.82-.37,0-.75,0-1.12,0s-.93-.07-.92-.73" fill="#122d66" fill-rule="evenodd"/></g><path d="M54.57,20.43c-.65,0-1.31,0-2,0-.48,0-.67.08-.51.62.3,1,1.12,1.32,1.92.67s2-.38,3-.36c.4,0,.29.42.18.67A2.62,2.62,0,0,1,56,23.21a5.39,5.39,0,0,1-4.42.45,3.27,3.27,0,0,1-2.45-2.85A4.82,4.82,0,0,1,50,16.7a4.8,4.8,0,0,1,5.19-.95,4,4,0,0,1,2.31,4c0,.5-.26.71-.77.69-.72,0-1.44,0-2.16,0" fill="#122d66" fill-rule="evenodd"/><path d="M40.15,8.11c-.69,0-1.38,0-2.06,0s-.62.22-.49.67a1.14,1.14,0,0,0,1.95.61c.92-.73,2-.34,3-.34.25,0,.3.3.22.52a2.09,2.09,0,0,1-.37.63,4.94,4.94,0,0,1-5,1.23A3.45,3.45,0,0,1,34.6,8.3c-.59-3.64,2.15-6.05,5.68-5A4,4,0,0,1,43,7.64c-.08.42-.33.47-.67.47H40.15" fill="#df1d32" fill-rule="evenodd"/><g mask="url(#c)"><path d="M75.65,18.67c-.81-.06-1.54.06-2-.72a1.1,1.1,0,0,0-2,.44,5.28,5.28,0,0,0,0,2.56,1,1,0,0,0,.91.8,1.13,1.13,0,0,0,1.21-.5,3.4,3.4,0,0,1,2.93-.56c.38.25.25.61.13.91a3.52,3.52,0,0,1-2.19,2,5.44,5.44,0,0,1-3.67,0,3.28,3.28,0,0,1-2.37-2.9c0-.31-.06-.61-.07-.92,0-1.58.23-3.06,1.82-3.84a5.14,5.14,0,0,1,5.17.2,2.69,2.69,0,0,1,.71.59c.42.46.89,1,.63,1.63-.17.39-.73.21-1.24.27" fill="#122d66" fill-rule="evenodd"/></g><g mask="url(#d)"><path d="M48.72,11.54c-.43,0-.87,0-1.3-.11A2.53,2.53,0,0,1,45,8.91a26.42,26.42,0,0,1,0-2.67c0-.57-.17-.8-.74-.72-.87.13-1-.38-1-1.06s0-1.27,1-1.15c.6.08.77-.19.71-.73,0-.31,0-.62,0-.92C45,.35,45,.35,46.35.35s1.46,0,1.46,1.49,0,1.5,1.35,1.45c1,0,1,.44,1.05,1.19s-.26,1.14-1.08,1c-.25,0-.5,0-.75,0-.45,0-.6.13-.58.57,0,.65,0,1.29,0,1.94,0,1,.2,1.26,1.28,1.2.91,0,1.31.18,1.24,1.16-.09,1.14,0,1.15-1.61,1.18" fill="#df1d32" fill-rule="evenodd"/></g><path d="M5.55,3.94c0,.89,0,1.79,0,2.68,0,.54-.24.77-.8.76q-2,0-3.93,0C.27,7.39,0,7.15,0,6.62V1.26Q0,.48.83.48c1.31,0,2.62,0,3.94,0,.55,0,.79.26.79.79,0,.89,0,1.78,0,2.67" fill="#122b66" fill-rule="evenodd"/><path d="M61,16.41a3.86,3.86,0,0,1,2.65-.86c.54,0,.83.19.75.76a2.61,2.61,0,0,0,0,.28c0,1.66.14,1.49-1.5,1.5-1.47,0-1.79.32-1.8,1.79,0,1,0,2,0,3.05,0,.58-.19.84-.81.83-2.56,0-2.11.25-2.13-2,0-1.72,0-3.45,0-5.17,0-.85.3-1.11,1.09-1a4.71,4.71,0,0,0,.84,0c.55,0,.92.14.94.86" fill="#122d66" fill-rule="evenodd"/><path d="M67.87,19.66c0,1,0,2.08,0,3.12,0,.71-.22,1-1,1C64.86,23.72,65,24,65,21.9c0-1.81,0-3.62,0-5.43,0-.67.24-.93.93-.92,2.39,0,1.93-.08,2,1.9,0,.74,0,1.47,0,2.21" fill="#132e67" fill-rule="evenodd"/><path d="M66.46,12.17c1.36,0,1.78.57,1.4,1.87a.65.65,0,0,1-.7.48h-1.4c-.5,0-.71-.22-.77-.7-.17-1.44,0-1.65,1.47-1.65" fill="#183168" fill-rule="evenodd"/><path d="M27.31,9.06a7,7,0,0,1,0-2.08c.45-.45,2.91,0,3.17.58a1.16,1.16,0,0,1-.82,1.65c-.39.09-2.25.34-2.38-.15" fill="#fefdfd" fill-rule="evenodd"/><path d="M27.28,4.59a5.52,5.52,0,0,1,0-1.82s.06-.11.1-.14A4.22,4.22,0,0,1,30.17,3a1.07,1.07,0,0,1-.68,1.71c-.33.06-2.07.26-2.21-.14" fill="#fdfcfc" fill-rule="evenodd"/><path d="M29.14,15.62c.41,1.17.7,2.14,1.1,3.06.32.75.06.89-.65.83-.55,0-1.11,0-1.83,0,.46-1.28.89-2.48,1.38-3.88" fill="#fafafb" fill-rule="evenodd"/><path d="M82.94,20.34c.55.36-.16,1.19-.78,1.51a1.52,1.52,0,0,1-.51.12c-.61,0-1.11-.07-1.19-.66s.35-.73.79-.87c0,0,1.34-.33,1.69-.1" fill="#fbfbfc" fill-rule="evenodd"/><path d="M52.05,18.43a1.16,1.16,0,0,1,1.24-1.2,1.07,1.07,0,0,1,1.14,1.18c-.07.83-2.29.83-2.38,0" fill="#fafbfc" fill-rule="evenodd"/><path d="M37.58,6.08a1.08,1.08,0,0,1,1.17-1.17A1.15,1.15,0,0,1,40,6.06c-.12.83-2.34.84-2.38,0" fill="#fdfcfc" fill-rule="evenodd"/></svg>