<svg xmlns="http://www.w3.org/2000/svg" viewBox="0 0 120.49 18.39"><title>Монтажная область 1</title><path d="M28,8.22a10.48,10.48,0,0,1,2.29-3.65c2.65-2.43,6-2.38,8.86-1.13a.8.8,0,0,1,.47.68,7.32,7.32,0,0,1,.12.94c0,.43.31,1.13-.07,1.25s-.42-.61-.62-1c-1.5-2.57-5.85-2.88-7.9-.54-2.54,2.9-1.37,8.38,2.13,10a4.9,4.9,0,0,0,3.26.32,3.53,3.53,0,0,0,2.93-2.68c0-.17.06-.37.3-.33s.17.25.16.41,0,.29,0,.43c-.25,2.17-.44,2.46-2.57,2.81-2.87.47-5.57.15-7.74-2.11A10.35,10.35,0,0,1,28,10.81Z" fill="#cc151d" fill-rule="evenodd"/><path d="M100.62,6.43h0v.86c0,2.27.22,2.43,2.47,1.86a2.53,2.53,0,0,0,2.06-3.41,3.44,3.44,0,0,0-4.12-2.33c-.32.09-.28.31-.3.52-.05.84-.09,1.67-.14,2.5m.29-3.61a13.68,13.68,0,0,1,3.32.22c1.28.34,2.51.8,2.76,2.33a3.25,3.25,0,0,1-1.77,3.53c-.86.49-.75.87-.37,1.56a12.43,12.43,0,0,0,3.74,4.31,3.71,3.71,0,0,0,1.72.72c.15,0,.3.06.3.23s-.18.24-.37.23a7.36,7.36,0,0,1-5.33-2.35,7.93,7.93,0,0,1-1.75-3c-.18-.59-.45-.71-1-.66-1.48.13-1.49.09-1.48,1.59,0,.78,0,1.55.07,2.33s.36,1.31,1.23,1.33c.21,0,.55,0,.54.26s-.35.19-.55.17a24.36,24.36,0,0,0-4.27,0c-.19,0-.46.12-.48-.18s.26-.26.45-.27c1,0,1.27-.6,1.27-1.46,0-2.94,0-5.88,0-8.81,0-1.2-.23-1.37-1.43-1.37-.16,0-.38.1-.44-.13s.19-.3.38-.33a20.51,20.51,0,0,1,3.5-.22" fill="#cc151d" fill-rule="evenodd"/><path d="M58.93,3a7.58,7.58,0,0,1,2.23,0,57.1,57.1,0,0,0,6.41-.06c.47,0,.81,0,.61.6a2.25,2.25,0,0,0,0,.52c0,.24.13.59-.13.71s-.32-.3-.45-.47a1.47,1.47,0,0,0-1.14-.5c-1-.05-2,0-3-.1-.45,0-.63.17-.63.59,0,1.35,0,2.7,0,4,0,.29.11.43.4.42,1,0,1.94,0,2.91-.08a1,1,0,0,0,.54-.19c.15-.11.14-.45.4-.35s.09.39.1.6a1.74,1.74,0,0,1-.06.51c-.09.29.24.71-.12.86s-.26-.41-.53-.54a3.82,3.82,0,0,0-1.67-.25c-2,0-2,0-2,1.93a15.9,15.9,0,0,0,.1,2.67c.11.63.4,1,1.08,1,.85,0,1.71,0,2.56,0s1.56-.19,1.75-1.18c0-.13.1-.3.27-.27s.18.25.16.41,0,.06,0,.09c-.23,1.81-.24,1.83-2,1.75a63.9,63.9,0,0,0-6.92,0c-.22,0-.61.17-.63-.21s.39-.24.62-.27c1-.15,1.29-.41,1.29-1.46,0-3,0-5.93,0-8.89,0-.89-.38-1.41-1.31-1.46a.83.83,0,0,1-.8-.37" fill="#cc151d" fill-rule="evenodd"/><path d="M51,10.05,49.22,5.23l-2.1,4.82Zm-2,.56c-1.75-.49-2.55.43-3,2-.1.39-.3.74-.43,1.12-.35,1-.31,1.09.7,1.43.14,0,.29.11.28.26s-.22.21-.39.19a11.27,11.27,0,0,0-3.07,0c-.14,0-.3.05-.35-.14s.06-.27.22-.29c1.12-.2,1.57-1.08,2-2,1.48-3.26,2.93-6.53,4.4-9.8.11-.25.12-.64.46-.65s.4.42.5.69c1.15,3,2.26,6,3.43,9,.48,1.23.85,2.64,2.55,2.77a.21.21,0,0,1,.2.23c0,.19-.18.19-.33.18a22.2,22.2,0,0,0-4.61,0c-.14,0-.31,0-.35-.15s.15-.26.32-.31c1.14-.31,1.16-.33.8-1.48-.09-.3-.2-.59-.32-.89-.26-.69-.35-1.64-.85-2S49.7,10.64,49,10.61Z" fill="#cc151d" fill-rule="evenodd"/><path d="M87.89,5.21c-.68,1.55-1.28,3-1.91,4.36-.21.47,0,.52.39.52h3.27L87.89,5.21m-.2,5.43c-2.19,0-2.2,0-3.07,2.08-.18.42-.33.85-.49,1.28-.24.63-.16,1.08.62,1.14.2,0,.47,0,.45.28s-.3.17-.48.15a12.78,12.78,0,0,0-2.9,0c-.16,0-.36.1-.43-.13s.07-.27.22-.3c1.19-.2,1.62-1.18,2-2.12,1.43-3.16,2.84-6.33,4.26-9.5,0-.13.11-.26.17-.39s.13-.4.37-.42.33.26.41.46c.95,2.49,1.89,5,2.84,7.48.36.94.71,1.88,1.1,2.8a2.3,2.3,0,0,0,2,1.7c.15,0,.38,0,.36.27s-.25.18-.41.17a22,22,0,0,0-4.44,0c-.16,0-.38.1-.42-.15s.2-.27.39-.3c1-.2,1.07-.29.78-1.24s-.7-1.88-1-2.83a.6.6,0,0,0-.71-.45c-.54,0-1.08,0-1.62,0" fill="#cc151d" fill-rule="evenodd"/><path d="M76.61,2.57c.32,0,.69.06,1.06.13C79,2.93,79.5,3.57,79.36,5c0,.17,0,.38-.2.43s-.27-.21-.34-.39a2.52,2.52,0,0,0-3.36-1.6,1.94,1.94,0,0,0-.94,3.13,5,5,0,0,0,1.37,1.17c.72.45,1.48.86,2.17,1.36a3.43,3.43,0,0,1,1.46,4.27,3.94,3.94,0,0,1-4,2.58,6,6,0,0,1-2.67-.8,1.23,1.23,0,0,1-.68-1.42c.06-.36,0-.74.11-1.11,0-.19-.12-.55.22-.55s.24.34.29.55a3,3,0,0,0,3.82,2.57A2.19,2.19,0,0,0,78,11.61a4.91,4.91,0,0,0-1.47-1.29c-.73-.45-1.47-.88-2.19-1.35a3.18,3.18,0,0,1-1.6-3.51A3.75,3.75,0,0,1,76,2.63l.64-.06" fill="#cc151d" fill-rule="evenodd"/><path d="M112.93,13.75c.06-.61.09-1,.14-1.41,0-.13,0-.31.2-.32s.19.15.23.29a7.7,7.7,0,0,0,.3,1.07,3.07,3.07,0,0,0,4.44,1.42,2.25,2.25,0,0,0,.35-3.39,6.63,6.63,0,0,0-1.68-1.31c-.66-.41-1.33-.8-2-1.23a3.13,3.13,0,0,1-1.46-3.42,3.78,3.78,0,0,1,3-2.79,5.59,5.59,0,0,1,1.87,0c1.42.24,1.82.75,1.75,2.2,0,.2,0,.45-.22.5s-.28-.27-.31-.42a2.53,2.53,0,0,0-3.48-1.53,1.93,1.93,0,0,0-.92,2.92,4.51,4.51,0,0,0,1.52,1.36c.77.49,1.58.93,2.31,1.47A3.27,3.27,0,0,1,120.32,13a3.81,3.81,0,0,1-3.14,2.8,5.32,5.32,0,0,1-3.23-.56c-.72-.37-1.26-.81-1-1.53" fill="#cc151d" fill-rule="evenodd"/><path d="M6.35,0a4.83,4.83,0,0,1,.44,1.38,2.53,2.53,0,0,1-.82,2A14.49,14.49,0,0,0,4.09,5.61c0-.9-.16-1.78-.07-2.67A3,3,0,0,1,5.11,1C5.48.61,5.88.31,6.27,0Z" fill-rule="evenodd"/><path d="M15.43,0a4.66,4.66,0,0,0,.8.67A3.43,3.43,0,0,1,17.62,4c-.07.53,0,1.07-.07,1.67a10.1,10.1,0,0,0-1.8-2.21,2.59,2.59,0,0,1-.87-2.31A11.28,11.28,0,0,1,15.27,0Z" fill-rule="evenodd"/><path d="M6.67,16c-.64,0-1.25,0-1.87.07a3,3,0,0,1-2.58-.92,10.53,10.53,0,0,1-1-1.21c-.09-.13-.13-.21.05-.3a2.36,2.36,0,0,1,2.86.19c.28.22.53.47.79.72A11.14,11.14,0,0,0,6.67,16" fill-rule="evenodd"/><path d="M18.89,9.44a30.92,30.92,0,0,0-.62-3.61,2.48,2.48,0,0,1,1.35-2.34c.11-.07.14,0,.2.07.73,1.53,1.09,3-.1,4.54a8.61,8.61,0,0,0-.83,1.34" fill-rule="evenodd"/><path d="M14.84,16a8.89,8.89,0,0,0,1.81-1.47,3.74,3.74,0,0,1,1.88-1.24,2.8,2.8,0,0,1,1.81.38c.07,0,.11.06.07.17a4.06,4.06,0,0,1-3.27,2.25c-.77,0-1.53-.1-2.3-.09" fill-rule="evenodd"/><path d="M11.42,16.76a14.83,14.83,0,0,0,2.75-.51,2.49,2.49,0,0,1,3.17,1.36,4.75,4.75,0,0,1-3.39.64A3.09,3.09,0,0,1,13,17.8c-.54-.35-1-.73-1.62-1" fill-rule="evenodd"/><path d="M2.74,9.4A10.09,10.09,0,0,0,1.84,8a3.36,3.36,0,0,1-.42-3.41c.12-.31.26-.61.37-.92s.17-.19.34-.09A2.5,2.5,0,0,1,3.28,6.47c-.12.49-.24,1-.35,1.47A10.23,10.23,0,0,0,2.74,9.4" fill-rule="evenodd"/><path d="M17.69,12.77a16.68,16.68,0,0,0,.93-2.71,2.44,2.44,0,0,1,2.42-2c.28,0,.33.07.3.33A10.23,10.23,0,0,1,21,10a3,3,0,0,1-1.49,1.86c-.61.32-1.25.59-1.86,1" fill-rule="evenodd"/><path d="M10.42,16.77a17.4,17.4,0,0,0-1.69,1.09A3,3,0,0,1,6,18.23c-.39-.12-.76-.3-1.15-.42s-.39-.24-.16-.56a2.43,2.43,0,0,1,2.75-1,15.47,15.47,0,0,0,3,.56" fill-rule="evenodd"/><path d="M3.64,12.84A5.69,5.69,0,0,0,2.18,12,3.38,3.38,0,0,1,.12,9.19c0-.3-.06-.6-.11-.9s0-.24.2-.23a2.38,2.38,0,0,1,2.28,1.4A11.8,11.8,0,0,1,3,10.88a7.54,7.54,0,0,0,.66,1.73c0,.07.08.14,0,.23" fill-rule="evenodd"/><path d="M11.42,16.57a4.31,4.31,0,0,0,1.79-1.94,3.08,3.08,0,0,1,1.41-1.33c.21-.09.31-.11.29.18a5.12,5.12,0,0,1-.16,1.29,2.32,2.32,0,0,1-2.35,1.74l-1,.06" fill-rule="evenodd"/><path d="M3.42,10a11.82,11.82,0,0,1,.12-1.57A2.28,2.28,0,0,1,5.73,6.39l.63,0c.43,0,.45,0,.26.4a2.86,2.86,0,0,1-1,1.14c-.29.2-.59.39-.9.58A3.11,3.11,0,0,0,3.42,10" fill-rule="evenodd"/><path d="M5.36,8.64a2.7,2.7,0,0,1-.23,1.85c-.12.27-.26.54-.41.81a2.91,2.91,0,0,0-.43,2A2.8,2.8,0,0,1,5.36,8.64" fill-rule="evenodd"/><path d="M7.15,15.49C5,14.37,4.59,13,5.85,10.94a2.57,2.57,0,0,1,.74,1.68c0,.34,0,.68,0,1a3.55,3.55,0,0,0,.51,1.84" fill-rule="evenodd"/><path d="M18.13,9.93a3,3,0,0,0-1.38-1.56,6.89,6.89,0,0,1-1.22-.86,2.45,2.45,0,0,1-.69-1.17c2.51,0,3.34.9,3.29,3.59" fill-rule="evenodd"/><path d="M4,6.13c1-2.2,2.67-2.7,4.53-1.36a2.66,2.66,0,0,1-1.82.75c-.36,0-.71,0-1.06,0A3,3,0,0,0,4,6.13" fill-rule="evenodd"/><path d="M10.4,16.53a6,6,0,0,1-1.34-.07,2.34,2.34,0,0,1-2.16-2.4.49.49,0,0,1,0-.12c0-.24-.12-.59,0-.67s.47.14.69.28a2.82,2.82,0,0,1,.84.88c.52.82.94,1.72,1.94,2.1" fill-rule="evenodd"/><path d="M14.84,15.56a4.15,4.15,0,0,0,.67-2.74,2.74,2.74,0,0,1,.73-1.88c1.37,2,.85,3.51-1.4,4.62" fill-rule="evenodd"/><path d="M17.64,6.11a3.7,3.7,0,0,0-2.29-.56,3,3,0,0,1-2.22-.78A4.36,4.36,0,0,1,15,4a2,2,0,0,1,1.62.58,6,6,0,0,1,1.09,1.45Z" fill-rule="evenodd"/><path d="M18,11.08a4.64,4.64,0,0,1-.66,2c0,.05-.07.12-.15.1s-.08-.1-.06-.16a2.1,2.1,0,0,0-.3-1.47c-.19-.42-.41-.82-.61-1.24A2.82,2.82,0,0,1,16,8.85c0-.12,0-.29.19-.18a3.4,3.4,0,0,1,1.7,1.78,1.69,1.69,0,0,1,.09.63" fill-rule="evenodd"/><path d="M17.84,6.37a.13.13,0,0,1,0,.19h0l-.06-.14Z" fill-rule="evenodd"/><path d="M17.79,6.51l.05-.08c.06.07,0,.05-.05.07h0" fill-rule="evenodd"/></svg>