<svg xmlns="http://www.w3.org/2000/svg" xmlns:xlink="http://www.w3.org/1999/xlink" viewBox="0 0 86 24"><defs><mask id="a" x="77.8" y="4.02" width="7.94" height="14.6" maskUnits="userSpaceOnUse"><polygon points="77.81 4.02 85.74 4.02 85.74 18.62 77.81 18.62 77.81 4.02" fill="#fff" fill-rule="evenodd"/></mask></defs><title>mgm</title><path d="M32.5,20.52H29.57V6.58a1.33,1.33,0,0,1,1.53.51c1.63,2,3.32,4,5,6.08l2-2.37c1-1.23,2.11-2.44,3.1-3.72a1.34,1.34,0,0,1,1.51-.51V20.51H39.83V13.12l-.11,0-1.15,1.44c-.64.81-1.27,1.62-1.91,2.42-.46.6-.54.6-1,0L32.5,13Z" fill-rule="evenodd"/><path d="M65.3,13.16l3.22-3.83c.62-.74,1.29-1.46,1.86-2.24a1.26,1.26,0,0,1,1.5-.51V20.51H69V13.1l-.11,0c-.42.53-.85,1.06-1.27,1.6-.63.8-1.26,1.62-1.9,2.42-.33.41-.48.4-.8,0-1.06-1.33-2.11-2.67-3.26-4.13v7.57H58.71V6.58a1.33,1.33,0,0,1,1.53.51c1.52,1.9,3.1,3.75,4.66,5.62.11.14.23.26.4.45" fill-rule="evenodd"/><path d="M54.81,15.32H51.13V12.85h6.32c.5,3.74-1.22,7.15-5.19,7.76a6.89,6.89,0,0,1-6.83-2.47C43.09,15.29,43.13,9,48.2,6.9c2.82-1.17,6.3-.43,8,1.82a16.65,16.65,0,0,1,1.19,2.21c-1.09,0-2,0-2.87,0a.43.43,0,0,1-.28-.2c-1-1.6-2.5-1.82-4.13-1.55a3.62,3.62,0,0,0-3,2.92A5.42,5.42,0,0,0,47.47,16c.81,1.59,2.44,2.26,4.52,1.94a3.21,3.21,0,0,0,2.78-2.4,2.35,2.35,0,0,0,0-.24" fill-rule="evenodd"/><path d="M2.66,17.09h0a8.77,8.77,0,0,0,0,.89.59.59,0,0,0,.17.39,1.91,1.91,0,0,0,2.63-.61,2.46,2.46,0,0,0,.1-2.12,1.43,1.43,0,0,0-1.55-1,1.39,1.39,0,0,0-1.3,1.21,9.55,9.55,0,0,0-.08,1.2M0,14.35v-1.3a1.67,1.67,0,0,1,2.42,1A2.17,2.17,0,0,1,4.06,12.9,3,3,0,0,1,7.62,15a4.61,4.61,0,0,1,0,3.23,3.28,3.28,0,0,1-4.12,2.05l-.67-.2v3.88H.7v-.62c0-2.69,0-5.38,0-8.06,0-.49-.08-.89-.7-.91" fill-rule="evenodd"/><path d="M19.92,13c.75,0,1.38,0,2,0,.13,0,.31.24.37.41.55,1.43,1.07,2.87,1.6,4.31,0,.11.09.22.18.44.24-.74.44-1.38.65-2,.31-.93.63-1.85.93-2.78a.45.45,0,0,1,.52-.38c.55,0,1.1,0,1.72,0a3.91,3.91,0,0,1-.13.54q-1.5,3.93-3,7.85a8,8,0,0,1-.58,1.17,2.64,2.64,0,0,1-3.74,1c.06-.43.12-.87.19-1.3.07,0,.1-.05.13,0,1.19.29,1.56.06,2-1.1a1.85,1.85,0,0,0,0-1.67c-.91-1.94-1.75-3.91-2.62-5.87-.08-.17-.13-.35-.23-.63" fill-rule="evenodd"/><path d="M16.16,17.16a1.91,1.91,0,0,0-.73.18A1,1,0,0,0,15,18a1,1,0,0,0,.42.73,1.7,1.7,0,0,0,2-.69c.24-.45.17-.63-.32-.74-.31-.07-.64-.1-1-.16m4.07,1.94c.16,1.16-.06,1.38-1.16,1.2a1.23,1.23,0,0,1-1.09-1,3.21,3.21,0,0,1-4,.67,2.15,2.15,0,0,1-1-2.3A1.92,1.92,0,0,1,14.54,16a5.7,5.7,0,0,1,3,.15c.24-1.14-.12-1.67-1.21-1.77a6.21,6.21,0,0,0-1.29,0,12.4,12.4,0,0,0-1.3.29,8.3,8.3,0,0,1-.19-1.11.54.54,0,0,1,.29-.4A6.64,6.64,0,0,1,18,13.07a2.12,2.12,0,0,1,1.55,2.07c0,1,.05,2,0,3,0,.48,0,.89.61.93" fill-rule="evenodd"/><path d="M81.55,10.75c-.66-.11-1,.37-1.38.62s-.56.52-.12,1.17c-.09-1,.65-1.08,1.21-1.4l.25.38c0-.32,0-.52,0-.77M79.3,15.28c.64-.18,1.18-.37,1.73-.48s.68-.34.53-.81a3.16,3.16,0,0,1-2.15.55c0,.18-.06.41-.11.74m-1.74-4.12a2.11,2.11,0,0,1,.43.15,1.39,1.39,0,0,0,1.94-.16A1,1,0,0,1,80.1,11c1.33-.84,1.33-.85,2.57.18a.74.74,0,0,1,.22.48c0,1.66,0,3.31,0,5a.77.77,0,0,1-.11.45c-1.06,1.54-2.15,3.07-3.29,4.69,0-.21,0-.31,0-.42,0-1.33,0-2.65,0-4a.51.51,0,0,1,.42-.6c.3-.08.58-.21.88-.32.94-.33.94-.33.83-1.45-.62.18-1.21.37-1.82.53-.27.08-.62.23-.83.13a7.46,7.46,0,0,1-1.28-.88.37.37,0,0,1-.07-.25V11.16" fill-rule="evenodd"/><g mask="url(#a)"><path d="M78.56,5.9h1.06l0-.1-.91-.71-1-.71a1,1,0,0,1,1.33-.19c2.07,1.16,4.16,2.26,6.25,3.39.09,0,.17.11.36.24l-1,.07c0,3.59.26,7.19-1.15,10.73v-.7q0-3.59,0-7.17a.78.78,0,0,0-.37-.73c-.42-.28-.81-.6-1.21-.91a1.19,1.19,0,0,0-1.15-.33c-.32.07-.76-.38-1.15-.6L79.76,8,81.07,8,78.52,6Z" fill-rule="evenodd"/></g><path d="M12.2,18.66c0,.51.06,1,.09,1.44-1.86.74-3.45-.2-3.5-2.16-.07-2.88,0-5.76,0-8.69h2v7.94a4.47,4.47,0,0,0,0,.52c.08.72.33.94,1.05.95h.37" fill-rule="evenodd"/><path d="M73.78,21.73c.45-.44.92-.87,1.34-1.34a1.33,1.33,0,0,0,.33-.76c0-2.12,0-4.23,0-6.34A2,2,0,0,1,76,11.74c.37-.37.69-.8,1.11-1.16-.35,1.06-.71,2.11-1,3.17a1.22,1.22,0,0,0,.09.82c.67,1.27,1.38,2.54,2.09,3.79a.77.77,0,0,1,0,.8,3.5,3.5,0,0,1-3.07,2.32,11.26,11.26,0,0,0-1.39.34l-.06-.09" fill-rule="evenodd"/><path d="M65.83,4.05l2-.75c1.24-.47,2.48-.95,3.73-1.39a.64.64,0,0,1,.57.11c.53.51,1,1.08,1.55,1.61a.39.39,0,0,1,.07.58c-.64,1-.65,1.07-1.7.51a5.14,5.14,0,0,0-2.77-.6c-1.13.06-2.26,0-3.39,0l0-.08" fill-rule="evenodd"/><path d="M69.74.51c1.84,0,3.68,0,5.53,0a.64.64,0,0,1,.39.27A10,10,0,0,1,76.74,2.5,7.1,7.1,0,0,1,77,4.27c-.74,0-1.38,0-2,0-.11,0-.28-.22-.32-.36-.14-.56-.21-1.13-.36-1.68a.8.8,0,0,0-.43-.47C72.47,1.35,71.11,1,69.75.61V.51" fill-rule="evenodd"/><path d="M73.54,14V9.78l2.64-.85L73.63,14l-.09,0" fill-rule="evenodd"/><path d="M80,2.49,77.6,3.61,76.78.08,76.89,0,80,2.49" fill-rule="evenodd"/><path d="M72.86,7.72,74.58,7a.28.28,0,0,1,.2,0,21,21,0,0,1,2,1.08A9.11,9.11,0,0,0,75.2,7.8a8,8,0,0,0-1.6.38L74,7.79c0-.06,0-.12-.05-.17l-1.1.23,0-.13" fill-rule="evenodd"/></svg>