<svg xmlns="http://www.w3.org/2000/svg" xmlns:xlink="http://www.w3.org/1999/xlink" viewBox="0 0 109 24"><defs><mask id="a" x="0" y="0.48" width="108.24" height="23.26" maskUnits="userSpaceOnUse"><polygon points="0 0.48 108.24 0.48 108.24 23.74 0 23.74 0 0.48" fill="#fff" fill-rule="evenodd"/></mask></defs><title>Монтажная область 1</title><g mask="url(#a)"><path d="M28.45,23.45c1.21.21,1.95-.1,2.2-1.46,1.21-6.58,2.49-13.16,3.73-19.74.08-.43.31-.91-.21-1.29-1.17-.84-3.67.19-4,1.68C29,8.89,27.83,15.16,26.56,21.41c-.36,1.81.25,2.37,1.89,2M54.9.84c-1.41,0-2.83,0-4.24,0C48.62.9,49.32,2.7,49,3.75c-.41,1.45.89,1,1.51,1,1.56-.11,1.61.65,1.36,1.9-1,5-1.93,10-2.86,15-.11.57-.63,1.21.09,1.73,1.19.85,3.65-.19,3.94-1.68Q54.5,14.3,55.88,6.91c.23-1.19.34-2.44,2.07-2.15,2.45.4,2.22-1.61,2.28-2.94C60.32,0,58.76,1,58,.88a17.33,17.33,0,0,0-3.06,0m8.54,22.85c3.28,0,5.17-1.44,6-4.6a19.48,19.48,0,0,0,.63-4.24,4.14,4.14,0,0,0-2.44-4.25c-.7-.36-1.38-.76-2.1-1.08-1.41-.63-1.39-1.82-1.12-3,.21-.93.47-2,1.7-2,1.47,0,.9,1.34,1.19,2.15.44,1.24,1.6.51,2.44.63.65.09,1.37.2,1.66-.83A4.51,4.51,0,0,0,67.66.67c-3.58-.48-5.94,1-7,4.54-1.36,4.59-.8,6.48,3,8.22,2.3,1.05,2.47,2.61,1.9,4.63-.27,1-.8,1.79-2,1.75S62.4,18.9,62.29,18c-.24-1.86-1.7-.75-2.59-1s-1.42,0-1.57,1.15c-.46,3.51,1.45,5.57,5.31,5.54M4.32,15.25c1.5,0,2.68,0,3.85,0,2.79-.05,4.52-1.58,5.43-4.15a15.8,15.8,0,0,0,1-5.85c-.1-2.6-1.3-4-3.84-4.25C9.24.83,7.64,1,6.09.81s-2,.6-2.27,2C2.7,9,1.5,15.29.35,21.56c-.11.61-.83,1.61.19,1.8s3.1.76,3.43-.45c.64-2.32,2-4.78.35-7.66m9.79,1.48c-.14,4.52,1.11,6.51,3.82,6.92,3.21.48,5.91-.91,7-4A44.38,44.38,0,0,0,27.53,6.08c.09-4.5-3.44-6.78-7.55-5a6.14,6.14,0,0,0-3.44,4,61.15,61.15,0,0,0-2.43,11.6m60.68,6.74c1.94-.19,4.66.58,6.24-1.68,2-2.77,3.08-5.94,1.63-9.4-.27-.64-.28-.89.21-1.36,1.84-1.75,2-4.08,1.89-6.42A3.4,3.4,0,0,0,81.39,1C79.67.87,77.93.94,76.2.83c-1.23-.07-1.76.29-2,1.65-1,5.65-2.15,11.27-3.2,16.91-.76,4.08-.72,4.08,3.79,4.08M42.1,11l-.41,0c-.51-2.74-1-5.47-1.53-8.21-.21-1.2-.52-2-2-2s-1.85.76-2.07,2c-1.14,6.2-2.33,12.38-3.41,18.59-.12.67-1.33,2.07.55,2.11,1.25,0,3.1,1,3.38-1.63.25-2.29.83-4.54,1.29-6.81.09-.48-.08-1.17.79-1.22.52,2.66,1.11,5.31,1.53,8,.2,1.27.64,1.78,1.95,1.78s1.72-.52,1.94-1.78c1.11-6.2,2.35-12.38,3.48-18.57.14-.77,1-2.1-.56-2.25C45.7.8,43.89,0,43.55,2.53c-.37,2.83-1,5.64-1.45,8.46M98,.85c-2.92,0-5.83,0-8.75,0-.94,0-1.57.06-1.79,1.3C86.29,8.73,85,15.31,83.72,21.88c-.26,1.34.18,1.67,1.43,1.61a52.57,52.57,0,0,1,6.15,0c2.4.2,1.91-1.7,2.1-2.91.29-1.84-1.25-.79-2-1a8.79,8.79,0,0,0-2.12-.05c-.4,0-.89,0-.82-.58a21.89,21.89,0,0,1,.85-4.45c.47-1.25,1.86-.67,2.74-.56,2.66.35,2.32-1.81,2.39-3.11.1-1.58-1.43-.44-2.16-.78s-1.82.66-2-.86c-.37-2.91,1-4.47,3.87-4.47a26.25,26.25,0,0,0,3.55,0c2.28-.31,2.37.76,2,2.6-1,4.68-1.86,9.39-2.67,14.1-.11.61-1.18,2,.48,2,1.19,0,3,1.17,3.47-1.44.78-4.72,1.81-9.39,2.65-14.1.33-1.86.44-3.47,3.14-3.2,1.86.19,1.19-1.95,1.43-3,.3-1.32-1.06-.76-1.67-.78-2.84-.07-5.68,0-8.52,0" fill="none" fill-rule="evenodd"/></g><path d="M98,.85c2.84,0,5.68,0,8.52,0,2.31,0,2.1,4,.24,3.77-2.7-.27-2.81,1.34-3.14,3.2-.84,4.71-1.87,9.38-2.65,14.1-.43,2.61-4,1.73-4-.53.81-4.71,1.68-9.42,2.67-14.1.62-2.84-4.34-2.57-5.53-2.57-2.9,0-4.24,1.56-3.87,4.47.2,1.52,4.28.06,4.18,1.64-.07,1.3.27,3.46-2.39,3.11-.88-.11-2.27-.69-2.74.56A13,13,0,0,0,88.5,19c0,1.34,5.19-.23,4.9,1.61-.19,1.21.3,3.11-2.1,2.91a52.57,52.57,0,0,0-6.15,0c-1.25.06-1.69-.27-1.43-1.61C85,15.31,86.29,8.73,87.47,2.14c.22-1.24.85-1.3,1.79-1.3,2.92,0,5.83,0,8.75,0" fill-rule="evenodd"/><path d="M42.1,11c.49-2.82,1.08-5.63,1.45-8.46C43.88,0,45.7.8,47,.92c1.6.15.7,1.48.56,2.25-1.13,6.19-2.37,12.37-3.48,18.57-.22,1.26-.62,1.78-1.94,1.78s-1.75-.51-1.95-1.78c-.42-2.67-1-5.32-1.53-8-.87.05-.7.74-.79,1.22-.46,2.27-1,4.52-1.29,6.81-.28,2.6-2.13,1.66-3.38,1.63-1.88,0-.67-1.44-.56-2.11C33.71,15.1,34.9,8.92,36,2.72c.22-1.19.53-2,2.07-1.95s1.84.78,2,2c.49,2.74,1,5.47,1.53,8.21l.41,0" fill="#ff1f4a" fill-rule="evenodd"/><path d="M80.62,6.5c.07-1-.23-1.65-1.36-1.75s-1.59.31-1.65,1.41c0,.62-.3,1.23-.35,1.85s-.59,1.39.14,1.68a2.08,2.08,0,0,0,2.19-.39,4.3,4.3,0,0,0,1-2.8m-5.9,7c1.47,1.4,1.1,2.79.69,4.17-.51,1.71.19,2.26,1.71,1.72,2.08-.73,1.9-2.68,1.95-4.37.06-1.88-1.43-1.45-2.53-1.52-.47,0-.93,0-1.82,0m.07,9.93c-4.51,0-4.55,0-3.79-4.08,1-5.64,2.22-11.26,3.2-16.91.24-1.36.77-1.72,2-1.65,1.73.11,3.47,0,5.19.18a3.4,3.4,0,0,1,3.37,3.6c.1,2.34-.05,4.67-1.89,6.42-.49.47-.48.72-.21,1.36C84.11,15.85,83,19,81,21.79c-1.58,2.26-4.3,1.49-6.24,1.68" fill-rule="evenodd"/><path d="M18.08,17.49c0,.93-.13,2.06,1.12,2.29s1.74-.62,2.06-1.58A58.72,58.72,0,0,0,23.44,7.45c.15-1.07.5-2.48-.91-2.86s-2,.92-2.36,2.1a73.85,73.85,0,0,0-2.09,10.8m-4-.76a61.15,61.15,0,0,1,2.43-11.6A6.14,6.14,0,0,1,20,1.1c4.11-1.8,7.64.48,7.55,5a44.38,44.38,0,0,1-2.62,13.55c-1.07,3.11-3.77,4.5-7,4-2.71-.41-4-2.4-3.82-6.92" fill="#ff1f4a" fill-rule="evenodd"/><path d="M10.42,7.37C10.48,6,10.61,5,9.11,4.77s-1.69.72-1.88,1.79-.4,2.35-.64,3.52.34,1.44,1.29,1.28c2.5-.41,2.07-2.62,2.54-4m-6.1,7.88c1.62,2.88.29,5.34-.35,7.66-.33,1.21-2.28.66-3.43.45s-.3-1.19-.19-1.8C1.5,15.29,2.7,9,3.82,2.77c.25-1.35.69-2.15,2.27-2S9.24.83,10.8,1c2.54.26,3.74,1.65,3.84,4.25a15.8,15.8,0,0,1-1,5.85c-.91,2.57-2.64,4.1-5.43,4.15-1.17,0-2.35,0-3.85,0" fill="#ff1f4a" fill-rule="evenodd"/><path d="M63.44,23.69c-3.86,0-5.77-2-5.31-5.54.15-1.14.74-1.35,1.57-1.15s2.35-.9,2.59,1c.11.94.18,1.81,1.35,1.85s1.69-.79,2-1.75c.56-2,.4-3.58-1.9-4.63-3.82-1.74-4.38-3.63-3-8.22,1-3.49,3.4-5,7-4.54a4.51,4.51,0,0,1,3.78,5.79c-.29,1-3.66,1.44-4.1.2-.29-.81.28-2.11-1.19-2.15-1.23,0-1.49,1-1.7,2-.27,1.21-.29,2.4,1.12,3,.72.32,1.4.72,2.1,1.08a4.14,4.14,0,0,1,2.44,4.25,19.48,19.48,0,0,1-.63,4.24c-.87,3.16-2.76,4.57-6,4.6" fill="#ff1f4a" fill-rule="evenodd"/><path d="M54.9.84c1,0,5.42-.84,5.33,1-.06,1.33.17,3.34-2.28,2.94-1.73-.29-1.84,1-2.07,2.15q-1.4,7.38-2.81,14.77c-.29,1.49-2.75,2.53-3.94,1.68-.72-.52-.2-1.16-.09-1.73.93-5,1.87-10,2.86-15,.25-1.25.2-2-1.37-1.9-.61,0-1.66.52-1.5-1,.18-1.67-.41-2.85,1.63-2.9,1.41,0,2.83,0,4.24,0" fill="#ff1f4a" fill-rule="evenodd"/><path d="M28.88,23.5a4.61,4.61,0,0,0-.83,0c-1.34.17-1.82-.45-1.49-2.1C27.83,15.16,29,8.89,30.21,2.64,30.5,1.15,33,.12,34.17,1c.52.38.29.86.21,1.29C33.14,8.83,31.86,15.41,30.65,22c-.21,1.19-.81,1.58-1.77,1.51" fill="#ff1f4a" fill-rule="evenodd"/></svg>