<svg xmlns="http://www.w3.org/2000/svg" viewBox="0 0 150 24"><title>unibet</title><ellipse cx="12.65" cy="12" rx="9.8" ry="9.28" fill="#fff"/><ellipse cx="37.65" cy="12" rx="9.8" ry="9.28" fill="#fff"/><ellipse cx="62.42" cy="12" rx="9.8" ry="9.28" fill="#fff"/><ellipse cx="87.41" cy="12" rx="9.8" ry="9.28" fill="#fff"/><ellipse cx="112.52" cy="12" rx="9.8" ry="9.28" fill="#fff"/><ellipse cx="137.29" cy="12" rx="9.8" ry="9.28" fill="#fff"/><path d="M112.52.27a11.8,11.8,0,0,0-12,11.62,11.94,11.94,0,0,0,12,11.63,11.8,11.8,0,0,0,12-11.63A11.8,11.8,0,0,0,112.52.27Zm4.62,8.32L111.51,8l-.34,2.34,3.27.32-.34,2.46-3.27-.32-.33,2.66,6,.75-.34,2.45-9.34-1.06,1.46-12.16,9.12,1-.22,2.24ZM137.4.27a11.79,11.79,0,0,0-12,11.62,11.93,11.93,0,0,0,12,11.63,11.79,11.79,0,0,0,12-11.63C149.56,5.49,144.05.27,137.4.27Zm3,17.6-3.15.74L134.93,8.8l-4.06.85-.56-2.24L141.46,5,142,7.31l-4.05,1,2.47,9.6ZM12.88.27C6.23.27.83,5.49.83,11.79A11.93,11.93,0,0,0,12.88,23.41a11.79,11.79,0,0,0,12-11.62A11.84,11.84,0,0,0,12.88.27ZM14,18.4c-3,.64-5.4-.32-6-3.09L6.23,7.2l3.38-.64,1.8,8.53c.23,1.07,1.13,1.28,2,1.07,1.13-.21,1.58-.85,1.35-1.81L13,5.71,16.37,5l1.8,8.21C18.84,16.16,17.16,17.87,14,18.4ZM37.76.27a11.8,11.8,0,0,0-12,11.62,11.94,11.94,0,0,0,12,11.63A11.8,11.8,0,0,0,49.81,11.89,11.8,11.8,0,0,0,37.76.27Zm4.39,18.45-3.38-.43-2.7-8.85H36l-1.13,8.43-3-.54L33.48,5.17l3.94.54,2.25,7.89h.12l1.12-7.47,2.93.54ZM89.44,8.8c-.11-.85-.68-1.07-1.8-1l-2.59.43.34,2.34,2.81-.42C89.33,10,89.67,9.44,89.44,8.8Zm-.79,3.41-2.81.43.56,3.2,2.82-.43c1.23-.21,1.8-1,1.57-1.92s-.9-1.38-2.14-1.28ZM87.53.48a11.79,11.79,0,0,0-12,11.63c0,6.29,5.52,11.62,12,11.62a11.79,11.79,0,0,0,12-11.62A11.72,11.72,0,0,0,87.53.48ZM89.67,18l-5.75.86-2-12.16,5.85-.86c2.59-.32,4.28.54,4.73,2.67a3,3,0,0,1-1,2.67,2.93,2.93,0,0,1,2.25,2.45c.34,2.35-1.24,4-4,4.37ZM62.64.37A11.86,11.86,0,0,0,50.6,12a11.93,11.93,0,0,0,12,11.63A11.79,11.79,0,0,0,74.69,12,11.86,11.86,0,0,0,62.64.37Zm-2,18.56-.57-2.13,2.14-.53-2-7.47L58,9.33,57.46,7.2l7.21-1.81.56,2.13-2,.53,2,7.47L67.37,15l.57,2.13Z" fill="#3aaa35"/></svg>