<svg xmlns="http://www.w3.org/2000/svg" width="150" height="24" viewBox="0 0 150 24">
    <g fill="none" fill-rule="nonzero">
        <ellipse cx="12.652" cy="12" fill="#FFF" rx="9.796" ry="9.28"/>
        <ellipse cx="37.647" cy="12" fill="#FFF" rx="9.796" ry="9.28"/>
        <ellipse cx="62.418" cy="12" fill="#FFF" rx="9.796" ry="9.28"/>
        <ellipse cx="87.413" cy="12" fill="#FFF" rx="9.796" ry="9.28"/>
        <ellipse cx="112.521" cy="12" fill="#FFF" rx="9.796" ry="9.28"/>
        <ellipse cx="137.292" cy="12" fill="#FFF" rx="9.796" ry="9.28"/>
        <path fill="#3AAA35" d="M112.521.267c-6.642 0-12.047 5.12-12.047 11.626 0 6.294 5.405 11.627 12.047 11.627 6.643 0 12.048-5.12 12.048-11.627 0-6.506-5.405-11.626-12.048-11.626zm4.617 8.32l-5.63-.64-.338 2.346 3.266.32-.338 2.454-3.265-.32-.338 2.666 5.967.747-.338 2.453-9.345-1.066 1.464-12.16 9.12.96-.225 2.24zm20.266-8.32c-6.643 0-12.047 5.12-12.047 11.626 0 6.294 5.404 11.627 12.047 11.627 6.643 0 12.048-5.12 12.048-11.627.112-6.4-5.405-11.626-12.048-11.626zm3.04 17.6l-3.152.746-2.365-9.813-4.053.853-.563-2.24 11.147-2.453.563 2.347-4.054.96 2.477 9.6zM12.877.267C6.234.267.83 5.493.83 11.787c0 6.293 5.404 11.626 12.047 11.626 6.643 0 12.047-5.12 12.047-11.626 0-6.294-5.404-11.52-12.047-11.52zM14.003 18.4c-3.04.64-5.404-.32-5.967-3.093L6.234 7.2l3.378-.64 1.801 8.533c.226 1.067 1.126 1.28 2.027 1.067 1.126-.213 1.576-.853 1.351-1.813l-1.801-8.64 3.377-.747 1.802 8.213c.675 2.987-1.013 4.694-4.166 5.227zM37.76.267c-6.643 0-12.047 5.12-12.047 11.626 0 6.294 5.404 11.627 12.047 11.627 6.643 0 12.047-5.12 12.047-11.627C49.807 5.387 44.403.267 37.76.267zm4.391 18.453l-3.378-.427-2.702-8.853h-.112l-1.126 8.427-3.04-.534 1.688-12.16 3.941.534 2.252 7.893h.113l1.126-7.467 2.927.534-1.689 12.053zM89.44 8.8c-.113-.853-.676-1.067-1.801-.96l-2.59.427.338 2.346 2.814-.426c1.126-.214 1.464-.747 1.239-1.387zm-.788 3.413l-2.815.427.563 3.2 2.815-.427c1.238-.213 1.801-.96 1.576-1.92-.225-.96-.9-1.386-2.14-1.28zM87.526.48c-6.643 0-12.047 5.12-12.047 11.627 0 6.293 5.517 11.626 12.047 11.626 6.643 0 12.047-5.12 12.047-11.626C99.573 5.6 94.281.48 87.526.48zm2.14 17.493l-5.743.854-2.027-12.16 5.855-.854c2.59-.32 4.279.534 4.729 2.667.113 1.067-.225 1.92-1.013 2.667 1.126.32 2.026 1.066 2.252 2.453.337 2.347-1.239 3.947-4.054 4.373zM62.643.373C56 .373 50.596 5.6 50.596 12c0 6.293 5.404 11.627 12.047 11.627 6.643 0 12.047-5.12 12.047-11.627C74.69 5.6 69.286.373 62.643.373zm-2.027 18.56l-.563-2.133 2.14-.533L60.166 8.8l-2.14.533-.562-2.133 7.206-1.813.563 2.133-2.027.533 2.027 7.467 2.139-.533.563 2.133-7.319 1.813z"/>
    </g>
</svg>
