<svg xmlns="http://www.w3.org/2000/svg" viewBox="0 0 98 21"><title>Монтажная область 1</title><path d="M37.56,18.16c.81,0,1.71-.47,3-2-.36,1.23.09,2,1,2,1.08,0,2-1.23,3-2.46l4-5.2c.81-1.14,1.53-1.89,2.16-1.89s.54.75-.36,2c-.72,1.05-5.49,7.29-5.49,7.29h2l4.86-6.72c1.44-2,2.43-2.55,3-2.55.27,0,.36.28.36.47,0,.66-.45,1.14-1.8,3L48.82,18h2l4.87-6.62c1.8-2.46,2.43-2.65,2.88-2.65.27,0,.36.29.36.48,0,1.51-4.15,4.63-4.15,7.47a1.69,1.69,0,0,0,1.81,1.61c3.06,0,6.39-7.1,6.39-11,0-3.21-1.8-4.82-3.87-4.82-3,0-4.06,1.8-4.06,3a1.75,1.75,0,0,0,1.81,1.6,2.88,2.88,0,0,0,2.43-2.17c0-.1,0-.1-.09-.1-.54,1.33-1.44,1.8-2.07,1.8a1.14,1.14,0,0,1-1.26-1.23c0-.85.9-2.46,3.24-2.46,2.16,0,3.42,1.52,3.42,4.45,0,5.11-3.15,10.4-5.58,10.4-.63,0-.63-.28-.63-.66,0-.85,1.26-2.08,2.34-3.78.81-1.33,1.71-2.65,1.71-3.79,0-.94-.45-1.41-1.08-1.41s-1.53.56-3,2.08c.27-1,.36-2.08-.81-2.08-.64,0-1.72.47-3.16,2.27.45-1.52,0-2.27-.9-2.27s-1.62.66-2.25,1.7l-3.6,4.54c-1.35,1.7-2.52,3.5-3.25,3.5-.54,0-.72-.76.09-1.89l5.77-7.67H46.12l-.72.48A.87.87,0,0,0,44.5,8C43,8,41.07,9.18,39.63,10.69a15.76,15.76,0,0,0-2.79,4.45c-.72,1-2,2.55-3,2.55-.63,0-.72-.76.09-1.89l5.76-7.66H37.65s-2.43,3.5-4,5.67c-.45.66-1.8,2.37-2.16,2.74a2.8,2.8,0,0,1-1.72,1c-.63,0-.72-.75.09-1.89.72-.85,9-11.92,9-11.92H36.75s-5.4,7.38-7.3,10.13c-.45.66-1.8,2.36-2.16,2.74a2.83,2.83,0,0,1-1.71,1c-.63,0-.72-.76.09-1.89.72-1,9-12,9-12H32.79s-6,8.23-7.66,10.6a.09.09,0,0,1-.09.09c-.54.76-2.25,3.22-3.42,3.22-.63,0-.72-.76.09-1.89l5.76-7.66H25.4s-2.79,4-4.23,6.14c-1.62,2.18-.9,3.88.54,3.88,1.26,0,2-.94,2.7-1.8-.27,1.14.27,1.8,1.17,1.8a3.5,3.5,0,0,0,2.7-1.8,1.41,1.41,0,0,0,1.35,1.8c1.27,0,2.08-1,2.8-1.89-.18,1.14.45,1.89,1.35,1.89,1.08,0,2.07-1,2.7-1.89C36.48,17.22,36.66,18.16,37.56,18.16Zm4.14-7.85c1.36-1.42,2.08-1.61,2.35-1.61s.45.19.45.57c0,1.14-3.61,5.87-4.51,6.91-.45.47-1.35,1.32-2,1.32C36.48,17.5,39.09,13.05,41.7,10.31ZM30.08,4.82c.27-.66-.09-1.13-.63-1.13A2,2,0,0,0,28,4.82c-.27.67.09,1.14.63,1.14A1.49,1.49,0,0,0,30.08,4.82ZM40.8,6.15A1.8,1.8,0,0,0,42.24,5c.27-.66-.09-1.13-.63-1.13a1.94,1.94,0,0,0-1.53,1C40,5.58,40.26,6.15,40.8,6.15ZM9.37,20.62A6.37,6.37,0,0,1,2.79,15a1.53,1.53,0,0,0,.63.09,3.91,3.91,0,0,0,1.89-.47A1.92,1.92,0,0,0,6.58,15c4,0,6.84-7.76,4.32-9.93,2.07-1,4.23-1.33,5.85-.47l-1.17.94c-3,3.12-4.32,9.46-6.57,12a2.63,2.63,0,0,0-.81-.18,1,1,0,0,0-.9.56c-.09.29.27.57.63.57A1.81,1.81,0,0,0,9,18.16c.27,0,.54.1.72.1a4,4,0,0,0,2.79-1.52C15.13,14,17.38,8.23,19,7.09c-1.45,2.56-3,8.23-5.14,10.69a2.65,2.65,0,0,0-.81-.19,1,1,0,0,0-.9.57c-.09.29.27.57.63.57A2.28,2.28,0,0,0,14,18.35a2.51,2.51,0,0,0,.81.1,3.79,3.79,0,0,0,2.43-1.23c2.8-2.94,6.31-8.9,9.19-12A7.87,7.87,0,0,1,32,2.46,5.93,5.93,0,0,1,35.85,4c.09-.09,0-.19-.09-.28A5.74,5.74,0,0,0,31.62,1.8c-1.36,0-3.7.56-6.49,3.4-3,3.12-6.39,9.46-8.56,11.73-.9.95-1.53,1.23-2,1.23a.54.54,0,0,1-.36-.09,12.76,12.76,0,0,0,1.35-1.23c3.61-3.79,4.42-10.79,6.49-13-.09-.19-1,.09-2.7,2C16.57,8.8,15,14,12.25,16.84a4,4,0,0,1-2.34,1.32.54.54,0,0,1-.36-.09,13.6,13.6,0,0,0,1.26-1.23C12.79,14.76,15,8.23,17.38,5,20.09,4.92,20,3.5,19.19,3.5a4.1,4.1,0,0,0-1.81.76,4.56,4.56,0,0,0-3.33-1A9.31,9.31,0,0,0,9.46,4.54c-3,0-7.3,3.31-7.3,9.08v.47a3.5,3.5,0,0,1-1.35-3C.81,6.53,7.39.85,15.31.85A13.66,13.66,0,0,1,23.6,3.5l.09-.19C22.34,2.08,19.46,0,14.23,0,7.48,0,0,4.26,0,10.88a3.74,3.74,0,0,0,2.07,3.59A7.08,7.08,0,0,0,9,21H98v-.57ZM10.45,5.3c2.7,1.79-.36,9.27-3.69,9.27a1.52,1.52,0,0,1-.91-.29c1.09-.75,2.26-2.17,3-4.92l-.18-.09a9.9,9.9,0,0,1-3.16,4.64,3.18,3.18,0,0,1-.54-2C5,9.65,7.57,6.81,10.45,5.3Zm-7.75,8c0-3.6,3-7.95,5.77-8.33-2.53,1.8-4.24,4.45-4.24,6.81a4.87,4.87,0,0,0,.63,2.46,2.49,2.49,0,0,1-1.44.38,2.39,2.39,0,0,1-.81-.19A5.18,5.18,0,0,0,2.7,13.34Zm74-10.69h4.24V18.26H76.65ZM90.79,18.26H98V13.53H95.12V2.65H90.79Zm-8.28,0h7.2V13.53H86.83V2.65H82.51ZM70.89,2.65V8.14H68.82V2.65H64.49V18.26h4.33V12.11h2.07v6.15H75V2.65Z"/></svg>